{
.appVersion = "3098";
.formatVersion = 3;
DisplayStrings = (
"All die anderen 
Adaptionen sind ein überwiegend trauriges Kapitel.",
"FEADO
0xFE2AD0",
"8",
e,
"̧̈̇̀́̂̌̊̃̄̋/caroncomb.alt ̄̆̃̄́̒ģgġ.,̨̦",
P,
"x/x.hex",
"nIH⤓Ht↑H↓↥H-→-–H←H"
);
axes = (
{
name = Weight;
tag = wght;
}
);
classes = (
{
code = "A B C D E F";
name = hex_src;
},
{
code = "A.hex
B.hex
C.hex
D.hex
E.hex
F.hex";
name = hex_tgt;
},
{
code = "zero one two three four five six seven eight nine a b c d e f A B C D E F A.hex B.hex C.hex D.hex E.hex F.hex zero.zero";
name = num_all;
},
{
automatic = 1;
code = "A Aacute Acircumflex Adieresis Agrave Aring Atilde B C Cacute Ccaron Ccedilla Cdotaccent D Dcaron E Eacute Ecaron Ecircumflex Edieresis Edotaccent Egrave F G Gdotaccent H I IJ Iacute Icircumflex Idieresis Idotaccent Igrave J Jacute K L Lacute M N Nacute Ncaron Ntilde O Oacute Ocircumflex Odieresis Ograve Otilde P Q R Racute Rcaron S Sacute Scaron Scedilla Germandbls T Tcaron Tcedilla U Uacute Ucircumflex Udieresis Ugrave Uring V W Wacute Wcircumflex Wdieresis Wgrave X Y Yacute Ycircumflex Ydieresis Ygrave Z Zacute Zcaron Zdotaccent A.hex B.hex C.hex D.hex E.hex F.hex";
name = Uppercase;
},
{
code = "I
Iacute
Icircumflex
Idieresis
Igrave
J
K
L
Lacute
M
S
Sacute
Scaron
Scedilla
W
Wacute
Wcircumflex
Wdieresis
Wgrave
X
Y
Yacute
Ycircumflex
Ydieresis
Ygrave
Z
Zacute
Zcaron
Zdotaccent
j
jdotless
k
r
racute
rcaron
s
sacute
scaron
scedilla
t
w
wacute
wcircumflex
wdieresis
wgrave
z
zacute
zcaron
zdotaccent
";
disabled = 1;
name = mono_src;
},
{
code = "I.mono
Iacute.mono
Icircumflex.mono
Idieresis.mono
Igrave.mono
J.mono
K.mono
L.mono
Lacute.mono
M.mono
S.mono
Sacute.mono
Scaron.mono
Scedilla.mono
W.mono
Wacute.mono
Wcircumflex.mono
Wdieresis.mono
Wgrave.mono
X.mono
Y.mono
Yacute.mono
Ycircumflex.mono
Ydieresis.mono
Ygrave.mono
Z.mono
Zacute.mono
Zcaron.mono
Zdotaccent.mono
j.mono
jdotless.mono
k.mono
r.mono
racute.mono
rcaron.mono
s.mono
sacute.mono
scaron.mono
scedilla.mono
t.mono
w.mono
wacute.mono

glyphs = (
{
glyphname = A;
lastChange = "2021-01-29 08:48:40 +0000";
layers = (
{
anchors = (
{
name = bottom;
pos = (280,0);
},
{
name = ogonek;
pos = (522,0);
},
{
name = top;
pos = (280,720);
}
);
background = {
shapes = (
{
closed = 1;
nodes = (
(160,0,l),
(160,240,l),
(400,240,l),
(400,0,l),
(480,0,l),
(480,640,l),
(400,640,l),
(400,320,l),
(160,320,l),
(160,640,l),
(80,640,l),
(80,0,l)
);
},
{
closed = 1;
nodes = (
(400,640,l),
(400,720,l),
(160,720,l),
(160,640,l)
);
}
);
};
hints = (
{
horizontal = 1;
origin = (0,4);
type = TTSnap;
},
{
horizontal = 1;
options = 4;
origin = (0,6);
target = (0,1);
type = TTShift;
},
{
horizontal = 1;
origin = (0,4);
other1 = (0,7,1,1);
target = (0,6);
type = TTInterpolate;
},
{
horizontal = 1;
options = 4;
origin = (0,7,1,1);
target = (0,7,1,3);
type = TTStem;
},
{
horizontal = 1;
options = 4;
origin = (0,4);
other1 = (0,1,0,7);
target = (0,6);
type = TTInterpolate;
}
);
layerId = "83692D61-586C-413E-9B5A-1AF652750951";
shapes = (
{
closed = 1;
nodes = (
(266,650,l),
(433,0,l),
(522,0,l),
(323,720,l),
(240,720,l),
(37,0,l),
(117,0,l),
(294,650,l)
);
},
{
closed = 1;
nodes = (
(160,204,l),
(400,204,l),
(400,276,l),
(160,276,l)
);
}
);
width = 560;
}
);
unicode = 65;
},
{
glyphname = B;
lastChange = "2021-01-30 19:35:36 +0000";
layers = (
{
anchors = (
{
name = bottom;
pos = (280,0);
},
{
name = top;
pos = (280,720);
}
);
background = {
shapes = (
{
closed = 1;
nodes = (
(160,400,l),
(160,640,l),
(400,640,l),
(400,720,l),
(80,720,l),
(80,0,l),
(400,0,l),
(400,80,l),
(160,80,l),
(160,320,l),
(400,320,l),
(400,400,l)
);
},
{
closed = 1;
nodes = (
(400,400,l),
(480,400,l),
(480,640,l),
(400,640,l)
);
},
{
closed = 1;
nodes = (
(400,80,l),
(480,80,l),
(480,320,l),
(400,320,l)
);
}
);
};
hints = (
{
horizontal = 1;
options = 4;
origin = (0,13);
target = (2,1);
type = TTStem;
},
{
horizontal = 1;
options = 4;
origin = (0,0);
target = (1,7);
type = TTStem;
},
{
horizontal = 1;
origin = (0,13);
other1 = (1,1);
target = (0,0);
type = TTInterpolate;
},
{
horizontal = 1;
options = 4;
origin = (1,1);
other1 = (0,6,0,10);
target = (2,7);
type = TTInterpolate;
},
{
horizontal = 1;
options = 4;
origin = (1,1);
target = (2,7);
type = TTStem;
}
);
layerId = "83692D61-586C-413E-9B5A-1AF652750951";
shapes = (
{
closed = 1;
nodes = (
(254,0,ls),
(412,0,o),
(488,73,o),
(488,189,cs),
(488,309,o),
(402,384,o),
(267,384,c),
(252,347,l),
(388,347,o),
(474,424,o),
(474,535,cs),
(474,648,o),
(398,720,o),
(240,720,cs),
(80,720,l),
(80,0,l)
);
},
{
closed = 1;
nodes = (
(160,328,l),
(261,328,ls),
(352,328,o),
(404,285,o),
(404,201,cs),
(404,121,o),
(358,70,o),
(256,70,cs),
(160,70,l)
);
},
{
closed = 1;
nodes = (
(160,650,l),
(242,650,ls),
(349,650,o),
(390,600,o),
(390,526,cs),
(390,441,o),
(338,400,o),
(246,400,cs),
(160,400,l)
);
}
);
width = 560;
}
);
unicode = 66;
},
{
glyphname = C;
lastChange = "2021-01-21 07:38:27 +0000";
layers = (
{
anchors = (
{
name = bottom;
pos = (280,0);
},
{
name = top;
pos = (303,720);
}
);
background = {
shapes = (
{
closed = 1;
nodes = (
(160,80,l),
(160,640,l),
(80,640,l),
(80,80,l)
);
},
{
closed = 1;
nodes = (
(400,0,l),
(400,80,l),
(160,80,l),
(160,0,l)
);
},
{
closed = 1;
nodes = (
(480,80,l),
(480,240,l),
(400,240,l),
(400,80,l)
);
},
{
closed = 1;
nodes = (
(400,640,l),
(400,720,l),
(360,722,o),
(320,724,o),
(279,724,cs),
(240,724,o),
(200,722,o),
(160,720,c),
(160,640,l)
);
},
{
closed = 1;
nodes = (
(480,480,l),
(480,640,l),
(400,640,l),
(400,480,l)
);
}
);
};
hints = (
{
horizontal = 1;
options = 4;
origin = (0,19);
target = (0,12);
type = TTStem;
},
{
horizontal = 1;
options = 4;
origin = (0,25);
target = (0,6);
type = TTStem;
}
);
layerId = "83692D61-586C-413E-9B5A-1AF652750951";
shapes = (
{
closed = 1;
nodes = (
(377,-11,o),
(422,19,o),
(476,55,c),
(444,110,l),
(400,83,o),
(360,61,o),
(308,61,cs),
(203,61,o),
(150,151,o),
(150,360,cs),
(150,600,o),
(221,659,o),
(304,659,cs),
(363,659,o),
(409,634,o),
(443,613,c),
(477,670,l),
(429,704,o),
(374,731,o),
(308,731,cs),
(155,731,o),
(68,610,o),
(68,360,cs),
(68,103,o),
(155,-11,o),
(294,-11,cs)
);
}
);
width = 560;
}
);
unicode = 67;
},
{
glyphname = D;
lastChange = "2021-01-21 07:39:07 +0000";
layers = (
{
anchors = (
{
name = bottom;
pos = (280,0);
},
{
name = center;
pos = (280,360);
},
{
name = top;
pos = (272,720);
}
);
background = {
shapes = (
{
closed = 1;
nodes = (
(160,640,l),
(320,640,l),
(320,720,l),
(80,720,l),
(80,0,l),
(320,0,l),
(320,80,l),
(160,80,l)
);
},
{
closed = 1;
nodes = (
(400,640,l),
(320,640,l),
(320,560,l),
(400,560,l)
);
},
{
closed = 1;
nodes = (
(400,160,l),
(480,160,l),
(480,560,l),
(400,560,l)
);
},
{
closed = 1;
nodes = (
(400,80,l),
(400,160,l),
(320,160,l),
(320,80,l)
);
}
);
};
hints = (
{
horizontal = 1;
options = 4;
origin = (0,8);
target = (1,8);
type = TTStem;
},
{
horizontal = 1;
options = 4;
origin = (0,2);
target = (1,5);
type = TTStem;
}
);
layerId = "83692D61-586C-413E-9B5A-1AF652750951";
shapes = (
{
closed = 1;
nodes = (
(80,720,l),
(80,0,l),
(254,0,ls),
(403,0,o),
(504,122,o),
(504,362,cs),
(504,593,o),
(426,720,o),
(248,720,cs)
);
},
{
closed = 1;
nodes = (
(363,648,o),
(420,571,o),
(420,359,cs),
(420,144,o),
(358,72,o),
(258,72,cs),
(160,72,l),
(160,648,l),
(252,648,ls)
);
}
);
width = 560;
}
);
unicode = 68;
},
{
color = 7;
glyphname = Eth;
lastChange = "2021-05-06 08:30:33 +0000";
layers = (
{
layerId = "83692D61-586C-413E-9B5A-1AF652750951";
shapes = (
{
closed = 1;
nodes = (
(298,328,l),
(298,400,l),
(0,400,l),
(0,328,l)
);
},
{
ref = D;
}
);
width = 560;
}
);
unicode = 208;
},
{
color = 9;
glyphname = E;
lastChange = "2021-01-29 08:14:03 +0000";
layers = (
{
anchors = (
{
name = bottom;
pos = (280,0);
},
{
name = ogonek;
pos = (471,0);
},
{
name = top;
pos = (285,720);
}
);
hints = (
{
horizontal = 1;
options = 4;
origin = (0,11);
target = (0,2);
type = TTStem;
},
{
horizontal = 1;
options = 4;
origin = (0,10);
target = (0,7);
type = TTStem;
},
{
horizontal = 1;
origin = (0,11);
other1 = (0,3);
target = (0,10);
type = TTInterpolate;
},
{
horizontal = 1;
options = 4;
origin = (0,3);
target = (0,6);
type = TTStem;
}
);
layerId = "83692D61-586C-413E-9B5A-1AF652750951";
shapes = (
{
closed = 1;
nodes = (
(471,0,l),
(471,72,l),
(172,72,l),
(172,326,l),
(431,326,l),
(431,398,l),
(172,398,l),
(172,648,l),
(467,648,l),
(467,720,l),
(92,720,l),
(92,0,l)
);
}
);
width = 560;
},
{
associatedMasterId = "83692D61-586C-413E-9B5A-1AF652750951";
layerId = "E6CE487C-E1FC-470A-BAAF-A504782E6D1F";
name = "Jan 10 18, 17:22";
shapes = (
{
closed = 1;
nodes = (
(471,0,l),
(471,72,l),
(172,72,l),
(172,326,l),
(431,326,l),
(431,398,l),
(172,398,l),
(172,648,l),
(467,648,l),
(467,720,l),
(92,720,l),
(92,0,l)
);
}
);
width = 560;
}
);
unicode = 69;
},
{
color = 6;
glyphname = Eogonek;
lastChange = "2021-05-06 08:08:04 +0000";
layers = (
{
background = {
shapes = (
{
closed = 1;
nodes = (
(434,-160,o),
(457,-157,o),
(477,-152,c),
(469,-85,l),
(454,-87,o),
(440,-88,o),
(427,-88,cs),
(379,-88,o),
(359,-69,o),
(359,-27,cs),
(359,-22,o),
(396,-11,o),
(471,0,c),
(400,0,l),
(343,-12,o),
(285,-29,o),
(285,-44,cs),
(285,-124,o),
(341,-160,o),
(411,-160,cs)
);
}
);
};
layerId = "83692D61-586C-413E-9B5A-1AF652750951";
shapes = (
{
ref = E;
},
{
pos = (121,0);
ref = ogonekcomb;
}
);
width = 560;
}
);
unicode = 280;
},
{
glyphname = F;
lastChange = "2021-01-29 08:14:22 +0000";
layers = (
{
anchors = (
{
name = bottom;
pos = (140,0);
},
{
name = top;
pos = (280,720);
}
);
hints = (
{
horizontal = 1;
options = 4;
origin = (0,8);
target = (0,5);
type = TTStem;
},
{
horizontal = 1;
origin = (0,0);
type = TTSnap;
},
{
horizontal = 1;
origin = (0,8);
other1 = (0,1);
target = (0,0);
type = TTInterpolate;
},
{
horizontal = 1;
options = 4;
origin = (0,1);
target = (0,4);
type = TTStem;
}
);
layerId = "83692D61-586C-413E-9B5A-1AF652750951";
shapes = (
{
closed = 1;
nodes = (
(180,0,l),
(180,314,l),
(400,314,l),
(400,386,l),
(180,386,l),
(180,648,l),
(480,648,l),
(480,720,l),
(100,720,l),
(100,0,l)
);
}
);
width = 560;
}
);
unicode = 70;
},
{
glyphname = G;
lastChange = "2021-01-21 07:57:51 +0000";
layers = (
{
anchors = (
{
name = bottom;
pos = (280,0);
},
{
name = top;
pos = (303,720);
}
);
background = {
shapes = (
{
closed = 1;
nodes = (
(480,0,l),
(480,320,l),
(240,320,l),
(240,240,l),
(400,240,l),
(400,80,l),
(160,80,l),
(160,0,l)
);
},
{
closed = 1;
nodes = (
(160,80,l),
(160,640,l),
(80,640,l),
(80,80,l)
);
},
{
closed = 1;
nodes = (
(400,640,l),
(400,720,l),
(160,720,l),
(160,640,l)
);
},
{
closed = 1;
nodes = (
(480,480,l),
(480,640,l),
(400,640,l),
(400,480,l)
);
}
);
};
hints = (
{
horizontal = 1;
options = 4;
origin = (0,19);
target = (0,12);
type = TTStem;
},
{
horizontal = 1;
options = 4;
origin = (0,25);
target = (0,6);
type = TTStem;
},
{
horizontal = 1;
origin = (0,19);
other1 = (1,3);
target = (0,25);
type = TTInterpolate;
},
{
horizontal = 1;
options = 4;
origin = (1,3);
target = (1,2);
type = TTStem;
}
);
layerId = "83692D61-586C-413E-9B5A-1AF652750951";
shapes = (
{
closed = 1;
nodes = (
(376,-11,o),
(431,4,o),
(480,25,c),
(457,94,l),
(410,74,o),
(365,61,o),
(315,61,cs),
(203,61,o),
(150,151,o),
(150,360,cs),
(150,600,o),
(221,659,o),
(312,659,cs),
(364,659,o),
(408,641,o),
(446,623,c),
(474,686,l),
(425,713,o),
(373,731,o),
(312,731,cs),
(155,731,o),
(68,610,o),
(68,360,cs),
(68,103,o),
(155,-11,o),
(308,-11,cs)
);
},
{
closed = 1;
nodes = (
(480,25,l),
(480,320,l),
(274,320,l),
(274,248,l),
(400,248,l),
(400,25,l)
);
}
);
width = 560;
}
);
unicode = 71;
},
{
glyphname = H;
lastChange = "2021-01-29 08:52:34 +0000";
layers = (
{
anchors = (
{
name = bottom;
pos = (280,0);
},
{
name = top;
pos = (280,720);
}
);
hints = (
{
horizontal = 1;
origin = (0,0);
other1 = (0,1);
target = (0,9);
type = TTInterpolate;
},
{
horizontal = 1;
options = 4;
origin = (0,1);
target = (0,8);
type = TTStem;
},
{
horizontal = 1;
options = 4;
origin = (0,0);
target = (0,3);
type = TTShift;
},
{
horizontal = 1;
options = 4;
origin = (0,9);
target = (0,6);
type = TTShift;
}
);
layerId = "83692D61-586C-413E-9B5A-1AF652750951";
shapes = (
{
closed = 1;
nodes = (
(160,0,l),
(160,328,l),
(400,328,l),
(400,0,l),
(480,0,l),
(480,720,l),
(400,720,l),
(400,400,l),
(160,400,l),
(160,720,l),
(80,720,l),
(80,0,l)
);
}
);
width = 560;
}
);
unicode = 72;
},
{
color = 7;
glyphname = Hbar;
lastChange = "2021-05-06 08:51:37 +0000";
layers = (
{
layerId = "83692D61-586C-413E-9B5A-1AF652750951";
shapes = (
{
ref = H;
},
{
closed = 1;
nodes = (
(560,568,l),
(560,640,l),
(0,640,l),
(0,568,l)
);
}
);
width = 560;
}
);
unicode = 294;
},
{
glyphname = I;
lastChange = "2021-01-29 08:20:38 +0000";
layers = (
{
anchors = (
{
name = bottom;
pos = (240,0);
},
{
name = ogonek;
pos = (400,0);
},
{
name = top;
pos = (240,720);
}
);
hints = (
{
horizontal = 1;
options = 4;
origin = (0,11);
target = (0,9);
type = TTStem;
},
{
horizontal = 1;
options = 4;
origin = (0,9);
target = (0,2);
type = TTShift;
},
{
horizontal = 1;
options = 4;
origin = (0,6);
target = (0,8);
type = TTStem;
},
{
horizontal = 1;
options = 4;
origin = (0,8);
target = (0,3);
type = TTShift;
}
);
layerId = "83692D61-586C-413E-9B5A-1AF652750951";
shapes = (
{
closed = 1;
nodes = (
(400,0,l),
(400,64,l),
(280,72,l),
(280,648,l),
(400,656,l),
(400,720,l),
(80,720,l),
(80,656,l),
(200,648,l),
(200,72,l),
(80,64,l),
(80,0,l)
);
}
);
width = 480;
}
);
unicode = 73;
},
{
glyphname = J;
lastChange = "2018-09-10 14:09:06 +0000";
layers = (
{
anchors = (
{
name = bottom;
pos = (200,0);
},
{
name = top;
pos = (256,720);
}
);
background = {
shapes = (
{
closed = 1;
nodes = (
(80,720,l),
(80,640,l),
(320,640,l),
(320,80,l),
(400,80,l),
(400,720,l)
);
},
{
closed = 1;
nodes = (
(0,80,l),
(80,80,l),
(80,160,l),
(0,160,l)
);
},
{
closed = 1;
nodes = (
(80,80,l),
(80,0,l),
(320,0,l),
(320,80,l)
);
}
);
};
hints = (
{
horizontal = 1;
options = 4;
origin = (0,3);
target = (0,6);
type = TTStem;
},
{
horizontal = 1;
options = 4;
origin = (0,17);
target = (0,10);
type = TTStem;
}
);
layerId = "83692D61-586C-413E-9B5A-1AF652750951";
shapes = (
{
closed = 1;
nodes = (
(331,-12,o),
(408,69,o),
(408,203,cs),
(408,720,l),
(104,720,l),
(104,648,l),
(328,648,l),
(328,198,ls),
(328,106,o),
(285,60,o),
(215,60,cs),
(160,60,o),
(121,94,o),
(82,144,c),
(27,100,l),
(79,29,o),
(135,-12,o),
(218,-12,cs)
);
}
);
width = 480;
}
);
unicode = 74;
},
{
glyphname = K;
lastChange = "2021-01-29 08:52:46 +0000";
layers = (
{
anchors = (
{
name = bottom;
pos = (260,0);
},
{
name = top;
pos = (260,720);
}
);
background = {
shapes = (
{
closed = 1;
nodes = (
(160,720,l),
(80,720,l),
(80,0,l),
(160,0,l),
(160,320,l),
(240,320,l),
(240,400,l),
(160,400,l)
);
},
{
closed = 1;
nodes = (
(400,560,l),
(480,560,l),
(480,720,l),
(400,720,l)
);
},
{
closed = 1;
nodes = (
(400,480,l),
(400,560,l),
(320,560,l),
(320,480,l)
);
},
{
closed = 1;
nodes = (
(320,400,l),
(320,480,l),
(240,480,l),
(240,400,l)
);
},
{
closed = 1;
nodes = (
(320,320,l),
(240,320,l),
(240,240,l),
(320,240,l)
);
},
{
closed = 1;
nodes = (
(400,240,l),
(320,240,l),
(320,160,l),
(400,160,l)
);
},
{
closed = 1;
nodes = (
(480,0,l),
(480,160,l),
(400,160,l),
(400,0,l)
);
}
);
};
hints = (
{
horizontal = 1;
options = 4;
origin = (0,3);
other1 = (0,0,1,2);
target = (0,0);
type = TTInterpolate;
},
{
horizontal = 1;
options = 4;
origin = (0,3);
other1 = (0,0,2,0);
target = (0,0);
type = TTInterpolate;
},
{
horizontal = 1;
options = 4;
origin = (0,3);
target = (2,0);
type = TTShift;
},
{
horizontal = 1;
options = 4;
origin = (0,3);
target = (3,3);
type = TTShift;
},
{
horizontal = 1;
options = 4;
origin = (0,3);
target = (5,0);
type = TTShift;
},
{
horizontal = 1;
options = 4;
origin = (0,0);
target = (1,1);
type = TTShift;
},
{
horizontal = 1;
options = 4;
origin = (0,0);
target = (3,0);
type = TTShift;
},
{
horizontal = 1;
options = 4;
origin = (0,0);
target = (4,1);
type = TTShift;
}
);
layerId = "83692D61-586C-413E-9B5A-1AF652750951";
shapes = (
{
closed = 1;
nodes = (
(160,720,l),
(80,720,l),
(80,0,l),
(160,0,l)
);
},
{
closed = 1;
nodes = (
(473,720,l),
(381,720,l),
(133,353,l),
(217,353,l)
);
},
{
closed = 1;
nodes = (
(389,0,l),
(489,0,l),
(227,381,l),
(135,381,l)
);
},
{
closed = 1;
nodes = (
(160,720,l),
(80,720,l),
(80,0,l),
(160,0,l)
);
},
{
closed = 1;
nodes = (
(473,720,l),
(381,720,l),
(133,353,l),
(217,353,l)
);
},
{
closed = 1;
nodes = (
(389,0,l),
(489,0,l),
(227,381,l),
(135,381,l)
);
}
);
width = 520;
}
);
unicode = 75;
},
{
glyphname = L;
lastChange = "2021-01-21 07:39:39 +0000";
layers = (
{
anchors = (
{
name = bottom;
pos = (240,0);
},
{
name = center;
pos = (240,360);
},
{
name = top;
pos = (130,720);
},
{
name = topright;
pos = (460,720);
}
);
hints = (
{
horizontal = 1;
options = 4;
origin = (0,5);
target = (0,2);
type = TTStem;
},
{
horizontal = 1;
origin = (0,3);
type = TTSnap;
}
);
layerId = "83692D61-586C-413E-9B5A-1AF652750951";
shapes = (
{
closed = 1;
nodes = (
(440,0,l),
(440,72,l),
(160,72,l),
(160,720,l),
(80,720,l),
(80,0,l)
);
}
);
width = 480;
}
);
unicode = 76;
},
{
glyphname = M;
lastChange = "2021-01-29 08:52:59 +0000";
layers = (
{
anchors = (
{
name = bottom;
pos = (360,0);
},
{
name = top;
pos = (360,720);
}
);
hints = (
{
horizontal = 1;
options = 4;
origin = (2,3);
other1 = (0,3,2,1);
target = (0,2);
type = TTInterpolate;
},
{
horizontal = 1;
options = 4;
origin = (2,3);
other1 = (1,1,3,2);
target = (0,2);
type = TTInterpolate;
},
{
horizontal = 1;
options = 4;
origin = (2,3);
other1 = (2,3,3,0);
target = (0,2);
type = TTInterpolate;
},
{
horizontal = 1;
options = 4;
origin = (2,3);
target = (3,3);
type = TTShift;
},
{
horizontal = 1;
options = 4;
origin = (0,2);
target = (2,1);
type = TTShift;
},
{
horizontal = 1;
options = 4;
origin = (2,1);
target = (1,1);
type = TTShift;
}
);
layerId = "83692D61-586C-413E-9B5A-1AF652750951";
shapes = (
{
closed = 1;
nodes = (
(122,720,l),
(72,0,l),
(148,0,l),
(198,720,l)
);
},
{
closed = 1;
nodes = (
(522,720,l),
(572,0,l),
(648,0,l),
(598,720,l)
);
},
{
closed = 1;
nodes = (
(163,720,l),
(309,0,l),
(387,0,l),
(241,720,l)
);
},
{
closed = 1;
nodes = (
(339,0,l),
(411,0,l),
(557,720,l),
(485,720,l)
);
}
);
width = 720;
},
{
associatedMasterId = "83692D61-586C-413E-9B5A-1AF652750951";
layerId = "D36518EA-A451-49CD-9689-71A006F6C7DE";
name = "Jan 9 18, 17:31";
shapes = (
{
closed = 1;
nodes = (
(120,0,l),
(120,648,l),
(280,648,l),
(280,0,l),
(360,0,l),
(360,648,l),
(520,648,l),
(520,0,l),
(600,0,l),
(600,720,l),
(40,720,l),
(40,0,l)
);
}
);
width = 640;
},
{
associatedMasterId = "83692D61-586C-413E-9B5A-1AF652750951";
guides = (
{
pos = (29,578);
}
);
layerId = "972F3E4A-8DF6-42D8-93D1-10164F196B38";
name = "Jan 9 18, 17:54";
shapes = (
{
closed = 1;
nodes = (
(110,720,l),
(60,0,l),
(140,0,l),
(190,720,l)
);
},
{
closed = 1;
nodes = (
(510,720,l),
(560,0,l),
(640,0,l),
(590,720,l)
);
},
{
closed = 1;
nodes = (
(151,720,l),
(297,0,l),
(379,0,l),
(233,720,l)
);
},
{
closed = 1;
nodes = (
(327,0,l),
(403,0,l),
(549,720,l),
(473,720,l)
);
}
);
width = 700;
}
);
unicode = 77;
},
{
glyphname = N;
lastChange = "2021-01-29 08:53:10 +0000";
layers = (
{
anchors = (
{
name = bottom;
pos = (280,0);
},
{
name = top;
pos = (280,720);
}
);
background = {
shapes = (
{
closed = 1;
nodes = (
(160,640,l),
(160,720,l),
(80,720,l),
(80,0,l),
(160,0,l),
(160,480,l),
(240,480,l),
(240,640,l)
);
},
{
closed = 1;
nodes = (
(400,320,l),
(320,320,l),
(320,160,l),
(400,160,l),
(400,0,l),
(480,0,l),
(480,720,l),
(400,720,l)
);
},
{
closed = 1;
nodes = (
(240,480,l),
(240,320,l),
(320,320,l),
(320,480,l)
);
}
);
};
hints = (
{
horizontal = 1;
options = 4;
origin = (0,0);
other1 = (0,1);
target = (0,7);
type = TTInterpolate;
},
{
horizontal = 1;
options = 4;
origin = (0,0);
other1 = (0,6);
target = (0,7);
type = TTInterpolate;
},
{
horizontal = 1;
options = 4;
origin = (0,7);
target = (0,5);
type = TTShift;
},
{
horizontal = 1;
options = 4;
origin = (0,0);
target = (0,2);
type = TTShift;
}
);
layerId = "83692D61-586C-413E-9B5A-1AF652750951";
shapes = (
{
closed = 1;
nodes = (
(154,0,l),
(154,562,l),
(414,0,l),
(480,0,l),
(480,720,l),
(406,720,l),
(406,208,l),
(169,720,l),
(80,720,l),
(80,0,l)
);
}
);
width = 560;
}
);
unicode = 78;
},
{
glyphname = O;
lastChange = "2021-01-29 13:54:21 +0000";
layers = (
{
anchors = (
{
name = bottom;
pos = (280,0);
},
{
name = center;
pos = (280,360);
},
{
name = ogonek;
pos = (342,0);
},
{
name = top;
pos = (280,720);
},
{
name = topleft;
pos = (20,720);
},
{
name = topright;
pos = (540,720);
}
);
hints = (
{
horizontal = 1;
options = 4;
origin = (0,11);
target = (1,11);
type = TTStem;
},
{
horizontal = 1;
options = 4;
origin = (0,5);
target = (1,5);
type = TTStem;
}
);
layerId = "83692D61-586C-413E-9B5A-1AF652750951";
shapes = (
{
closed = 1;
nodes = (
(415,-10,o),
(506,113,o),
(506,360,cs),
(506,599,o),
(441,730,o),
(280,730,cs),
(133,730,o),
(54,603,o),
(54,360,cs),
(54,104,o),
(133,-10,o),
(280,-10,cs)
);
},
{
closed = 1;
nodes = (
(191,60,o),
(138,137,o),
(138,360,cs),
(138,584,o),
(182,660,o),
(280,660,cs),
(379,660,o),
(422,579,o),
(422,360,cs),
(422,138,o),
(371,60,o),
(280,60,cs)
);
}
);
width = 560;
}
);
unicode = 79;
},
{
glyphname = P;
lastChange = "2021-01-29 13:54:29 +0000";
layers = (
{
anchors = (
{
name = bottom;
pos = (280,0);
},
{
name = top;
pos = (280,720);
}
);
background = {
shapes = (
{
closed = 1;
nodes = (
(160,0,l),
(160,251,l),
(187,249,o),
(215,248,o),
(242,248,cs),
(394,248,o),
(476,346,o),
(476,486,cs),
(476,629,o),
(400,720,o),
(242,720,cs),
(80,720,l),
(80,0,l)
);
},
{
closed = 1;
nodes = (
(160,648,l),
(244,648,ls),
(351,648,o),
(392,584,o),
(392,482,cs),
(392,383,o),
(355,320,o),
(244,320,cs),
(216,320,o),
(188,321,o),
(160,323,c)
);
}
);
};
hints = (
{
horizontal = 1;
origin = (0,0);
type = TTSnap;
},
{
horizontal = 1;
options = 4;
origin = (0,10);
target = (1,1);
type = TTStem;
},
{
horizontal = 1;
origin = (0,0);
other1 = (0,4);
target = (0,10);
type = TTInterpolate;
},
{
horizontal = 1;
options = 4;
origin = (0,4);
target = (1,7);
type = TTStem;
}
);
layerId = "83692D61-586C-413E-9B5A-1AF652750951";
shapes = (
{
closed = 1;
nodes = (
(160,0,l),
(160,252,l),
(185,249,o),
(210,248,o),
(231,248,cs),
(396,248,o),
(476,346,o),
(476,486,cs),
(476,629,o),
(400,720,o),
(242,720,cs),
(80,720,l),
(80,0,l)
);
},
{
closed = 1;
nodes = (
(160,648,l),
(244,648,ls),
(351,648,o),
(392,584,o),
(392,482,cs),
(392,375,o),
(352,320,o),
(227,320,cs),
(210,320,o),
(188,321,o),
(160,323,c)
);
}
);
width = 560;
},
{
associatedMasterId = "83692D61-586C-413E-9B5A-1AF652750951";
background = {
shapes = (
{
closed = 1;
nodes = (
(160,320,l),
(160,640,l),
(400,640,l),
(400,720,l),
(80,720,l),
(80,0,l),
(160,0,l),
(160,240,l),
(400,240,l),
(400,320,l)
);
},
{
closed = 1;
nodes = (
(400,320,l),
(480,320,l),
(480,640,l),
(400,640,l)
);
}
);
};
layerId = "255C0E84-DEE1-4680-A231-36CF8B22D124";
name = "Feb 2 18, 11:28";
shapes = (
{
closed = 1;
nodes = (
(160,0,l),
(160,248,l),
(242,248,ls),
(394,248,o),
(476,346,o),
(476,486,cs),
(476,629,o),
(400,720,o),
(242,720,cs),
(80,720,l),
(80,0,l)
);
},
{
closed = 1;
nodes = (
(160,648,l),
(244,648,ls),
(351,648,o),
(392,584,o),
(392,482,cs),
(392,383,o),
(355,320,o),
(244,320,cs),
(160,320,l)
);
}
);
width = 520;
}
);
unicode = 80;
},
{
glyphname = Thorn;
lastChange = "2021-05-10 22:00:11 +0000";
layers = (
{
hints = (
{
horizontal = 1;
origin = (0,12);
type = TTSnap;
},
{
horizontal = 1;
origin = (0,0);
type = TTSnap;
},
{
horizontal = 1;
options = 8;
origin = (0,12);
other1 = (0,4);
target = (0,0);
type = TTInterpolate;
},
{
horizontal = 1;
options = 4;
origin = (0,4);
target = (1,7);
type = TTStem;
},
{
horizontal = 1;
options = 8;
origin = (0,12);
other1 = (0,10);
target = (0,0);
type = TTInterpolate;
},
{
horizontal = 1;
options = 4;
origin = (0,10);
target = (1,1);
type = TTStem;
}
);
layerId = "83692D61-586C-413E-9B5A-1AF652750951";
shapes = (
{
closed = 1;
nodes = (
(160,0,l),
(160,168,l),
(185,165,o),
(210,164,o),
(231,164,cs),
(396,164,o),
(476,251,o),
(476,375,cs),
(476,498,o),
(400,576,o),
(242,576,cs),
(160,576,l),
(160,720,l),
(80,720,l),
(80,0,l)
);
},
{
closed = 1;
nodes = (
(160,504,l),
(244,504,ls),
(351,504,o),
(392,453,o),
(392,371,cs),
(392,282,o),
(352,236,o),
(227,236,cs),
(210,236,o),
(188,237,o),
(160,239,c)
);
}
);
width = 560;
}
);
unicode = 222;
},
{
color = 7;
glyphname = Q;
lastChange = "2020-07-28 21:43:26 +0000";
layers = (
{
anchors = (
{
name = bottom;
pos = (280,0);
},
{
name = top;
pos = (280,720);
}
);
background = {
shapes = (
{
closed = 1;
nodes = (
(400,640,l),
(400,720,l),
(160,720,l),
(160,640,l)
);
},
{
closed = 1;
nodes = (
(160,640,l),
(80,640,l),
(80,80,l),
(160,80,l)
);
},
{
closed = 1;
nodes = (
(400,80,l),
(480,80,l),
(480,640,l),
(400,640,l)
);
},
{
closed = 1;
nodes = (
(160,80,l),
(160,0,l),
(240,0,l),
(240,-80,l),
(320,-80,l),
(320,0,l),
(400,0,l),
(400,80,l)
);
},
{
closed = 1;
nodes = (
(480,-160,l),
(480,-80,l),
(320,-80,l),
(320,-160,l)
);
}
);
};
hints = (
{
horizontal = 1;
options = 4;
origin = (0,13);
target = (0,6);
type = TTStem;
}
);
layerId = "83692D61-586C-413E-9B5A-1AF652750951";
shapes = (
{
closed = 1;
nodes = (
(431,-164,o),
(459,-159,o),
(484,-150,c),
(474,-86,l),
(448,-90,o),
(429,-92,o),
(410,-92,cs),
(349,-92,o),
(318,-62,o),
(314,9,c),
(238,3,l),
(253,-115,o),
(309,-164,o),
(394,-164,c)
);
},
{
ref = O;
}
);
width = 560;
}
);
unicode = 81;
},
{
glyphname = R;
lastChange = "2021-01-29 08:53:19 +0000";
layers = (
{
anchors = (
{
name = bottom;
pos = (280,0);
},
{
name = top;
pos = (262,720);
}
);
background = {
shapes = (
{
closed = 1;
nodes = (
(160,400,l),
(160,640,l),
(400,640,l),
(400,720,l),
(80,720,l),
(80,0,l),
(160,0,l),
(160,320,l),
(240,320,l),
(240,240,l),
(320,240,l),
(320,320,l),
(400,320,l),
(400,400,l)
);
},
{
closed = 1;
nodes = (
(400,400,l),
(480,400,l),
(480,640,l),
(400,640,l)
);
},
{
closed = 1;
nodes = (
(400,240,l),
(320,240,l),
(320,160,l),
(400,160,l)
);
},
{
closed = 1;
nodes = (
(480,0,l),
(480,160,l),
(400,160,l),
(400,0,l)
);
}
);
};
hints = (
{
horizontal = 1;
options = 4;
origin = (0,10);
target = (2,1);
type = TTStem;
},
{
horizontal = 1;
origin = (0,0);
other1 = (0,2,1,3);
target = (0,10);
type = TTInterpolate;
},
{
horizontal = 1;
options = 4;
origin = (0,2,1,3);
target = (2,7);
type = TTStem;
},
{
horizontal = 1;
options = 4;
origin = (0,2,1,3);
other1 = (0,7,1,1);
target = (0,10);
type = TTInterpolate;
},
{
horizontal = 1;
options = 4;
origin = (0,0);
target = (1,3);
type = TTShift;
}
);
layerId = "83692D61-586C-413E-9B5A-1AF652750951";
shapes = (
{
closed = 1;
nodes = (
(160,0,l),
(160,300,l),
(244,300,l),
(244,304,l),
(253,304,ls),
(403,304,o),
(476,390,o),
(476,512,cs),
(476,639,o),
(400,720,o),
(242,720,cs),
(80,720,l),
(80,0,l)
);
},
{
closed = 1;
nodes = (
(497,0,l),
(302,331,l),
(215,331,l),
(398,0,l)
);
},
{
closed = 1;
nodes = (
(160,648,l),
(244,648,ls),
(351,648,o),
(392,594,o),
(392,508,cs),
(392,418,o),
(350,372,o),
(253,372,cs),
(160,372,l)
);
}
);
width = 560;
}
);
unicode = 82;
},
{
glyphname = S;
lastChange = "2021-01-21 07:41:46 +0000";
layers = (
{
anchors = (
{
name = bottom;
pos = (206,0);
},
{
name = top;
pos = (245,720);
}
);
background = {
shapes = (
{
closed = 1;
nodes = (
(349,-9,o),
(417,80,o),
(417,172,cs),
(417,289,o),
(339,337,o),
(271,389,cs),
(173,463,o),
(146,499,o),
(146,556,cs),
(146,605,o),
(180,658,o),
(251,658,cs),
(294,658,o),
(339,646,o),
(388,623,c),
(417,683,l),
(379,704,o),
(315,730,o),
(243,730,cs),
(126,730,o),
(64,641,o),
(64,550,cs),
(64,458,o),
(126,399,o),
(218,329,cs),
(294,271,o),
(335,234,o),
(335,170,cs),
(335,104,o),
(288,63,o),
(214,63,cs),
(166,63,o),
(111,83,o),
(72,104,c),
(45,43,l),
(97,12,o),
(151,-9,o),
(219,-9,cs)
);
}
);
};
hints = (
{
horizontal = 1;
options = 4;
origin = (0,15);
target = (0,8);
type = TTStem;
},
{
horizontal = 1;
options = 4;
origin = (0,31);
target = (0,24);
type = TTStem;
},
{
horizontal = 1;
options = 4;
origin = (0,8);
other1 = (0,21,0);
target = (0,31);
type = TTInterpolate;
},
{
horizontal = 1;
options = 4;
origin = (0,15);
other1 = (0,5,0);
target = (0,24);
type = TTInterpolate;
}
);
layerId = "83692D61-586C-413E-9B5A-1AF652750951";
shapes = (
{
closed = 1;
nodes = (
(349,-9,o),
(417,80,o),
(417,172,cs),
(417,380,o),
(146,396,o),
(146,556,cs),
(146,605,o),
(180,658,o),
(251,658,cs),
(294,658,o),
(339,646,o),
(388,623,c),
(417,683,l),
(379,704,o),
(315,730,o),
(243,730,cs),
(126,730,o),
(64,641,o),
(64,550,cs),
(64,353,o),
(335,325,o),
(335,170,cs),
(335,104,o),
(288,63,o),
(214,63,cs),
(166,63,o),
(111,83,o),
(72,104,c),
(45,43,l),
(97,12,o),
(151,-9,o),
(219,-9,cs)
);
}
);
width = 480;
}
);
unicode = 83;
},
{
glyphname = T;
lastChange = "2021-01-29 08:53:27 +0000";
layers = (
{
anchors = (
{
name = bottom;
pos = (280,0);
},
{
name = center;
pos = (280,360);
},
{
name = top;
pos = (280,720);
}
);
hints = (
{
horizontal = 1;
origin = (0,0);
type = TTSnap;
},
{
horizontal = 1;
options = 4;
origin = (0,4);
target = (0,6);
type = TTStem;
},
{
horizontal = 1;
options = 4;
origin = (0,6);
target = (0,1);
type = TTShift;
}
);
layerId = "83692D61-586C-413E-9B5A-1AF652750951";
shapes = (
{
closed = 1;
nodes = (
(320,0,l),
(320,648,l),
(496,648,l),
(496,720,l),
(64,720,l),
(64,648,l),
(240,648,l),
(240,0,l)
);
}
);
width = 560;
}
);
unicode = 84;
},
{
glyphname = U;
lastChange = "2021-05-06 08:05:51 +0000";
layers = (
{
anchors = (
{
name = bottom;
pos = (280,0);
},
{
name = ogonek;
pos = (354,0);
},
{
name = top;
pos = (285,720);
},
{
name = topright;
pos = (540,720);
}
);
background = {
shapes = (
{
closed = 1;
nodes = (
(160,720,l),
(80,720,l),
(80,80,l),
(160,80,l)
);
},
{
closed = 1;
nodes = (
(400,80,l),
(480,80,l),
(480,720,l),
(400,720,l)
);
},
{
closed = 1;
nodes = (
(160,80,l),
(160,0,l),
(400,0,l),
(400,80,l)
);
}
);
};
hints = (
{
horizontal = 1;
options = 4;
origin = (0,17);
target = (0,8);
type = TTStem;
},
{
horizontal = 1;
options = 4;
origin = (0,12);
target = (0,4);
type = TTShift;
}
);
layerId = "83692D61-586C-413E-9B5A-1AF652750951";
shapes = (
{
closed = 1;
nodes = (
(387,-12,o),
(477,55,o),
(477,202,cs),
(477,720,l),
(403,720,l),
(403,202,ls),
(403,110,o),
(360,62,o),
(282,62,cs),
(200,62,o),
(160,108,o),
(160,195,cs),
(160,720,l),
(80,720,l),
(80,193,ls),
(80,60,o),
(152,-12,o),
(280,-12,cs)
);
}
);
width = 560;
}
);
unicode = 85;
},
{
glyphname = V;
lastChange = "2021-01-29 08:53:40 +0000";
layers = (
{
anchors = (
{
name = bottom;
pos = (280,0);
},
{
name = top;
pos = (280,720);
}
);
hints = (
{
horizontal = 1;
origin = (0,3);
type = TTSnap;
},
{
horizontal = 1;
options = 4;
origin = (0,1);
other1 = (0,1,0,7);
target = (0,3);
type = TTInterpolate;
},
{
horizontal = 1;
options = 4;
origin = (0,1);
target = (0,6);
type = TTShift;
}
);
layerId = "83692D61-586C-413E-9B5A-1AF652750951";
shapes = (
{
closed = 1;
nodes = (
(293,70,l),
(130,720,l),
(41,720,l),
(236,0,l),
(319,0,l),
(518,720,l),
(438,720,l),
(265,70,l)
);
}
);
width = 560;
}
);
unicode = 86;
},
{
glyphname = W;
lastChange = "2021-01-29 08:53:53 +0000";
layers = (
{
anchors = (
{
name = bottom;
pos = (360,0);
},
{
name = top;
pos = (360,720);
}
);
background = {
shapes = (
{
closed = 1;
nodes = (
(120,720,l),
(40,720,l),
(40,80,l),
(120,80,l)
);
},
{
closed = 1;
nodes = (
(360,720,l),
(280,720,l),
(280,80,l),
(360,80,l)
);
},
{
closed = 1;
nodes = (
(520,80,l),
(600,80,l),
(600,720,l),
(520,720,l)
);
},
{
closed = 1;
nodes = (
(120,0,l),
(280,0,l),
(280,80,l),
(120,80,l)
);
},
{
closed = 1;
nodes = (
(360,0,l),
(520,0,l),
(520,80,l),
(360,80,l)
);
}
);
};
hints = (
{
horizontal = 1;
options = 4;
origin = (1,1);
other1 = (1,1,2,3);
target = (2,0);
type = TTInterpolate;
},
{
horizontal = 1;
options = 4;
origin = (1,1,2,3);
target = (0,1,3,3);
type = TTShift;
},
{
horizontal = 1;
options = 4;
origin = (1,1);
other1 = (0,3,2,1);
target = (2,0);
type = TTInterpolate;
},
{
horizontal = 1;
options = 4;
origin = (2,0);
target = (0,3);
type = TTShift;
},
{
horizontal = 1;
options = 4;
origin = (1,1);
target = (2,2);
type = TTShift;
},
{
horizontal = 1;
options = 4;
origin = (2,2);
target = (3,2);
type = TTShift;
}
);
layerId = "83692D61-586C-413E-9B5A-1AF652750951";
shapes = (
{
closed = 1;
nodes = (
(514,0,l),
(410,720,l),
(334,720,l),
(438,0,l)
);
},
{
closed = 1;
nodes = (
(240,0,l),
(144,720,l),
(68,720,l),
(164,0,l)
);
},
{
closed = 1;
nodes = (
(276,0,l),
(380,720,l),
(310,720,l),
(206,0,l)
);
},
{
closed = 1;
nodes = (
(556,0,l),
(652,720,l),
(576,720,l),
(480,0,l)
);
}
);
width = 720;
}
);
unicode = 87;
},
{
glyphname = X;
lastChange = "2021-05-10 22:00:32 +0000";
layers = (
{
anchors = (
{
name = bottom;
pos = (260,0);
},
{
name = top;
pos = (260,720);
}
);
background = {
shapes = (
{
closed = 1;
nodes = (
(160,720,l),
(80,720,l),
(80,480,l),
(160,480,l)
);
},
{
closed = 1;
nodes = (
(400,480,l),
(480,480,l),
(480,720,l),
(400,720,l)
);
},
{
closed = 1;
nodes = (
(160,400,l),
(240,400,l),
(240,480,l),
(160,480,l)
);
},
{
closed = 1;
nodes = (
(400,400,l),
(400,480,l),
(320,480,l),
(320,400,l)
);
},
{
closed = 1;
nodes = (
(320,320,l),
(320,400,l),
(240,400,l),
(240,320,l)
);
},
{
closed = 1;
nodes = (
(240,240,l),
(240,320,l),
(160,320,l),
(160,240,l)
);
},
{
closed = 1;
nodes = (
(400,320,l),
(320,320,l),
(320,240,l),
(400,240,l)
);
},
{
closed = 1;
nodes = (
(80,0,l),
(160,0,l),
(160,240,l),
(80,240,l)
);
},
{
closed = 1;
nodes = (
(400,0,l),
(480,0,l),
(480,240,l),
(400,240,l)
);
}
);
};
hints = (
{
horizontal = 1;
options = 4;
origin = (0,1);
target = (2,2);
type = TTShift;
},
{
horizontal = 1;
options = 4;
origin = (0,3);
target = (1,0);
type = TTShift;
},
{
horizontal = 1;
options = 4;
origin = (0,1);
other1 = (0,3,1,1);
target = (0,3);
type = TTInterpolate;
},
{
horizontal = 1;
options = 4;
origin = (0,1);
other1 = (0,1,2,3);
target = (0,3);
type = TTInterpolate;
}
);
layerId = "83692D61-586C-413E-9B5A-1AF652750951";
shapes = (
{
closed = 1;
nodes = (
(482,0,l),
(140,720,l),
(51,720,l),
(393,0,l)
);
},
{
closed = 1;
nodes = (
(122,0,l),
(293,390,l),
(217,390,l),
(38,0,l)
);
},
{
closed = 1;
nodes = (
(304,360,l),
(478,720,l),
(394,720,l),
(228,360,l)
);
}
);
width = 520;
}
);
unicode = 88;
},
{
glyphname = Y;
lastChange = "2021-01-29 08:54:15 +0000";
layers = (
{
anchors = (
{
name = bottom;
pos = (240,0);
},
{
name = top;
pos = (245,720);
}
);
background = {
shapes = (
{
closed = 1;
nodes = (
(280,0,l),
(280,320,l),
(472,720,l),
(390,720,l),
(245,405,l),
(104,720,l),
(14,720,l),
(200,320,l),
(200,0,l)
);
}
);
};
hints = (
{
horizontal = 1;
origin = (0,9);
type = TTSnap;
},
{
horizontal = 1;
options = 4;
origin = (0,3);
target = (0,6);
type = TTShift;
},
{
horizontal = 1;
options = 4;
origin = (0,9);
other1 = (0,8);
target = (0,3);
type = TTInterpolate;
},
{
horizontal = 1;
options = 4;
origin = (0,9);
other1 = (0,4,0,6);
target = (0,3);
type = TTInterpolate;
},
{
horizontal = 1;
options = 4;
origin = (0,8);
target = (0,1);
type = TTShift;
}
);
layerId = "83692D61-586C-413E-9B5A-1AF652750951";
shapes = (
{
closed = 1;
nodes = (
(280,0,l),
(280,320,l),
(472,720,l),
(390,720,l),
(224,360,l),
(265,360,l),
(104,720,l),
(14,720,l),
(200,320,l),
(200,0,l)
);
}
);
width = 480;
}
);
unicode = 89;
},
{
glyphname = Z;
lastChange = "2021-01-21 07:42:21 +0000";
layers = (
{
anchors = (
{
name = bottom;
pos = (240,0);
},
{
name = top;
pos = (245,720);
}
);
hints = (
{
horizontal = 1;
options = 4;
origin = (0,4);
target = (0,7);
type = TTStem;
},
{
horizontal = 1;
options = 4;
origin = (0,7);
target = (0,3);
type = TTShift;
},
{
horizontal = 1;
options = 4;
origin = (0,9);
target = (0,2);
type = TTStem;
},
{
horizontal = 1;
options = 4;
origin = (0,2);
target = (0,8);
type = TTShift;
}
);
layerId = "83692D61-586C-413E-9B5A-1AF652750951";
shapes = (
{
closed = 1;
nodes = (
(414,0,l),
(414,72,l),
(150,72,l),
(414,658,l),
(414,720,l),
(66,720,l),
(66,648,l),
(330,648,l),
(66,62,l),
(66,0,l)
);
}
);
width = 480;
}
);
unicode = 90;
},
{
color = 4;
glyphname = A.hex;
lastChange = "2021-05-10 22:01:10 +0000";
layers = (
{
anchors = (
{
name = bottom;
pos = (280,0);
},
{
name = ogonek;
pos = (522,0);
},
{
name = top;
pos = (280,640);
}
);
hints = (
{
horizontal = 1;
options = 4;
origin = (0,1);
target = (0,6);
type = TTShift;
},
{
horizontal = 1;
origin = (0,4);
type = TTSnap;
},
{
horizontal = 1;
options = 8;
origin = (0,1);
other1 = (0,1,1,1);
target = (0,4);
type = TTInterpolate;
},
{
horizontal = 1;
options = 4;
origin = (0,1,1,1);
target = (0,1,1,3);
type = TTStem;
},
{
horizontal = 1;
options = 4;
origin = (0,1);
other1 = (0,1,0,7);
target = (0,4);
type = TTInterpolate;
}
);
layerId = "83692D61-586C-413E-9B5A-1AF652750951";
shapes = (
{
closed = 1;
nodes = (
(266,570,l),
(433,0,l),
(522,0,l),
(323,640,l),
(240,640,l),
(37,0,l),
(117,0,l),
(294,570,l)
);
},
{
closed = 1;
nodes = (
(160,164,l),
(400,164,l),
(400,236,l),
(160,236,l)
);
}
);
width = 560;
}
);
},
{
color = 4;
glyphname = B.hex;
lastChange = "2021-05-10 22:01:30 +0000";
layers = (
{
anchors = (
{
name = bottom;
pos = (280,0);
},
{
name = top;
pos = (280,640);
}
);
hints = (
{
horizontal = 1;
options = 4;
origin = (0,13);
target = (2,1);
type = TTStem;
},
{
horizontal = 1;
options = 4;
origin = (0,0);
target = (1,7);
type = TTStem;
},
{
horizontal = 1;
options = 8;
origin = (0,13);
other1 = (1,1);
target = (0,0);
type = TTInterpolate;
},
{
horizontal = 1;
options = 4;
origin = (1,1);
target = (2,7);
type = TTStem;
},
{
horizontal = 1;
options = 4;
origin = (1,1);
other1 = (0,6,0,10);
target = (2,7);
type = TTInterpolate;
}
);
layerId = "83692D61-586C-413E-9B5A-1AF652750951";
shapes = (
{
closed = 1;
nodes = (
(254,0,ls,{
de.kutilek.instantAxis.effective = (
"254",
"0"
);
}),
(412,0,o,{
de.kutilek.instantAxis.effective = (
"412",
"0"
);
}),
(488,65,o,{
de.kutilek.instantAxis.effective = (
"488",
"65"
);
}),
(488,169,cs,{
de.kutilek.instantAxis.effective = (
"488",
"169"
);
}),
(488,277,o,{
de.kutilek.instantAxis.effective = (
"488",
"277"
);
}),
(402,344,o,{
de.kutilek.instantAxis.effective = (
"402",
"344"
);
}),
(267,344,c,{
de.kutilek.instantAxis.effective = (
"267",
"344"
);
}),
(252,307,l,{
de.kutilek.instantAxis.effective = (
"252",
"307"
);
}),
(388,307,o,{
de.kutilek.instantAxis.effective = (
"388",
"307"
);
}),
(474,376,o,{
de.kutilek.instantAxis.effective = (
"474",
"376"
);
}),
(474,475,cs,{
de.kutilek.instantAxis.effective = (
"474",
"475"
);
}),
(474,576,o,{
de.kutilek.instantAxis.effective = (
"474",
"576"
);
}),
(398,640,o,{
de.kutilek.instantAxis.effective = (
"398",
"640"
);
}),
(240,640,cs,{
de.kutilek.instantAxis.effective = (
"240",
"640"
);
}),
(80,640,l,{
de.kutilek.instantAxis.effective = (
"80",
"640"
);
}),
(80,0,l,{
de.kutilek.instantAxis.effective = (
"80",
"0"
);
})
);
},
{
closed = 1;
nodes = (
(160,288,l,{
de.kutilek.instantAxis.effective = (
"160",
"288"
);
}),
(261,288,ls,{
de.kutilek.instantAxis.effective = (
"261",
"288"
);
}),
(352,288,o,{
de.kutilek.instantAxis.effective = (
"352",
"288"
);
}),
(404,252,o,{
de.kutilek.instantAxis.effective = (
"404",
"252"
);
}),
(404,181,cs,{
de.kutilek.instantAxis.effective = (
"404",
"181"
);
}),
(404,113,o,{
de.kutilek.instantAxis.effective = (
"404",
"113"
);
}),
(358,70,o,{
de.kutilek.instantAxis.effective = (
"358",
"70"
);
}),
(256,70,cs,{
de.kutilek.instantAxis.effective = (
"256",
"70"
);
}),
(160,70,l,{
de.kutilek.instantAxis.effective = (
"160",
"70"
);
})
);
},
{
closed = 1;
nodes = (
(160,570,l,{
de.kutilek.instantAxis.effective = (
"160",
"570"
);
}),
(242,570,ls,{
de.kutilek.instantAxis.effective = (
"242",
"570"
);
}),
(349,570,o,{
de.kutilek.instantAxis.effective = (
"349",
"570"
);
}),
(390,528,o,{
de.kutilek.instantAxis.effective = (
"390",
"528"
);
}),
(390,466,cs,{
de.kutilek.instantAxis.effective = (
"390",
"466"
);
}),
(390,394,o,{
de.kutilek.instantAxis.effective = (
"390",
"394"
);
}),
(338,360,o,{
de.kutilek.instantAxis.effective = (
"338",
"360"
);
}),
(246,360,cs,{
de.kutilek.instantAxis.effective = (
"246",
"360"
);
}),
(160,360,l,{
de.kutilek.instantAxis.effective = (
"160",
"360"
);
})
);
}
);
width = 560;
}
);
},
{
color = 4;
glyphname = C.hex;
lastChange = "2021-05-10 22:01:35 +0000";
layers = (
{
anchors = (
{
name = bottom;
pos = (280,0);
},
{
name = top;
pos = (303,640);
}
);
hints = (
{
horizontal = 1;
options = 4;
origin = (0,19);
target = (0,12);
type = TTStem;
},
{
horizontal = 1;
options = 4;
origin = (0,25);
target = (0,6);
type = TTStem;
}
);
layerId = "83692D61-586C-413E-9B5A-1AF652750951";
shapes = (
{
closed = 1;
nodes = (
(377,-11,o,{
de.kutilek.instantAxis.effective = (
"377",
"-11"
);
}),
(422,19,o,{
de.kutilek.instantAxis.effective = (
"422",
"19"
);
}),
(476,55,c,{
de.kutilek.instantAxis.effective = (
"476",
"55"
);
}),
(444,110,l,{
de.kutilek.instantAxis.effective = (
"444",
"110"
);
}),
(400,83,o,{
de.kutilek.instantAxis.effective = (
"400",
"83"
);
}),
(360,61,o,{
de.kutilek.instantAxis.effective = (
"360",
"61"
);
}),
(308,61,cs,{
de.kutilek.instantAxis.effective = (
"308",
"61"
);
}),
(203,61,o,{
de.kutilek.instantAxis.effective = (
"203",
"61"
);
}),
(150,139,o,{
de.kutilek.instantAxis.effective = (
"150",
"139"
);
}),
(150,320,cs,{
de.kutilek.instantAxis.effective = (
"150",
"320"
);
}),
(150,528,o,{
de.kutilek.instantAxis.effective = (
"150",
"528"
);
}),
(221,579,o,{
de.kutilek.instantAxis.effective = (
"221",
"579"
);
}),
(304,579,cs,{
de.kutilek.instantAxis.effective = (
"304",
"579"
);
}),
(363,579,o,{
de.kutilek.instantAxis.effective = (
"363",
"579"
);
}),
(409,554,o,{
de.kutilek.instantAxis.effective = (
"409",
"554"
);
}),
(443,533,c,{
de.kutilek.instantAxis.effective = (
"443",
"533"
);
}),
(477,590,l,{
de.kutilek.instantAxis.effective = (
"477",
"590"
);
}),
(429,624,o,{
de.kutilek.instantAxis.effective = (
"429",
"624"
);
}),
(374,651,o,{
de.kutilek.instantAxis.effective = (
"374",
"651"
);
}),
(308,651,cs,{
de.kutilek.instantAxis.effective = (
"308",
"651"
);
}),
(155,651,o,{
de.kutilek.instantAxis.effective = (
"155",
"651"
);
}),
(68,543,o,{
de.kutilek.instantAxis.effective = (
"68",
"543"
);
}),
(68,320,cs,{
de.kutilek.instantAxis.effective = (
"68",
"320"
);
}),
(68,91,o,{
de.kutilek.instantAxis.effective = (
"68",
"91"
);
}),
(155,-11,o,{
de.kutilek.instantAxis.effective = (
"155",
"-11"
);
}),
(294,-11,cs,{
de.kutilek.instantAxis.effective = (
"294",
"-11"
);
})
);
}
);
width = 560;
}
);
},
{
color = 4;
glyphname = D.hex;
lastChange = "2021-05-10 22:01:41 +0000";
layers = (
{
anchors = (
{
name = bottom;
pos = (280,0);
},
{
name = center;
pos = (280,320);
},
{
name = top;
pos = (272,640);
}
);
hints = (
{
horizontal = 1;
options = 4;
origin = (0,2);
target = (1,5);
type = TTStem;
},
{
horizontal = 1;
options = 4;
origin = (0,8);
target = (1,8);
type = TTStem;
}
);
layerId = "83692D61-586C-413E-9B5A-1AF652750951";
shapes = (
{
closed = 1;
nodes = (
(80,640,l,{
de.kutilek.instantAxis.effective = (
"80",
"640"
);
}),
(80,0,l,{
de.kutilek.instantAxis.effective = (
"80",
"0"
);
}),
(254,0,ls,{
de.kutilek.instantAxis.effective = (
"254",
"0"
);
}),
(403,0,o,{
de.kutilek.instantAxis.effective = (
"403",
"0"
);
}),
(504,108,o,{
de.kutilek.instantAxis.effective = (
"504",
"108"
);
}),
(504,322,cs,{
de.kutilek.instantAxis.effective = (
"504",
"322"
);
}),
(504,527,o,{
de.kutilek.instantAxis.effective = (
"504",
"527"
);
}),
(426,640,o,{
de.kutilek.instantAxis.effective = (
"426",
"640"
);
}),
(248,640,cs,{
de.kutilek.instantAxis.effective = (
"248",
"640"
);
})
);
},
{
closed = 1;
nodes = (
(363,568,o,{
de.kutilek.instantAxis.effective = (
"363",
"568"
);
}),
(420,502,o,{
de.kutilek.instantAxis.effective = (
"420",
"502"
);
}),
(420,319,cs,{
de.kutilek.instantAxis.effective = (
"420",
"319"
);
}),
(420,134,o,{
de.kutilek.instantAxis.effective = (
"420",
"134"
);
}),
(358,72,o,{
de.kutilek.instantAxis.effective = (
"358",
"72"
);
}),
(258,72,cs,{
de.kutilek.instantAxis.effective = (
"258",
"72"
);
}),
(160,72,l,{
de.kutilek.instantAxis.effective = (
"160",
"72"
);
}),
(160,568,l,{
de.kutilek.instantAxis.effective = (
"160",
"568"
);
}),
(252,568,ls,{
de.kutilek.instantAxis.effective = (
"252",
"568"
);
})
);
}
);
width = 560;
}
);
},
{
color = 4;
glyphname = E.hex;
lastChange = "2021-05-10 22:01:53 +0000";
layers = (
{
anchors = (
{
name = bottom;
pos = (280,0);
},
{
name = ogonek;
pos = (471,0);
},
{
name = top;
pos = (285,640);
}
);
hints = (
{
horizontal = 1;
options = 4;
origin = (0,10);
target = (0,7);
type = TTStem;
},
{
horizontal = 1;
options = 4;
origin = (0,11);
target = (0,2);
type = TTStem;
},
{
horizontal = 1;
options = 8;
origin = (0,10);
other1 = (0,3);
target = (0,11);
type = TTInterpolate;
},
{
horizontal = 1;
options = 4;
origin = (0,3);
target = (0,6);
type = TTStem;
}
);
layerId = "83692D61-586C-413E-9B5A-1AF652750951";
shapes = (
{
closed = 1;
nodes = (
(471,0,l),
(471,72,l),
(172,72,l),
(172,286,l),
(431,286,l),
(431,358,l),
(172,358,l),
(172,568,l),
(467,568,l),
(467,640,l),
(92,640,l),
(92,0,l)
);
}
);
width = 560;
}
);
},
{
color = 4;
glyphname = F.hex;
lastChange = "2021-05-10 22:02:05 +0000";
layers = (
{
anchors = (
{
name = bottom;
pos = (140,0);
},
{
name = top;
pos = (280,640);
}
);
hints = (
{
horizontal = 1;
origin = (0,0);
type = TTSnap;
},
{
horizontal = 1;
options = 4;
origin = (0,8);
target = (0,5);
type = TTStem;
},
{
horizontal = 1;
options = 8;
origin = (0,0);
other1 = (0,1);
target = (0,8);
type = TTInterpolate;
},
{
horizontal = 1;
options = 4;
origin = (0,1);
target = (0,4);
type = TTStem;
}
);
layerId = "83692D61-586C-413E-9B5A-1AF652750951";
shapes = (
{
closed = 1;
nodes = (
(180,0,l,{
de.kutilek.instantAxis.effective = (
"180",
"0"
);
}),
(180,274,l,{
de.kutilek.instantAxis.effective = (
"180",
"274"
);
}),
(400,274,l,{
de.kutilek.instantAxis.effective = (
"400",
"274"
);
}),
(400,346,l,{
de.kutilek.instantAxis.effective = (
"400",
"346"
);
}),
(180,346,l,{
de.kutilek.instantAxis.effective = (
"180",
"346"
);
}),
(180,568,l,{
de.kutilek.instantAxis.effective = (
"180",
"568"
);
}),
(480,568,l,{
de.kutilek.instantAxis.effective = (
"480",
"568"
);
}),
(480,640,l,{
de.kutilek.instantAxis.effective = (
"480",
"640"
);
}),
(100,640,l,{
de.kutilek.instantAxis.effective = (
"100",
"640"
);
}),
(100,0,l,{
de.kutilek.instantAxis.effective = (
"100",
"0"
);
})
);
}
);
width = 560;
}
);
},
{
color = 8;
export = 0;
glyphname = K.mono;
lastChange = "2021-01-29 09:58:37 +0000";
layers = (
{
anchors = (
{
name = bottom;
pos = (280,0);
},
{
name = top;
pos = (280,720);
}
);
background = {
shapes = (
{
closed = 1;
nodes = (
(180,720,l),
(100,720,l),
(100,0,l),
(180,0,l)
);
},
{
closed = 1;
nodes = (
(493,720,l),
(401,720,l),
(153,353,l),
(237,353,l)
);
},
{
closed = 1;
nodes = (
(409,0,l),
(509,0,l),
(247,381,l),
(155,381,l)
);
}
);
};
hints = (
{
horizontal = 1;
options = 4;
origin = (0,3);
other1 = (0,0,1,2);
target = (0,0);
type = TTInterpolate;
},
{
horizontal = 1;
options = 4;
origin = (0,3);
other1 = (0,0,2,0);
target = (0,0);
type = TTInterpolate;
},
{
horizontal = 1;
options = 4;
origin = (0,0);
target = (1,1);
type = TTShift;
},
{
horizontal = 1;
options = 4;
origin = (0,3);
target = (2,0);
type = TTShift;
}
);
layerId = "83692D61-586C-413E-9B5A-1AF652750951";
shapes = (
{
closed = 1;
nodes = (
(160,720,l),
(80,720,l),
(80,0,l),
(160,0,l)
);
},
{
closed = 1;
nodes = (
(503,720,l),
(407,720,l),
(129,353,l),
(215,353,l)
);
},
{
closed = 1;
nodes = (
(415,0,l),
(519,0,l),
(225,381,l),
(131,381,l)
);
}
);
width = 560;
}
);
},
{
color = 8;
export = 0;
glyphname = L.mono;
lastChange = "2021-01-29 09:58:37 +0000";
layers = (
{
anchors = (
{
name = bottom;
pos = (260,0);
},
{
name = center;
pos = (240,360);
},
{
name = top;
pos = (130,720);
},
{
name = topright;
pos = (500,720);
}
);
hints = (
{
horizontal = 1;
options = 4;
origin = (0,5);
target = (0,2);
type = TTStem;
},
{
horizontal = 1;
origin = (0,3);
type = TTSnap;
}
);
layerId = "83692D61-586C-413E-9B5A-1AF652750951";
shapes = (
{
closed = 1;
nodes = (
(480,0,l,{
de.kutilek.instantAxis.effective = (
480,
0
);
}),
(480,72,l,{
de.kutilek.instantAxis.effective = (
480,
72
);
}),
(160,72,l,{
de.kutilek.instantAxis.effective = (
160,
72
);
}),
(160,720,l,{
de.kutilek.instantAxis.effective = (
160,
720
);
}),
(80,720,l,{
de.kutilek.instantAxis.effective = (
80,
720
);
}),
(80,0,l,{
de.kutilek.instantAxis.effective = (
80,
0
);
})
);
}
);
width = 560;
}
);
},
{
color = 3;
export = 0;
glyphname = E.prop;
lastChange = "2018-02-05 12:27:42 +0000";
layers = (
{
layerId = "83692D61-586C-413E-9B5A-1AF652750951";
shapes = (
{
closed = 1;
nodes = (
(412,0,l),
(412,72,l),
(160,72,l),
(160,326,l),
(348,326,l),
(348,398,l),
(160,398,l),
(160,648,l),
(408,648,l),
(408,720,l),
(80,720,l),
(80,0,l)
);
}
);
width = 480;
}
);
},
{
glyphname = a;
kernLeft = a;
lastChange = "2021-01-29 08:08:21 +0000";
layers = (
{
anchors = (
{
name = bottom;
pos = (280,0);
},
{
name = ogonek;
pos = (466,0);
},
{
name = top;
pos = (280,560);
}
);
background = {
shapes = (
{
closed = 1;
nodes = (
(291,-8,o),
(341,35,o),
(383,77,cs),
(400,94,l),
(401,0,l),
(480,0,l),
(480,375,ls),
(480,498,o),
(423,574,o),
(297,574,cs),
(227,574,o),
(153,552,o),
(111,539,c),
(129,475,l),
(177,489,o),
(233,502,o),
(281,502,cs),
(364,502,o),
(400,460,o),
(400,369,cs),
(400,322,l),
(366,322,ls),
(153,322,o),
(76,238,o),
(76,138,cs),
(76,56,o),
(128,-8,o),
(220,-8,cs)
);
},
{
closed = 1;
nodes = (
(188,64,o),
(160,92,o),
(160,144,cs),
(160,198,o),
(207,258,o),
(371,258,cs),
(400,258,l),
(400,178,l),
(362,139,ls),
(320,96,o),
(280,64,o),
(234,64,cs)
);
}
);
};
hints = (
{
horizontal = 1;
origin = (0,27);
target = (1,11);
type = Stem;
},
{
horizontal = 1;
origin = (1,5);
target = (0,21);
type = Stem;
},
{
horizontal = 1;
origin = (0,9);
target = (0,16);
type = Stem;
},
{
horizontal = 1;
origin = (0,4);
target = up;
type = BottomGhost;
},
{
origin = (0,24);
target = (1,2);
type = Stem;
},
{
origin = (0,3);
target = (0,5);
type = Stem;
},
{
horizontal = 1;
options = 4;
origin = (0,9);
target = (0,16);
type = TTStem;
},
{
horizontal = 1;
options = 4;
origin = (0,27);
target = (1,11);
type = TTStem;
},
{
horizontal = 1;
origin = (0,5);
type = TTSnap;
},
{
horizontal = 1;
origin = (0,9);
other1 = (1,5);
target = (0,27);
type = TTInterpolate;
},
{
horizontal = 1;
options = 4;
origin = (1,5);
target = (0,21);
type = TTStem;
}
);
layerId = "83692D61-586C-413E-9B5A-1AF652750951";
shapes = (
{
closed = 1;
nodes = (
(277,-8,o,{
de.kutilek.instantAxis.effective = (
277,
-8
);
}),
(327,36,o,{
de.kutilek.instantAxis.effective = (
327,
36
);
}),
(369,78,cs,{
de.kutilek.instantAxis.effective = (
369,
78
);
}),
(386,95,l,{
de.kutilek.instantAxis.effective = (
386,
95
);
}),
(387,0,l,{
de.kutilek.instantAxis.effective = (
387,
0
);
}),
(466,0,l,{
de.kutilek.instantAxis.effective = (
466,
0
);
}),
(466,375,ls,{
de.kutilek.instantAxis.effective = (
466,
375
);
}),
(466,498,o,{
de.kutilek.instantAxis.effective = (
466,
498
);
}),
(409,574,o,{
de.kutilek.instantAxis.effective = (
409,
574
);
}),
(283,574,cs,{
de.kutilek.instantAxis.effective = (
283,
574
);
}),
(213,574,o,{
de.kutilek.instantAxis.effective = (
213,
574
);
}),
(139,552,o,{
de.kutilek.instantAxis.effective = (
139,
552
);
}),
(97,539,c,{
de.kutilek.instantAxis.effective = (
97,
539
);
}),
(115,475,l,{
de.kutilek.instantAxis.effective = (
115,
475
);
}),
(163,489,o,{
de.kutilek.instantAxis.effective = (
163,
489
);
}),
(219,502,o,{
de.kutilek.instantAxis.effective = (
219,
502
);
}),
(267,502,cs,{
de.kutilek.instantAxis.effective = (
267,
502
);
}),
(350,502,o,{
de.kutilek.instantAxis.effective = (
350,
502
);
}),
(386,460,o,{
de.kutilek.instantAxis.effective = (
386,
460
);
}),
(386,369,cs,{
de.kutilek.instantAxis.effective = (
386,
369
);
}),
(386,322,l,{
de.kutilek.instantAxis.effective = (
386,
322
);
}),
(352,322,ls,{
de.kutilek.instantAxis.effective = (
352,
322
);
}),
(147,322,o,{
de.kutilek.instantAxis.effective = (
147,
322
);
}),
(62,238,o,{
de.kutilek.instantAxis.effective = (
62,
238
);
}),
(62,136,cs,{
de.kutilek.instantAxis.effective = (
62,
136
);
}),
(62,56,o,{
de.kutilek.instantAxis.effective = (
62,
56
);
}),
(114,-8,o,{
de.kutilek.instantAxis.effective = (
114,
-8
);
}),
(204,-8,cs,{
de.kutilek.instantAxis.effective = (
204,
-8
);
})
);
},
{
closed = 1;
nodes = (
(174,64,o,{
de.kutilek.instantAxis.effective = (
174,
64
);
}),
(146,92,o,{
de.kutilek.instantAxis.effective = (
146,
92
);
}),
(146,142,cs,{
de.kutilek.instantAxis.effective = (
146,
142
);
}),
(146,198,o,{
de.kutilek.instantAxis.effective = (
146,
198
);
}),
(193,258,o,{
de.kutilek.instantAxis.effective = (
193,
258
);
}),
(357,258,cs,{
de.kutilek.instantAxis.effective = (
357,
258
);
}),
(386,258,l,{
de.kutilek.instantAxis.effective = (
386,
258
);
}),
(386,178,l,{
de.kutilek.instantAxis.effective = (
386,
178
);
}),
(348,139,ls,{
de.kutilek.instantAxis.effective = (
348,
139
);
}),
(306,96,o,{
de.kutilek.instantAxis.effective = (
306,
96
);
}),
(266,64,o,{
de.kutilek.instantAxis.effective = (
266,
64
);
}),
(220,64,cs,{
de.kutilek.instantAxis.effective = (
220,
64
);
})
);
}
);
width = 560;
}
);
unicode = 97;
},
{
glyphname = b;
lastChange = "2018-09-07 16:45:35 +0000";
layers = (
{
anchors = (
{
name = bottom;
pos = (280,0);
},
{
name = top;
pos = (280,800);
}
);
hints = (
{
horizontal = 1;
origin = (0,15);
target = (1,13);
type = Stem;
},
{
horizontal = 1;
origin = (0,5);
target = (1,7);
type = Stem;
},
{
horizontal = 1;
origin = (0,11);
target = down;
type = TopGhost;
},
{
origin = (0,12);
target = (1,2);
type = Stem;
},
{
origin = (1,10);
target = (0,2);
type = Stem;
},
{
horizontal = 1;
options = 4;
origin = (0,5);
target = (1,7);
type = TTStem;
},
{
horizontal = 1;
options = 4;
origin = (0,15);
target = (1,13);
type = TTStem;
},
{
horizontal = 1;
origin = (0,10);
type = TTSnap;
}
);
layerId = "83692D61-586C-413E-9B5A-1AF652750951";
shapes = (
{
closed = 1;
nodes = (
(394,-11,o),
(506,101,o),
(506,319,cs),
(506,479,o),
(446,568,o),
(338,568,cs),
(271,568,o),
(219,530,o),
(177,476,cs),
(160,454,l),
(160,800,l),
(80,800,l),
(80,18,l),
(131,2,o),
(194,-11,o),
(257,-11,cs)
);
},
{
closed = 1;
nodes = (
(214,57,o),
(182,61,o),
(160,66,c),
(160,366,l),
(199,414,ls),
(244,470,o),
(280,496,o),
(325,496,cs),
(386,496,o),
(422,447,o),
(422,313,cs),
(422,139,o),
(355,57,o),
(242,57,cs)
);
}
);
width = 560;
}
);
unicode = 98;
},
{
color = 9;
glyphname = c;
lastChange = "2021-01-21 07:50:05 +0000";
layers = (
{
anchors = (
{
name = bottom;
pos = (280,0);
},
{
name = top;
pos = (295,560);
}
);
background = {
shapes = (
{
closed = 1;
nodes = (
(460,273,l),
(484,446,o),
(417,568,o),
(277,568,cs),
(152,568,o),
(60,474,o),
(60,280,cs),
(60,72,o),
(160,-10,o),
(298,-10,cs),
(356,-10,o),
(407,6,o),
(453,25,c),
(433,90,l),
(396,76,o),
(352,62,o),
(303,62,cs),
(194,62,o),
(142,134,o),
(142,280,cs),
(142,412,o),
(179,498,o),
(273,498,cs),
(352,498,o),
(386,433,o),
(384,343,c)
);
}
);
};
hints = (
{
horizontal = 1;
options = 4;
origin = (0,3);
target = (0,22);
type = TTStem;
},
{
horizontal = 1;
options = 4;
origin = (0,9);
target = (0,16);
type = TTStem;
}
);
layerId = "83692D61-586C-413E-9B5A-1AF652750951";
shapes = (
{
closed = 1;
nodes = (
(467,514,l),
(427,541,o),
(368,568,o),
(291,568,cs),
(156,568,o),
(72,474,o),
(72,280,cs),
(72,72,o),
(164,-10,o),
(300,-10,cs),
(363,-10,o),
(410,5,o),
(455,26,c),
(433,89,l),
(397,75,o),
(361,62,o),
(308,62,cs),
(208,62,o),
(154,134,o),
(154,280,cs),
(154,412,o),
(188,496,o),
(290,496,cs),
(352,496,o),
(395,475,o),
(433,452,c)
);
}
);
width = 560;
}
);
unicode = 99;
},
{
glyphname = d;
lastChange = "2018-09-07 16:45:24 +0000";
layers = (
{
anchors = (
{
name = bottom;
pos = (280,0);
},
{
name = center;
pos = (280,280);
},
{
name = top;
pos = (280,800);
},
{
name = topright;
pos = (540,560);
}
);
hints = (
{
horizontal = 1;
origin = (0,4);
type = TTSnap;
},
{
horizontal = 1;
origin = (0,7);
type = TTSnap;
},
{
horizontal = 1;
options = 4;
origin = (0,17);
target = (1,13);
type = TTStem;
},
{
horizontal = 1;
options = 4;
origin = (0,11);
target = (1,5);
type = TTStem;
}
);
layerId = "83692D61-586C-413E-9B5A-1AF652750951";
shapes = (
{
closed = 1;
nodes = (
(289,-8,o),
(341,30,o),
(383,84,cs),
(400,106,l),
(400,0,l),
(480,0,l),
(480,800,l),
(400,800,l),
(400,562,l),
(369,567,o),
(336,571,o),
(303,571,cs),
(166,571,o),
(54,459,o),
(54,241,cs),
(54,81,o),
(114,-8,o),
(222,-8,cs)
);
},
{
closed = 1;
nodes = (
(174,64,o),
(138,113,o),
(138,247,cs),
(138,421,o),
(205,503,o),
(318,503,cs),
(346,503,o),
(378,499,o),
(400,494,c),
(400,194,l),
(361,146,ls),
(316,90,o),
(280,64,o),
(235,64,cs)
);
}
);
width = 560;
}
);
unicode = 100;
},
{
color = 7;
glyphname = dcroat;
lastChange = "2021-05-06 08:35:14 +0000";
layers = (
{
layerId = "83692D61-586C-413E-9B5A-1AF652750951";
shapes = (
{
ref = d;
},
{
closed = 1;
nodes = (
(560,648,l),
(560,720,l),
(262,720,l),
(262,648,l)
);
}
);
width = 560;
}
);
unicode = 273;
},
{
glyphname = e;
lastChange = "2021-05-06 08:06:46 +0000";
layers = (
{
anchors = (
{
name = bottom;
pos = (280,0);
},
{
name = ogonek;
pos = (453,0);
},
{
name = top;
pos = (275,560);
}
);
background = {
shapes = (
{
closed = 1;
nodes = (
(411,-10,o),
(506,110,o),
(506,280,cs),
(506,444,o),
(437,570,o),
(280,570,cs),
(137,570,o),
(54,447,o),
(54,280,cs),
(54,103,o),
(137,-10,o),
(280,-10,cs)
);
},
{
closed = 1;
nodes = (
(192,60,o),
(136,137,o),
(136,280,cs),
(136,424,o),
(183,500,o),
(280,500,cs),
(378,500,o),
(424,420,o),
(424,280,cs),
(424,138,o),
(370,60,o),
(280,60,cs)
);
}
);
};
hints = (
{
horizontal = 1;
origin = (0,11);
other1 = (0,8);
target = (0,17);
type = TTInterpolate;
},
{
horizontal = 1;
options = 4;
origin = (0,11);
target = (0,2);
type = TTStem;
},
{
horizontal = 1;
options = 4;
origin = (0,8);
target = (0,5);
type = TTStem;
},
{
horizontal = 1;
options = 4;
origin = (0,17);
target = (0,24);
type = TTStem;
}
);
layerId = "83692D61-586C-413E-9B5A-1AF652750951";
shapes = (
{
closed = 1;
nodes = (
(142,412,o),
(179,498,o),
(273,498,cs),
(352,498,o),
(386,433,o),
(384,343,c),
(124,343,l),
(124,273,l),
(460,273,l),
(484,446,o),
(417,568,o),
(277,568,cs),
(152,568,o),
(60,474,o),
(60,280,cs),
(60,72,o),
(160,-10,o),
(298,-10,cs),
(356,-10,o),
(407,6,o),
(453,25,c),
(433,90,l),
(396,76,o),
(352,62,o),
(303,62,cs),
(194,62,o),
(142,134,o),
(142,280,cs)
);
}
);
width = 560;
}
);
unicode = 101;
},
{
color = 7;
glyphname = eogonek;
lastChange = "2021-05-06 08:08:04 +0000";
layers = (
{
background = {
shapes = (
{
closed = 1;
nodes = (
(423,-160,o),
(448,-155,o),
(467,-149,c),
(456,-83,l),
(443,-86,o),
(431,-88,o),
(418,-88,cs),
(392,-88,o),
(382,-78,o),
(382,-62,cs),
(382,-40,o),
(402,-14,o),
(453,0,c),
(443,28,l),
(363,10,o),
(299,-26,o),
(299,-84,cs),
(299,-134,o),
(338,-160,o),
(398,-160,cs)
);
}
);
};
layerId = "83692D61-586C-413E-9B5A-1AF652750951";
shapes = (
{
ref = e;
},
{
closed = 1;
nodes = (
(423,-160,o),
(448,-155,o),
(467,-149,c),
(456,-83,l),
(443,-86,o),
(431,-88,o),
(418,-88,cs),
(393,-88,o),
(382,-78,o),
(382,-59,cs),
(382,-29,o),
(409,-2,o),
(453,25,c),
(447,41,l),
(363,19,o),
(299,-24,o),
(299,-84,cs),
(299,-134,o),
(338,-160,o),
(398,-160,cs)
);
}
);
width = 560;
}
);
unicode = 281;
},
{
glyphname = f;
lastChange = "2018-09-07 16:44:53 +0000";
layers = (
{
anchors = (
{
name = bottom;
pos = (280,0);
},
{
name = top;
pos = (280,800);
}
);
background = {
shapes = (
{
closed = 1;
nodes = (
(320,0,l),
(320,480,l),
(480,480,l),
(480,560,l),
(320,560,l),
(320,720,l),
(240,720,l),
(240,560,l),
(80,560,l),
(80,480,l),
(240,480,l),
(240,0,l)
);
},
{
closed = 1;
nodes = (
(480,720,l),
(480,800,l),
(320,800,l),
(320,720,l)
);
}
);
};
hints = (
{
horizontal = 1;
origin = (0,23);
type = TTSnap;
},
{
horizontal = 1;
options = 4;
origin = (0,15);
target = (0,8);
type = TTStem;
},
{
horizontal = 1;
origin = (0,19);
type = TTSnap;
},
{
horizontal = 1;
options = 4;
origin = (0,19);
target = (0,4);
type = TTShift;
},
{
horizontal = 1;
options = 4;
origin = (0,4);
target = (0,1);
type = TTStem;
},
{
horizontal = 1;
options = 4;
origin = (0,1);
target = (0,22);
type = TTShift;
}
);
layerId = "83692D61-586C-413E-9B5A-1AF652750951";
shapes = (
{
closed = 1;
nodes = (
(314,0,l),
(314,408,l),
(490,408,l),
(490,480,l),
(314,480,l),
(314,650,ls),
(314,705,o),
(339,740,o),
(398,740,cs),
(424,740,o),
(454,734,o),
(478,726,c),
(495,794,l),
(465,804,o),
(429,812,o),
(390,812,cs),
(293,812,o),
(234,751,o),
(234,646,cs),
(234,480,l),
(74,480,l),
(74,408,l),
(234,408,l),
(234,0,l)
);
}
);
width = 560;
}
);
unicode = 102;
},
{
glyphname = g;
lastChange = "2021-05-06 08:21:15 +0000";
layers = (
{
anchors = (
{
name = bottom;
pos = (280,-160);
},
{
name = top;
pos = (270,560);
}
);
background = {
shapes = (
{
closed = 1;
nodes = (
(186,311,o),
(156,356,o),
(156,401,cs),
(156,454,o),
(196,501,o),
(269,501,cs),
(339,501,o),
(377,458,o),
(377,406,cs),
(377,355,o),
(340,311,o),
(264,311,cs)
);
},
{
closed = 1;
nodes = (
(400,267,o),
(456,326,o),
(456,405,cs),
(456,484,o),
(397,571,o),
(269,571,cs),
(153,571,o),
(76,495,o),
(76,406,cs),
(76,312,o),
(153,256,o),
(243,256,c),
(223,276,l),
(164,259,ls),
(100,240,o),
(75,210,o),
(75,168,cs),
(75,111,o),
(122,83,o),
(185,83,c),
(191,74,l),
(322,65,ls),
(383,61,o),
(408,31,o),
(408,-4,cs),
(408,-57,o),
(360,-90,o),
(267,-90,cs),
(189,-90,o),
(137,-63,o),
(137,-4,cs),
(137,36,o),
(161,60,o),
(223,83,c),
(204,122,l),
(114,94,o),
(56,53,o),
(56,-18,cs),
(56,-100,o),
(135,-160,o),
(264,-160,cs),
(420,-160,o),
(490,-87,o),
(490,-4,cs),
(490,77,o),
(433,138,o),
(325,145,cs),
(193,153,ls),
(165,155,o),
(154,163,o),
(154,179,cs),
(154,196,o),
(165,202,o),
(189,209,cs),
(287,236,ls)
);
},
{
closed = 1;
nodes = (
(396,508,l),
(420,557,o),
(440,560,o),
(468,560,cs),
(527,560,l),
(527,638,l),
(511,641,o),
(493,643,o),
(475,643,cs),
(428,643,o),
(389,618,o),
(362,523,c)
);
}
);
};
hints = (
{
horizontal = 1;
options = 4;
origin = (1,5);
target = (0,5);
type = TTStem;
},
{
horizontal = 1;
options = 4;
origin = (1,40);
target = (1,27);
type = TTStem;
},
{
horizontal = 1;
options = 4;
origin = (0,5);
other1 = (1,21);
target = (1,40);
type = TTInterpolate;
},
{
horizontal = 1;
options = 4;
origin = (0,5);
other1 = (1,54);
target = (1,40);
type = TTInterpolate;
},
{
horizontal = 1;
options = 4;
origin = (1,21);
target = (1,46);
type = TTStem;
},
{
horizontal = 1;
options = 4;
origin = (1,54);
target = (0,11);
type = TTStem;
},
{
horizontal = 1;
options = 4;
origin = (1,5);
other1 = (1,11,1,13);
target = (1,54);
type = TTInterpolate;
},
{
horizontal = 1;
options = 4;
origin = (1,21);
other1 = (1,19,1,37);
target = (0,11);
type = TTInterpolate;
},
{
horizontal = 1;
options = 4;
origin = (1,5);
other1 = (1,5,2,3);
target = (1,54);
type = TTInterpolate;
},
{
horizontal = 1;
options = 4;
origin = (2,3);
target = (2,8);
type = TTStem;
}
);
layerId = "83692D61-586C-413E-9B5A-1AF652750951";
shapes = (
{
closed = 1;
nodes = (
(186,311,o),
(156,356,o),
(156,401,cs),
(156,454,o),
(196,501,o),
(269,501,cs),
(339,501,o),
(377,458,o),
(377,406,cs),
(377,355,o),
(340,311,o),
(264,311,cs)
);
},
{
closed = 1;
nodes = (
(404,265,o),
(456,326,o),
(456,407,cs),
(456,484,o),
(397,571,o),
(269,571,cs),
(153,571,o),
(76,495,o),
(76,406,cs),
(76,312,o),
(153,256,o),
(243,256,c),
(223,276,l),
(164,259,ls),
(100,241,o),
(75,210,o),
(75,168,cs),
(75,111,o),
(122,83,o),
(185,83,c),
(191,74,l),
(322,65,ls),
(383,61,o),
(408,31,o),
(408,-6,cs),
(408,-59,o),
(360,-90,o),
(267,-90,cs),
(189,-90,o),
(137,-65,o),
(137,-4,cs),
(137,36,o),
(161,60,o),
(223,83,c),
(204,122,l),
(114,94,o),
(56,53,o),
(56,-18,cs),
(56,-100,o),
(135,-160,o),
(264,-160,cs),
(420,-160,o),
(490,-87,o),
(490,0,cs),
(490,77,o),
(433,138,o),
(325,145,cs),
(193,153,ls),
(165,155,o),
(154,163,o),
(154,179,cs),
(154,196,o),
(164,206,o),
(200,215,cs),
(278,234,ls)
);
},
{
closed = 1;
nodes = (
(396,508,l),
(420,557,o),
(440,560,o),
(468,560,cs),
(527,560,l),
(527,638,l),
(511,641,o),
(493,643,o),
(475,643,cs),
(428,643,o),
(389,618,o),
(362,523,c)
);
}
);
width = 560;
}
);
unicode = 103;
},
{
glyphname = h;
lastChange = "2021-01-30 19:37:14 +0000";
layers = (
{
anchors = (
{
name = bottom;
pos = (280,0);
},
{
name = center;
pos = (280,400);
},
{
name = top;
pos = (280,800);
}
);
hints = (
{
horizontal = 1;
options = 4;
origin = (0,17);
target = (0,8);
type = TTStem;
},
{
horizontal = 1;
origin = (0,0);
type = TTSnap;
},
{
horizontal = 1;
options = 4;
origin = (0,3);
target = (0,12);
type = TTShift;
}
);
layerId = "83692D61-586C-413E-9B5A-1AF652750951";
shapes = (
{
closed = 1;
nodes = (
(160,800,l),
(80,800,l),
(80,0,l),
(160,0,l),
(160,371,l),
(200,414,ls),
(250,468,o),
(286,494,o),
(331,494,cs),
(382,494,o),
(400,463,o),
(400,407,cs),
(400,0,l),
(480,0,l),
(480,410,ls),
(480,515,o),
(431,568,o),
(342,568,cs),
(271,568,o),
(227,527,o),
(178,473,cs),
(160,453,l)
);
}
);
width = 560;
}
);
unicode = 104;
},
{
color = 7;
glyphname = hbar;
lastChange = "2021-05-06 08:51:01 +0000";
layers = (
{
layerId = "83692D61-586C-413E-9B5A-1AF652750951";
shapes = (
{
ref = h;
},
{
closed = 1;
nodes = (
(298,648,l),
(298,720,l),
(0,720,l),
(0,648,l)
);
}
);
width = 560;
}
);
unicode = 295;
},
{
color = 6;
glyphname = i;
lastChange = "2021-05-10 21:59:00 +0000";
layers = (
{
background = {
shapes = (
{
closed = 1;
nodes = (
(284,70,l),
(284,566,l),
(248,566,l),
(74,556,l),
(74,496,l),
(204,496,l),
(204,70,l),
(64,60,l),
(64,0,l),
(424,0,l),
(424,60,l)
);
},
{
closed = 1;
nodes = (
(282,661,o),
(316,695,o),
(316,737,cs),
(316,781,o),
(284,814,o),
(240,814,cs),
(196,814,o),
(163,780,o),
(163,737,cs),
(163,692,o),
(195,661,o),
(238,661,cs)
);
}
);
};
layerId = "83692D61-586C-413E-9B5A-1AF652750951";
shapes = (
{
ref = idotless;
},
{
pos = (-1,0);
ref = dotaccentcomb;
}
);
width = 560;
}
);
unicode = 105;
},
{
color = 9;
glyphname = idotless;
lastChange = "2018-09-07 16:43:42 +0000";
layers = (
{
anchors = (
{
name = bottom;
pos = (280,0);
},
{
name = ogonek;
pos = (484,0);
},
{
name = top;
pos = (279,560);
}
);
background = {
shapes = (
{
closed = 1;
nodes = (
(324,70,l),
(324,566,l),
(288,566,l),
(114,556,l),
(114,496,l),
(244,496,l),
(244,70,l),
(104,60,l),
(104,0,l),
(464,0,l),
(464,60,l)
);
}
);
};
hints = (
{
horizontal = 1;
options = 4;
origin = (0,8);
target = (0,6);
type = TTStem;
},
{
horizontal = 1;
options = 4;
origin = (0,6);
target = (0,0);
type = TTShift;
},
{
horizontal = 1;
options = 4;
origin = (0,2);
target = (0,5);
type = TTStem;
}
);
layerId = "83692D61-586C-413E-9B5A-1AF652750951";
shapes = (
{
closed = 1;
nodes = (
(324,70,l),
(324,566,l),
(288,566,l),
(94,556,l),
(94,496,l),
(244,496,l),
(244,70,l),
(84,60,l),
(84,0,l),
(484,0,l),
(484,60,l)
);
}
);
width = 560;
}
);
unicode = 305;
},
{
glyphname = jdotless;
lastChange = "2018-09-07 16:43:34 +0000";
layers = (
{
anchors = (
{
name = top;
pos = (229,560);
}
);
background = {
shapes = (
{
closed = 1;
nodes = (
(240,640,l),
(320,640,l),
(320,800,l),
(240,800,l)
);
},
{
closed = 1;
nodes = (
(80,560,l),
(80,480,l),
(240,480,l),
(240,-80,l),
(320,-80,l),
(320,560,l)
);
},
{
closed = 1;
nodes = (
(80,-160,l),
(240,-160,l),
(240,-80,l),
(80,-80,l)
);
}
);
};
hints = (
{
horizontal = 1;
options = 4;
origin = (0,4);
target = (0,7);
type = TTStem;
},
{
horizontal = 1;
options = 4;
origin = (0,18);
target = (0,11);
type = TTStem;
}
);
layerId = "83692D61-586C-413E-9B5A-1AF652750951";
shapes = (
{
closed = 1;
nodes = (
(229,-148,o),
(274,-90,o),
(274,-2,cs),
(274,566,l),
(238,566,l),
(64,556,l),
(64,496,l),
(194,496,l),
(194,-4,ls),
(194,-56,o),
(170,-78,o),
(123,-78,cs),
(100,-78,o),
(70,-74,o),
(37,-68,c),
(29,-133,l),
(55,-140,o),
(97,-148,o),
(136,-148,cs)
);
}
);
width = 400;
}
);
unicode = 567;
},
{
glyphname = k;
lastChange = "2018-09-10 14:10:01 +0000";
layers = (
{
anchors = (
{
name = bottom;
pos = (250,0);
},
{
name = top;
pos = (250,800);
}
);
background = {
shapes = (
{
closed = 1;
nodes = (
(160,800,l),
(80,800,l),
(80,0,l),
(160,0,l),
(160,240,l),
(240,240,l),
(240,320,l),
(160,320,l)
);
},
{
closed = 1;
nodes = (
(400,560,l),
(400,480,l),
(480,480,l),
(480,560,l)
);
},
{
closed = 1;
nodes = (
(320,480,l),
(320,400,l),
(400,400,l),
(400,480,l)
);
},
{
closed = 1;
nodes = (
(240,400,l),
(240,320,l),
(320,320,l),
(320,400,l)
);
},
{
closed = 1;
nodes = (
(320,240,l),
(240,240,l),
(240,160,l),
(320,160,l)
);
},
{
closed = 1;
nodes = (
(400,160,l),
(320,160,l),
(320,80,l),
(400,80,l)
);
},
{
closed = 1;
nodes = (
(480,80,l),
(400,80,l),
(400,0,l),
(480,0,l)
);
}
);
};
hints = (
{
horizontal = 1;
origin = (0,0);
type = TTSnap;
},
{
horizontal = 1;
origin = (0,3);
type = TTSnap;
},
{
horizontal = 1;
origin = (2,0);
type = TTSnap;
},
{
horizontal = 1;
origin = (1,1);
type = TTSnap;
},
{
horizontal = 1;
options = 4;
origin = (2,0);
other1 = (0,0,1,2);
target = (1,1);
type = TTInterpolate;
},
{
horizontal = 1;
options = 4;
origin = (2,0);
other1 = (0,0,2,0);
target = (1,1);
type = TTInterpolate;
}
);
layerId = "83692D61-586C-413E-9B5A-1AF652750951";
shapes = (
{
closed = 1;
nodes = (
(160,800,l),
(80,800,l),
(80,0,l),
(160,0,l)
);
},
{
closed = 1;
nodes = (
(458,560,l),
(363,560,l),
(113,265,l),
(193,265,l)
);
},
{
closed = 1;
nodes = (
(364,0,l),
(470,0,l),
(206,320,l),
(109,320,l)
);
}
);
width = 500;
}
);
unicode = 107;
},
{
glyphname = l;
lastChange = "2021-05-06 08:44:59 +0000";
layers = (
{
anchors = (
{
name = bottom;
pos = (280,0);
},
{
name = center;
pos = (280,360);
},
{
name = top;
pos = (287,800);
},
{
name = topright;
pos = (540,800);
}
);
background = {
shapes = (
{
closed = 1;
nodes = (
(320,310,l),
(320,806,l),
(284,806,l),
(90,796,l),
(90,736,l),
(240,736,l),
(240,310,l),
(80,300,l),
(80,240,l),
(480,240,l),
(480,300,l)
);
}
);
};
hints = (
{
horizontal = 1;
options = 4;
origin = (0,10);
target = (0,8);
type = TTStem;
},
{
horizontal = 1;
options = 4;
origin = (0,8);
target = (0,2);
type = TTShift;
},
{
horizontal = 1;
options = 4;
origin = (0,4);
target = (0,7);
type = TTStem;
}
);
layerId = "83692D61-586C-413E-9B5A-1AF652750951";
shapes = (
{
closed = 1;
nodes = (
(480,0,l),
(480,60,l),
(320,70,l),
(320,806,l),
(284,806,l),
(90,796,l),
(90,736,l),
(240,736,l),
(240,70,l),
(80,60,l),
(80,0,l)
);
}
);
width = 560;
},
{
associatedMasterId = "83692D61-586C-413E-9B5A-1AF652750951";
layerId = "4947B03B-B76D-4BB1-8A50-C24FC5885830";
name = "Feb 2 18, 11:39";
shapes = (
{
closed = 1;
nodes = (
(280,70,l),
(280,800,l),
(70,790,l),
(70,730,l),
(200,730,l),
(200,70,l),
(60,60,l),
(60,0,l),
(420,0,l),
(420,60,l)
);
}
);
width = 480;
}
);
unicode = 108;
},
{
color = 9;
glyphname = m;
lastChange = "2018-09-07 16:42:57 +0000";
layers = (
{
anchors = (
{
name = bottom;
pos = (280,0);
},
{
name = top;
pos = (280,560);
}
);
background = {
shapes = (
{
closed = 1;
nodes = (
(80,560,l),
(0,560,l),
(0,0,l),
(80,0,l),
(80,359,l),
(106,410,ls),
(134,465,o),
(158,494,o),
(191,494,cs),
(222,494,o),
(240,472,o),
(240,414,cs),
(240,0,l),
(320,0,l),
(320,417,ls),
(320,515,o),
(283,568,o),
(213,568,cs),
(160,568,o),
(124,532,o),
(91,475,cs),
(80,456,l)
);
},
{
closed = 1;
nodes = (
(346,410,ls),
(374,465,o),
(398,494,o),
(431,494,cs),
(462,494,o),
(480,472,o),
(480,413,cs),
(480,0,l),
(560,0,l),
(560,416,ls),
(560,515,o),
(523,568,o),
(453,568,cs),
(400,568,o),
(362,535,o),
(327,475,cs),
(276,386,l),
(320,359,l)
);
}
);
};
hints = (
{
horizontal = 1;
options = 4;
origin = (1,12);
target = (1,3);
type = TTStem;
},
{
horizontal = 1;
options = 4;
origin = (0,12);
target = (0,3);
type = TTStem;
},
{
horizontal = 1;
origin = (1,7);
type = TTSnap;
},
{
horizontal = 1;
origin = (2,3);
type = TTSnap;
},
{
horizontal = 1;
origin = (0,7);
type = TTSnap;
},
{
horizontal = 1;
origin = (2,0);
type = TTSnap;
}
);
layerId = "83692D61-586C-413E-9B5A-1AF652750951";
shapes = (
{
closed = 1;
nodes = (
(345,416,ls),
(371,469,o),
(388,496,o),
(414,496,cs),
(438,496,o),
(450,480,o),
(450,435,cs),
(450,0,l),
(530,0,l),
(530,433,ls),
(530,528,o),
(497,568,o),
(436,568,cs),
(388,568,o),
(353,538,o),
(324,479,cs),
(277,385,l),
(320,365,l)
);
},
{
closed = 1;
nodes = (
(135,412,ls),
(162,468,o),
(178,496,o),
(204,496,cs),
(228,496,o),
(240,480,o),
(240,435,cs),
(240,0,l),
(320,0,l),
(320,433,ls),
(320,528,o),
(287,568,o),
(226,568,cs),
(178,568,o),
(144,536,o),
(114,475,cs),
(67,381,l),
(110,361,l)
);
},
{
closed = 1;
nodes = (
(110,560,l),
(30,560,l),
(30,0,l),
(110,0,l)
);
}
);
width = 560;
}
);
unicode = 109;
},
{
glyphname = n;
lastChange = "2021-01-29 13:55:50 +0000";
layers = (
{
anchors = (
{
name = bottom;
pos = (280,0);
},
{
name = top;
pos = (280,560);
}
);
background = {
shapes = (
{
closed = 1;
nodes = (
(80,560,l),
(80,0,l),
(160,0,l),
(160,400,l),
(240,400,l),
(240,480,l),
(160,480,l),
(160,560,l)
);
},
{
closed = 1;
nodes = (
(240,560,l),
(240,480,l),
(400,480,l),
(400,560,l)
);
},
{
closed = 1;
nodes = (
(400,0,l),
(480,0,l),
(480,480,l),
(400,480,l)
);
}
);
};
hints = (
{
horizontal = 1;
origin = (0,1);
type = TTSnap;
},
{
horizontal = 1;
origin = (0,3);
type = TTSnap;
},
{
horizontal = 1;
origin = (0,12);
type = TTSnap;
},
{
horizontal = 1;
options = 4;
origin = (0,17);
target = (0,8);
type = TTStem;
}
);
layerId = "83692D61-586C-413E-9B5A-1AF652750951";
shapes = (
{
closed = 1;
nodes = (
(160,560,l),
(80,560,l),
(80,0,l),
(160,0,l),
(160,371,l),
(200,414,ls),
(250,468,o),
(286,494,o),
(331,494,cs),
(382,494,o),
(400,463,o),
(400,407,cs),
(400,0,l),
(480,0,l),
(480,410,ls),
(480,515,o),
(431,568,o),
(342,568,cs),
(271,568,o),
(227,527,o),
(178,473,cs),
(160,453,l)
);
}
);
width = 560;
}
);
unicode = 110;
},
{
glyphname = o;
lastChange = "2018-09-07 08:40:05 +0000";
layers = (
{
anchors = (
{
name = bottom;
pos = (280,0);
},
{
name = center;
pos = (280,280);
},
{
name = ogonek;
pos = (343,0);
},
{
name = top;
pos = (280,560);
},
{
name = topright;
pos = (540,560);
}
);
background = {
shapes = (
{
closed = 1;
nodes = (
(402,562,l),
(158,562,l),
(158,482,l),
(78,482,l),
(78,78,l),
(158,78,l),
(158,-2,l),
(402,-2,l),
(402,78,l),
(482,78,l),
(482,482,l),
(402,482,l)
);
},
{
closed = 1;
nodes = (
(398,82,l),
(162,82,l),
(162,478,l),
(398,478,l)
);
}
);
};
hints = (
{
horizontal = 1;
origin = (0,11);
target = (1,11);
type = Stem;
},
{
horizontal = 1;
origin = (0,5);
target = (1,5);
type = Stem;
},
{
origin = (0,8);
target = (1,2);
type = Stem;
},
{
origin = (1,8);
target = (0,2);
type = Stem;
},
{
horizontal = 1;
options = 4;
origin = (0,11);
target = (1,11);
type = TTStem;
},
{
horizontal = 1;
options = 4;
origin = (0,5);
target = (1,5);
type = TTStem;
}
);
layerId = "83692D61-586C-413E-9B5A-1AF652750951";
shapes = (
{
closed = 1;
nodes = (
(411,-10,o),
(506,110,o),
(506,280,cs),
(506,444,o),
(437,570,o),
(280,570,cs),
(137,570,o),
(54,447,o),
(54,280,cs),
(54,103,o),
(137,-10,o),
(280,-10,cs)
);
},
{
closed = 1;
nodes = (
(192,60,o),
(136,137,o),
(136,280,cs),
(136,424,o),
(183,500,o),
(280,500,cs),
(378,500,o),
(424,420,o),
(424,280,cs),
(424,138,o),
(370,60,o),
(280,60,cs)
);
}
);
width = 560;
}
);
unicode = 111;
},
{
glyphname = p;
lastChange = "2018-09-07 08:40:20 +0000";
layers = (
{
anchors = (
{
name = bottom;
pos = (280,0);
},
{
name = top;
pos = (280,560);
}
);
hints = (
{
horizontal = 1;
origin = (0,12);
target = up;
type = BottomGhost;
},
{
horizontal = 1;
origin = (0,17);
target = (1,13);
type = Stem;
},
{
horizontal = 1;
origin = (0,5);
target = (1,7);
type = Stem;
},
{
horizontal = 1;
origin = (0,14);
target = down;
type = TopGhost;
},
{
horizontal = 1;
origin = (0,11);
target = down;
type = TopGhost;
},
{
origin = (0,12);
target = (0,13);
type = Stem;
},
{
origin = (1,10);
target = (0,2);
type = Stem;
},
{
horizontal = 1;
options = 4;
origin = (0,17);
target = (1,13);
type = TTStem;
},
{
horizontal = 1;
options = 4;
origin = (0,5);
target = (1,7);
type = TTStem;
},
{
horizontal = 1;
origin = (0,12);
type = TTSnap;
},
{
horizontal = 1;
origin = (0,11);
type = TTSnap;
}
);
layerId = "83692D61-586C-413E-9B5A-1AF652750951";
shapes = (
{
closed = 1;
nodes = (
(394,-11,o),
(506,101,o),
(506,319,cs),
(506,479,o),
(446,568,o),
(338,568,cs),
(271,568,o),
(219,530,o),
(177,476,cs),
(160,454,l),
(160,560,l),
(80,560,l),
(80,-160,l),
(160,-160,l),
(160,-2,l),
(191,-7,o),
(224,-11,o),
(257,-11,cs)
);
},
{
closed = 1;
nodes = (
(214,57,o),
(182,61,o),
(160,66,c),
(160,366,l),
(199,414,ls),
(244,470,o),
(280,496,o),
(325,496,cs),
(386,496,o),
(422,447,o),
(422,313,cs),
(422,139,o),
(355,57,o),
(242,57,cs)
);
}
);
width = 560;
}
);
unicode = 112;
},
{
glyphname = thorn;
lastChange = "2021-05-06 08:26:56 +0000";
layers = (
{
hints = (
{
horizontal = 1;
origin = (0,12);
target = up;
type = BottomGhost;
},
{
horizontal = 1;
origin = (0,17);
target = (1,13);
type = Stem;
},
{
horizontal = 1;
origin = (0,5);
target = (1,7);
type = Stem;
},
{
horizontal = 1;
origin = (0,14);
target = down;
type = TopGhost;
},
{
horizontal = 1;
origin = (0,11);
target = down;
type = TopGhost;
},
{
origin = (0,12);
target = (0,13);
type = Stem;
},
{
origin = (1,10);
target = (0,2);
type = Stem;
},
{
horizontal = 1;
options = 4;
origin = (0,17);
target = (1,13);
type = TTStem;
},
{
horizontal = 1;
options = 4;
origin = (0,5);
target = (1,7);
type = TTStem;
},
{
horizontal = 1;
origin = (0,12);
type = TTSnap;
},
{
horizontal = 1;
origin = (0,11);
type = TTSnap;
}
);
layerId = "83692D61-586C-413E-9B5A-1AF652750951";
shapes = (
{
closed = 1;
nodes = (
(394,-11,o),
(506,101,o),
(506,319,cs),
(506,479,o),
(446,568,o),
(338,568,cs),
(271,568,o),
(219,530,o),
(177,476,cs),
(160,454,l),
(160,800,l),
(80,800,l),
(80,-160,l),
(160,-160,l),
(160,-2,l),
(191,-7,o),
(224,-11,o),
(257,-11,cs)
);
},
{
closed = 1;
nodes = (
(214,57,o),
(182,61,o),
(160,66,c),
(160,366,l),
(199,414,ls),
(244,470,o),
(280,496,o),
(325,496,cs),
(386,496,o),
(422,447,o),
(422,313,cs),
(422,139,o),
(355,57,o),
(242,57,cs)
);
}
);
width = 560;
}
);
unicode = 254;
},
{
glyphname = q;
lastChange = "2018-09-07 08:40:27 +0000";
layers = (
{
anchors = (
{
name = bottom;
pos = (280,0);
},
{
name = top;
pos = (280,560);
}
);
hints = (
{
horizontal = 1;
options = 4;
origin = (0,15);
target = (1,13);
type = TTStem;
},
{
horizontal = 1;
options = 4;
origin = (0,5);
target = (1,7);
type = TTStem;
},
{
horizontal = 1;
origin = (0,10);
type = TTSnap;
}
);
layerId = "83692D61-586C-413E-9B5A-1AF652750951";
shapes = (
{
closed = 1;
nodes = (
(166,571,o),
(54,459,o),
(54,241,cs),
(54,81,o),
(114,-8,o),
(222,-8,cs),
(289,-8,o),
(341,30,o),
(383,84,cs),
(400,106,l),
(400,-160,l),
(480,-160,l),
(480,542,l),
(429,558,o),
(366,571,o),
(303,571,cs)
);
},
{
closed = 1;
nodes = (
(346,503,o),
(378,499,o),
(400,494,c),
(400,194,l),
(361,146,ls),
(316,90,o),
(280,64,o),
(235,64,cs),
(174,64,o),
(138,113,o),
(138,247,cs),
(138,421,o),
(205,503,o),
(318,503,cs)
);
}
);
width = 560;
}
);
unicode = 113;
},
{
glyphname = r;
kernRight = r;
lastChange = "2021-05-06 08:17:21 +0000";
layers = (
{
anchors = (
{
name = bottom;
pos = (120,0);
},
{
name = top;
pos = (240,560);
}
);
background = {
shapes = (
{
closed = 1;
nodes = (
(80,560,l),
(80,480,l),
(160,480,l),
(160,80,l),
(80,80,l),
(80,0,l),
(400,0,l),
(400,80,l),
(240,80,l),
(240,400,l),
(320,400,l),
(320,480,l),
(240,480,l),
(240,560,l)
);
},
{
closed = 1;
nodes = (
(320,560,l),
(320,480,l),
(480,480,l),
(480,560,l)
);
}
);
};
hints = (
{
horizontal = 1;
origin = (0,5);
type = TTSnap;
},
{
horizontal = 1;
origin = (0,7);
type = TTSnap;
},
{
horizontal = 1;
options = 4;
origin = (0,20);
target = (0,13);
type = TTStem;
}
);
layerId = "83692D61-586C-413E-9B5A-1AF652750951";
shapes = (
{
closed = 1;
nodes = (
(267,568,o),
(218,518,o),
(176,458,cs),
(160,435,l),
(160,560,l),
(80,560,l),
(80,490,l),
(80,0,l),
(160,0,l),
(160,347,l),
(195,393,ls),
(240,452,o),
(279,490,o),
(341,490,cs),
(362,490,o),
(384,486,o),
(398,483,c),
(411,562,l),
(395,565,o),
(373,568,o),
(349,568,cs)
);
}
);
width = 480;
},
{
associatedMasterId = "83692D61-586C-413E-9B5A-1AF652750951";
background = {
shapes = (
{
closed = 1;
nodes = (
(80,560,l),
(80,480,l),
(160,480,l),
(160,80,l),
(80,80,l),
(80,0,l),
(400,0,l),
(400,80,l),
(240,80,l),
(240,400,l),
(320,400,l),
(320,480,l),
(240,480,l),
(240,560,l)
);
},
{
closed = 1;
nodes = (
(320,560,l),
(320,480,l),
(480,480,l),
(480,560,l)
);
}
);
};
layerId = "C7F7534A-3A19-41A2-981C-0EF916393203";
name = "Jan 4 18, 12:10";
shapes = (
{
closed = 1;
nodes = (
(292,568,o),
(243,518,o),
(201,458,cs),
(185,435,l),
(185,560,l),
(45,560,l),
(45,500,l),
(105,490,l),
(105,70,l),
(45,60,l),
(45,0,l),
(325,0,l),
(325,60,l),
(185,70,l),
(185,347,l),
(220,393,ls),
(265,452,o),
(304,490,o),
(366,490,cs),
(387,490,o),
(409,486,o),
(423,483,c),
(436,562,l),
(420,565,o),
(398,568,o),
(374,568,cs)
);
}
);
width = 480;
}
);
unicode = 114;
},
{
glyphname = s;
lastChange = "2021-01-21 07:48:59 +0000";
layers = (
{
anchors = (
{
name = bottom;
pos = (215,0);
},
{
name = top;
pos = (240,560);
}
);
background = {
shapes = (
{
closed = 1;
nodes = (
(160,560,l),
(160,480,l),
(400,480,l),
(400,560,l)
);
},
{
closed = 1;
nodes = (
(80,320,l),
(160,320,l),
(160,480,l),
(80,480,l)
);
},
{
closed = 1;
nodes = (
(480,480,l),
(400,480,l),
(400,400,l),
(480,400,l)
);
},
{
closed = 1;
nodes = (
(400,240,l),
(400,320,l),
(160,320,l),
(160,240,l)
);
},
{
closed = 1;
nodes = (
(480,80,l),
(480,240,l),
(400,240,l),
(400,80,l)
);
},
{
closed = 1;
nodes = (
(80,80,l),
(160,80,l),
(160,160,l),
(80,160,l)
);
},
{
closed = 1;
nodes = (
(160,80,l),
(160,0,l),
(400,0,l),
(400,80,l)
);
}
);
};
hints = (
{
horizontal = 1;
origin = (0,31);
target = (0,24);
type = Stem;
},
{
horizontal = 1;
origin = (0,15);
target = (0,8);
type = Stem;
},
{
origin = (0,28);
target = (0,5);
type = Stem;
},
{
origin = (0,21);
target = (0,2);
type = Stem;
},
{
horizontal = 1;
options = 4;
origin = (0,31);
target = (0,24);
type = TTStem;
},
{
horizontal = 1;
options = 4;
origin = (0,15);
target = (0,8);
type = TTStem;
},
{
horizontal = 1;
options = 4;
origin = (0,31);
other1 = (0,21,0);
target = (0,8);
type = TTInterpolate;
},
{
horizontal = 1;
options = 4;
origin = (0,24);
other1 = (0,5,0);
target = (0,15);
type = TTInterpolate;
}
);
layerId = "83692D61-586C-413E-9B5A-1AF652750951";
shapes = (
{
closed = 1;
nodes = (
(348,-9,o),
(411,67,o),
(411,153,cs),
(411,360,o),
(142,299,o),
(142,427,cs),
(142,470,o),
(173,502,o),
(250,502,cs),
(296,502,o),
(342,489,o),
(376,477,c),
(395,542,l),
(359,557,o),
(303,574,o),
(246,574,cs),
(123,574,o),
(60,501,o),
(60,421,cs),
(60,227,o),
(329,288,o),
(329,148,cs),
(329,94,o),
(292,63,o),
(222,63,cs),
(169,63,o),
(118,76,o),
(78,90,c),
(60,28,l),
(105,7,o),
(165,-9,o),
(227,-9,cs)
);
}
);
width = 480;
}
);
unicode = 115;
},
{
glyphname = germandbls;
lastChange = "2020-07-28 21:23:27 +0000";
layers = (
{
anchors = (
{
name = top;
pos = (280,800);
}
);
background = {
shapes = (
{
closed = 1;
nodes = (
(160,720,l),
(160,640,l),
(320,640,l),
(320,720,l)
);
},
{
closed = 1;
nodes = (
(80,0,l),
(160,0,l),
(160,640,l),
(80,640,l)
);
},
{
closed = 1;
nodes = (
(400,640,l),
(320,640,l),
(320,400,l),
(400,400,l)
);
},
{
closed = 1;
nodes = (
(240,320,l),
(320,320,l),
(320,400,l),
(240,400,l)
);
},
{
closed = 1;
nodes = (
(320,240,l),
(400,240,l),
(400,320,l),
(320,320,l)
);
},
{
closed = 1;
nodes = (
(400,80,l),
(480,80,l),
(480,240,l),
(400,240,l)
);
},
{
closed = 1;
nodes = (
(240,0,l),
(400,0,l),
(400,80,l),
(240,80,l)
);
}
);
};
hints = (
{
horizontal = 1;
origin = (0,39);
target = up;
type = BottomGhost;
},
{
horizontal = 1;
origin = (0,35);
target = (0,4);
type = Stem;
},
{
horizontal = 1;
origin = (0,23);
target = (0,16);
type = Stem;
},
{
origin = (0,39);
target = (0,0);
type = Stem;
},
{
origin = (0,10);
target = (0,29);
type = Stem;
},
{
origin = (0,7);
target = (0,32);
type = Stem;
},
{
origin = (0,13);
target = (0,26);
type = Stem;
},
{
horizontal = 1;
options = 4;
origin = (0,35);
target = (0,4);
type = TTStem;
},
{
horizontal = 1;
options = 4;
origin = (0,23);
target = (0,16);
type = TTStem;
},
{
horizontal = 1;
origin = (0,39);
type = TTSnap;
},
{
horizontal = 1;
options = 4;
origin = (0,4);
other1 = (0,13,0);
target = (0,23);
type = TTInterpolate;
},
{
horizontal = 1;
options = 4;
origin = (0,4);
other1 = (0,32,0);
target = (0,23);
type = TTInterpolate;
},
{
horizontal = 1;
options = 4;
origin = (0,35);
other1 = (0,10,0);
target = (0,16);
type = TTInterpolate;
},
{
horizontal = 1;
options = 4;
origin = (0,35);
other1 = (0,29,0);
target = (0,16);
type = TTInterpolate;
}
);
layerId = "83692D61-586C-413E-9B5A-1AF652750951";
shapes = (
{
closed = 1;
nodes = (
(160,0,l),
(160,613,ls),
(160,696,o),
(194,740,o),
(260,740,cs),
(331,740,o),
(361,695,o),
(361,624,cs),
(361,493,o),
(240,487,o),
(240,381,cs),
(240,226,o),
(435,266,o),
(435,151,cs),
(435,104,o),
(400,58,o),
(327,58,cs),
(298,58,o),
(276,64,o),
(249,74,c),
(228,18,l),
(263,2,o),
(296,-10,o),
(340,-10,cs),
(453,-10,o),
(518,70,o),
(518,148,cs),
(518,311,o),
(320,299,o),
(320,381,cs),
(320,445,o),
(443,502,o),
(443,633,cs),
(443,745,o),
(372,810,o),
(263,810,cs),
(154,810,o),
(80,740,o),
(80,612,cs),
(80,0,l)
);
}
);
width = 560;
},
{
anchors = (
{
name = bottom;
pos = (280,0);
},
{
name = top;
pos = (280,560);
}
);
associatedMasterId = "83692D61-586C-413E-9B5A-1AF652750951";
background = {
shapes = (
{
closed = 1;
nodes = (
(160,720,l),
(160,640,l),
(320,640,l),
(320,720,l)
);
},
{
closed = 1;
nodes = (
(80,0,l),
(160,0,l),
(160,640,l),
(80,640,l)
);
},
{
closed = 1;
nodes = (
(400,640,l),
(320,640,l),
(320,400,l),
(400,400,l)
);
},
{
closed = 1;
nodes = (
(240,320,l),
(320,320,l),
(320,400,l),
(240,400,l)
);
},
{
closed = 1;
nodes = (
(320,240,l),
(400,240,l),
(400,320,l),
(320,320,l)
);
},
{
closed = 1;
nodes = (
(400,80,l),
(480,80,l),
(480,240,l),
(400,240,l)
);
},
{
closed = 1;
nodes = (
(240,0,l),
(400,0,l),
(400,80,l),
(240,80,l)
);
}
);
};
layerId = "3B98D931-674E-46C7-8A98-BD5F9F9D3E00";
name = "May 23 18, 14:38";
shapes = (
{
closed = 1;
nodes = (
(160,0,l),
(160,613,ls),
(160,696,o),
(194,740,o),
(260,740,cs),
(332,740,o),
(361,684,o),
(361,621,cs),
(361,524,o),
(301,469,o),
(240,402,c),
(348,345,o),
(435,292,o),
(435,179,cs),
(435,104,o),
(400,58,o),
(327,58,cs),
(298,58,o),
(276,64,o),
(249,74,c),
(228,18,l),
(263,2,o),
(296,-10,o),
(340,-10,cs),
(453,-10,o),
(518,70,o),
(518,174,cs),
(518,311,o),
(413,383,o),
(339,418,c),
(384,458,o),
(443,523,o),
(443,625,cs),
(443,736,o),
(365,810,o),
(263,810,cs),
(154,810,o),
(80,740,o),
(80,612,cs),
(80,0,l)
);
}
);
width = 560;
}
);
unicode = 223;
},
{
glyphname = t;
lastChange = "2018-09-07 08:42:37 +0000";
layers = (
{
anchors = (
{
name = bottom;
pos = (240,0);
},
{
name = center;
pos = (240,280);
},
{
name = top;
pos = (180,712);
},
{
name = topright;
pos = (460,560);
}
);
hints = (
{
horizontal = 1;
origin = (0,16);
type = TTSnap;
},
{
horizontal = 1;
options = 4;
origin = (0,23);
target = (0,6);
type = TTStem;
},
{
horizontal = 1;
options = 4;
origin = (0,13);
target = (0,10);
type = TTStem;
},
{
horizontal = 1;
options = 4;
origin = (0,16);
target = (0,13);
type = TTShift;
},
{
horizontal = 1;
options = 4;
origin = (0,10);
target = (0,19);
type = TTShift;
}
);
layerId = "83692D61-586C-413E-9B5A-1AF652750951";
shapes = (
{
closed = 1;
nodes = (
(339,-10,o),
(382,1,o),
(417,12,c),
(404,78,l),
(373,70,o),
(340,64,o),
(311,64,cs),
(245,64,o),
(220,91,o),
(220,153,cs),
(220,488,l),
(412,488,l),
(412,560,l),
(220,560,l),
(220,712,l),
(140,712,l),
(140,560,l),
(20,560,l),
(20,488,l),
(140,488,l),
(140,148,ls),
(140,39,o),
(195,-10,o),
(292,-10,cs)
);
}
);
width = 480;
}
);
unicode = 116;
},
{
glyphname = u;
lastChange = "2018-09-07 08:42:45 +0000";
layers = (
{
anchors = (
{
name = bottom;
pos = (280,0);
},
{
name = ogonek;
pos = (480,0);
},
{
name = top;
pos = (280,560);
},
{
name = topright;
pos = (480,560);
}
);
hints = (
{
horizontal = 1;
origin = (0,16);
type = TTSnap;
},
{
horizontal = 1;
origin = (0,7);
type = TTSnap;
},
{
horizontal = 1;
origin = (0,4);
type = TTSnap;
},
{
horizontal = 1;
options = 4;
origin = (0,21);
target = (0,12);
type = TTStem;
}
);
layerId = "83692D61-586C-413E-9B5A-1AF652750951";
shapes = (
{
closed = 1;
nodes = (
(289,-8,o),
(333,33,o),
(382,87,cs),
(400,107,l),
(400,0,l),
(480,0,l),
(480,560,l),
(400,560,l),
(400,189,l),
(360,146,ls),
(310,92,o),
(274,66,o),
(229,66,cs),
(178,66,o),
(160,97,o),
(160,153,cs),
(160,560,l),
(80,560,l),
(80,150,ls),
(80,45,o),
(129,-8,o),
(218,-8,cs)
);
}
);
width = 560;
}
);
unicode = 117;
},
{
glyphname = v;
lastChange = "2018-09-07 08:42:54 +0000";
layers = (
{
anchors = (
{
name = bottom;
pos = (280,0);
},
{
name = top;
pos = (280,560);
}
);
hints = (
{
horizontal = 1;
origin = (0,1);
type = TTSnap;
},
{
horizontal = 1;
origin = (0,6);
type = TTSnap;
},
{
horizontal = 1;
origin = (0,3);
type = TTSnap;
},
{
horizontal = 1;
options = 4;
origin = (0,3);
target = (0,1,0,7);
type = TTShift;
}
);
layerId = "83692D61-586C-413E-9B5A-1AF652750951";
shapes = (
{
closed = 1;
nodes = (
(286,70,l),
(130,560,l),
(43,560,l),
(230,0,l),
(313,0,l),
(504,560,l),
(426,560,l),
(260,70,l)
);
}
);
width = 560;
}
);
unicode = 118;
},
{
glyphname = w;
lastChange = "2018-09-07 08:43:12 +0000";
layers = (
{
anchors = (
{
name = bottom;
pos = (360,0);
},
{
name = top;
pos = (360,560);
}
);
background = {
shapes = (
{
closed = 1;
nodes = (
(640,80,l),
(640,560,l),
(560,560,l),
(560,80,l)
);
},
{
closed = 1;
nodes = (
(320,0,l),
(320,80,l),
(160,80,l),
(160,0,l)
);
},
{
closed = 1;
nodes = (
(160,80,l),
(160,560,l),
(80,560,l),
(80,80,l)
);
},
{
closed = 1;
nodes = (
(560,0,l),
(560,80,l),
(400,80,l),
(400,0,l)
);
},
{
closed = 1;
nodes = (
(400,80,l),
(400,560,l),
(320,560,l),
(320,80,l)
);
}
);
};
hints = (
{
horizontal = 1;
origin = (0,1);
type = TTSnap;
},
{
horizontal = 1;
origin = (0,6);
type = TTSnap;
},
{
horizontal = 1;
origin = (1,6);
type = TTSnap;
},
{
horizontal = 1;
origin = (0,3);
type = TTSnap;
},
{
horizontal = 1;
origin = (1,3);
type = TTSnap;
},
{
horizontal = 1;
options = 4;
origin = (0,3);
target = (0,1,0,7);
type = TTShift;
},
{
horizontal = 1;
options = 4;
origin = (0,1,0,7);
target = (1,1,1,7);
type = TTShift;
},
{
horizontal = 1;
options = 4;
origin = (0,6);
target = (0,5,1,3);
type = TTShift;
}
);
layerId = "83692D61-586C-413E-9B5A-1AF652750951";
shapes = (
{
closed = 1;
nodes = (
(230,70,l),
(104,560,l),
(17,560,l),
(174,0,l),
(257,0,l),
(396,560,l),
(320,560,l),
(204,70,l)
);
},
{
closed = 1;
nodes = (
(523,70,l),
(407,560,l),
(328,560,l),
(467,0,l),
(550,0,l),
(703,560,l),
(625,560,l),
(497,70,l)
);
}
);
width = 720;
}
);
unicode = 119;
},
{
glyphname = x;
lastChange = "2021-01-29 08:08:38 +0000";
layers = (
{
anchors = (
{
name = bottom;
pos = (280,0);
},
{
name = top;
pos = (280,560);
}
);
background = {
shapes = (
{
closed = 1;
nodes = (
(80,560,l),
(80,400,l),
(160,400,l),
(160,560,l)
);
},
{
closed = 1;
nodes = (
(400,400,l),
(480,400,l),
(480,560,l),
(400,560,l)
);
},
{
closed = 1;
nodes = (
(160,320,l),
(240,320,l),
(240,400,l),
(160,400,l)
);
},
{
closed = 1;
nodes = (
(400,320,l),
(400,400,l),
(320,400,l),
(320,320,l)
);
},
{
closed = 1;
nodes = (
(320,240,l),
(320,320,l),
(240,320,l),
(240,240,l)
);
},
{
closed = 1;
nodes = (
(240,160,l),
(240,240,l),
(160,240,l),
(160,160,l)
);
},
{
closed = 1;
nodes = (
(400,240,l),
(320,240,l),
(320,160,l),
(400,160,l)
);
},
{
closed = 1;
nodes = (
(80,0,l),
(160,0,l),
(160,160,l),
(80,160,l)
);
},
{
closed = 1;
nodes = (
(480,0,l),
(480,160,l),
(400,160,l),
(400,0,l)
);
}
);
};
hints = (
{
horizontal = 1;
origin = (0,2);
type = TTSnap;
},
{
horizontal = 1;
origin = (2,2);
type = TTSnap;
},
{
horizontal = 1;
origin = (0,0);
type = TTSnap;
},
{
horizontal = 1;
origin = (1,2);
type = TTSnap;
},
{
horizontal = 1;
options = 4;
origin = (0,2);
other1 = (0,0,1,3);
target = (1,2);
type = TTInterpolate;
},
{
horizontal = 1;
options = 4;
origin = (0,2);
other1 = (0,2,2,3);
target = (1,2);
type = TTInterpolate;
}
);
layerId = "83692D61-586C-413E-9B5A-1AF652750951";
shapes = (
{
closed = 1;
nodes = (
(409,0,l,{
de.kutilek.instantAxis.effective = (
409,
0
);
}),
(501,0,l,{
de.kutilek.instantAxis.effective = (
501,
0
);
}),
(156,560,l,{
de.kutilek.instantAxis.effective = (
156,
560
);
}),
(64,560,l,{
de.kutilek.instantAxis.effective = (
64,
560
);
})
);
},
{
closed = 1;
nodes = (
(247,308,l,{
de.kutilek.instantAxis.effective = (
247,
308
);
}),
(61,0,l,{
de.kutilek.instantAxis.effective = (
61,
0
);
}),
(145,0,l,{
de.kutilek.instantAxis.effective = (
145,
0
);
}),
(292,251,l,{
de.kutilek.instantAxis.effective = (
292,
251
);
})
);
},
{
closed = 1;
nodes = (
(309,251,l,{
de.kutilek.instantAxis.effective = (
309,
251
);
}),
(497,560,l,{
de.kutilek.instantAxis.effective = (
497,
560
);
}),
(413,560,l,{
de.kutilek.instantAxis.effective = (
413,
560
);
}),
(264,308,l,{
de.kutilek.instantAxis.effective = (
264,
308
);
})
);
}
);
width = 560;
}
);
unicode = 120;
},
{
glyphname = y;
lastChange = "2018-09-07 16:39:59 +0000";
layers = (
{
anchors = (
{
name = bottom;
pos = (280,0);
},
{
name = top;
pos = (280,560);
}
);
background = {
shapes = (
{
closed = 1;
nodes = (
(160,560,l),
(80,560,l),
(80,320,l),
(160,320,l)
);
},
{
closed = 1;
nodes = (
(400,320,l),
(480,320,l),
(480,560,l),
(400,560,l)
);
},
{
closed = 1;
nodes = (
(240,320,l),
(160,320,l),
(160,80,l),
(240,80,l)
);
},
{
closed = 1;
nodes = (
(320,80,l),
(400,80,l),
(400,320,l),
(320,320,l)
);
},
{
closed = 1;
nodes = (
(240,-80,l),
(320,-80,l),
(320,80,l),
(240,80,l)
);
},
{
closed = 1;
nodes = (
(80,-160,l),
(240,-160,l),
(240,-80,l),
(80,-80,l)
);
}
);
};
hints = (
{
horizontal = 1;
origin = (0,1);
type = TTSnap;
},
{
horizontal = 1;
origin = (0,18);
type = TTSnap;
},
{
horizontal = 1;
options = 4;
origin = (0,13);
target = (0,8);
type = TTStem;
}
);
layerId = "83692D61-586C-413E-9B5A-1AF652750951";
shapes = (
{
closed = 1;
nodes = (
(284,70,l),
(130,560,l),
(43,560,l),
(236,-18,l),
(236,0,l),
(225,-33,ls),
(210,-77,o),
(190,-90,o),
(146,-90,cs),
(80,-90,l),
(80,-150,l),
(102,-155,o),
(132,-160,o),
(158,-160,cs),
(227,-160,o),
(265,-141,o),
(295,-53,cs),
(504,560,l),
(426,560,l),
(260,70,l)
);
}
);
width = 560;
}
);
unicode = 121;
},
{
glyphname = z;
lastChange = "2018-09-07 16:40:16 +0000";
layers = (
{
anchors = (
{
name = bottom;
pos = (240,0);
},
{
name = top;
pos = (240,560);
}
);
background = {
shapes = (
{
ref = s;
}
);
};
hints = (
{
horizontal = 1;
options = 4;
origin = (0,11);
target = (0,2,0,4);
type = TTStem;
},
{
horizontal = 1;
options = 4;
origin = (0,5);
target = (0,8,0,10);
type = TTStem;
},
{
horizontal = 1;
options = 4;
origin = (0,8,0,10);
target = (0,4);
type = TTShift;
},
{
horizontal = 1;
options = 4;
origin = (0,2,0,4);
target = (0,10);
type = TTShift;
}
);
layerId = "83692D61-586C-413E-9B5A-1AF652750951";
shapes = (
{
closed = 1;
nodes = (
(418,0,l),
(418,72,l),
(125,72,l),
(150,60,l),
(414,500,l),
(414,560,l),
(68,560,l),
(68,488,l),
(376,488,l),
(326,500,l),
(62,60,l),
(62,0,l)
);
}
);
width = 480;
}
);
unicode = 122;
},
{
glyphname = x.hex;
lastChange = "2021-06-19 22:09:25 +0000";
layers = (
{
hints = (
{
horizontal = 1;
origin = (0,2);
type = TTSnap;
},
{
horizontal = 1;
origin = (2,2);
type = TTSnap;
},
{
horizontal = 1;
origin = (0,0);
type = TTSnap;
},
{
horizontal = 1;
origin = (1,2);
type = TTSnap;
},
{
horizontal = 1;
options = 4;
origin = (0,2);
other1 = (0,0,1,3);
target = (1,2);
type = TTInterpolate;
},
{
horizontal = 1;
options = 4;
origin = (0,2);
other1 = (0,2,2,3);
target = (1,2);
type = TTInterpolate;
}
);
layerId = "83692D61-586C-413E-9B5A-1AF652750951";
shapes = (
{
closed = 1;
nodes = (
(407,0,l,{
de.kutilek.instantAxis.effective = (
409,
0
);
}),
(503,0,l,{
de.kutilek.instantAxis.effective = (
501,
0
);
}),
(158,480,l,{
de.kutilek.instantAxis.effective = (
156,
560
);
}),
(62,480,l,{
de.kutilek.instantAxis.effective = (
64,
560
);
})
);
},
{
closed = 1;
nodes = (
(247,268,l,{
de.kutilek.instantAxis.effective = (
247,
308
);
}),
(61,0,l,{
de.kutilek.instantAxis.effective = (
61,
0
);
}),
(146,0,l,{
de.kutilek.instantAxis.effective = (
145,
0
);
}),
(293,211,l,{
de.kutilek.instantAxis.effective = (
292,
251
);
})
);
},
{
closed = 1;
nodes = (
(309,211,l,{
de.kutilek.instantAxis.effective = (
309,
251
);
}),
(497,480,l,{
de.kutilek.instantAxis.effective = (
497,
560
);
}),
(412,480,l,{
de.kutilek.instantAxis.effective = (
413,
560
);
}),
(263,268,l,{
de.kutilek.instantAxis.effective = (
264,
308
);
})
);
}
);
width = 560;
}
);
},
{
color = 3;
glyphname = x.prop;
lastChange = "2021-01-29 08:08:43 +0000";
layers = (
{
background = {
shapes = (
{
closed = 1;
nodes = (
(80,560,l),
(80,400,l),
(160,400,l),
(160,560,l)
);
},
{
closed = 1;
nodes = (
(400,400,l),
(480,400,l),
(480,560,l),
(400,560,l)
);
},
{
closed = 1;
nodes = (
(160,320,l),
(240,320,l),
(240,400,l),
(160,400,l)
);
},
{
closed = 1;
nodes = (
(400,320,l),
(400,400,l),
(320,400,l),
(320,320,l)
);
},
{
closed = 1;
nodes = (
(320,240,l),
(320,320,l),
(240,320,l),
(240,240,l)
);
},
{
closed = 1;
nodes = (
(240,160,l),
(240,240,l),
(160,240,l),
(160,160,l)
);
},
{
closed = 1;
nodes = (
(400,240,l),
(320,240,l),
(320,160,l),
(400,160,l)
);
},
{
closed = 1;
nodes = (
(80,0,l),
(160,0,l),
(160,160,l),
(80,160,l)
);
},
{
closed = 1;
nodes = (
(480,0,l),
(480,160,l),
(400,160,l),
(400,0,l)
);
}
);
};
layerId = "83692D61-586C-413E-9B5A-1AF652750951";
shapes = (
{
alignment = -1;
pos = (-20,0);
ref = x;
}
);
width = 520;
}
);
},
{
color = 0;
export = 0;
glyphname = eth;
lastChange = "2021-05-06 08:49:25 +0000";
layers = (
{
hints = (
{
horizontal = 1;
options = 4;
origin = (0,31);
target = (0,12);
type = TTStem;
},
{
horizontal = 1;
options = 4;
origin = (0,5);
target = (0,6);
type = TTStem;
},
{
horizontal = 1;
origin = (0,31);
other1 = (0,18);
target = (0,5);
type = TTInterpolate;
},
{
horizontal = 1;
options = 4;
origin = (0,18);
target = (0,25);
type = TTStem;
}
);
layerId = "83692D61-586C-413E-9B5A-1AF652750951";
shapes = (
{
closed = 1;
nodes = (
(408,-12,o),
(498,105,o),
(498,310,cs),
(498,548,o),
(396,685,o),
(143,730,c),
(131,665,l),
(332,620,o),
(410,540,o),
(410,317,cs),
(410,141,o),
(355,60,o),
(272,60,cs),
(189,60,o),
(147,131,o),
(147,242,cs),
(147,352,o),
(198,403,o),
(268,403,cs),
(328,403,o),
(382,363,o),
(429,304,c),
(464,335,l),
(412,401,o),
(353,475,o),
(247,475,cs),
(138,475,o),
(59,386,o),
(59,241,cs),
(59,96,o),
(151,-12,o),
(272,-12,cs)
);
}
);
width = 560;
}
);
unicode = 240;
},
{
export = 0;
glyphname = f.ital;
lastChange = "2020-07-28 21:33:25 +0000";
layers = (
{
anchors = (
{
name = bottom;
pos = (280,-160);
},
{
name = top;
pos = (280,800);
}
);
background = {
shapes = (
{
closed = 1;
nodes = (
(320,0,l),
(320,480,l),
(480,480,l),
(480,560,l),
(320,560,l),
(320,720,l),
(240,720,l),
(240,560,l),
(80,560,l),
(80,480,l),
(240,480,l),
(240,0,l)
);
},
{
closed = 1;
nodes = (
(480,720,l),
(480,800,l),
(320,800,l),
(320,720,l)
);
}
);
};
hints = (
{
horizontal = 1;
options = 4;
origin = (0,18);
target = (0,11);
type = TTStem;
},
{
horizontal = 1;
options = 4;
origin = (0,22);
target = (0,7);
type = TTShift;
},
{
horizontal = 1;
options = 4;
origin = (0,7);
target = (0,4);
type = TTStem;
},
{
horizontal = 1;
options = 4;
origin = (0,4);
target = (0,25);
type = TTShift;
},
{
horizontal = 1;
origin = (0,0);
type = TTSnap;
}
);
layerId = "83692D61-586C-413E-9B5A-1AF652750951";
shapes = (
{
closed = 1;
nodes = (
(148,-173,l),
(246,-125,o),
(314,-56,o),
(314,74,cs),
(314,488,l),
(490,488,l),
(490,560,l),
(314,560,l),
(314,650,ls),
(314,705,o),
(339,740,o),
(398,740,cs),
(424,740,o),
(454,734,o),
(478,726,c),
(495,794,l),
(465,804,o),
(429,812,o),
(390,812,cs),
(293,812,o),
(234,751,o),
(234,646,cs),
(234,560,l),
(74,560,l),
(74,488,l),
(234,488,l),
(234,71,ls),
(234,-20,o),
(192,-72,o),
(117,-114,c)
);
}
);
width = 560;
}
);
},
{
export = 0;
glyphname = g.ital;
lastChange = "2020-12-01 11:20:51 +0000";
layers = (
{
anchors = (
{
name = top;
pos = (290,560);
}
);
background = {
shapes = (
{
closed = 1;
nodes = (
(289,-8,o),
(341,30,o),
(383,84,cs),
(400,106,l),
(400,0,l),
(480,0,l),
(480,800,l),
(400,800,l),
(400,562,l),
(369,567,o),
(336,571,o),
(303,571,cs),
(166,571,o),
(54,459,o),
(54,241,cs),
(54,81,o),
(114,-8,o),
(222,-8,cs)
);
},
{
closed = 1;
nodes = (
(174,64,o),
(138,113,o),
(138,247,cs),
(138,421,o),
(205,503,o),
(318,503,cs),
(346,503,o),
(378,499,o),
(400,494,c),
(400,194,l),
(361,146,ls),
(316,90,o),
(280,64,o),
(235,64,cs)
);
}
);
};
hints = (
{
horizontal = 1;
options = 4;
origin = (0,14);
target = (0,7);
type = TTStem;
},
{
horizontal = 1;
options = 4;
origin = (0,21);
target = (1,5);
type = TTStem;
},
{
horizontal = 1;
origin = (0,27);
type = TTSnap;
},
{
horizontal = 1;
options = 4;
origin = (0,27);
target = (1,13);
type = TTStem;
}
);
layerId = "83692D61-586C-413E-9B5A-1AF652750951";
shapes = (
{
closed = 1;
nodes = (
(289,72,o),
(341,110,o),
(383,164,cs),
(400,186,l),
(400,47,ls),
(400,-46,o),
(354,-96,o),
(257,-96,cs),
(195,-96,o),
(142,-75,o),
(86,-41,c),
(54,-100,l,{
de.kutilek.instantAxis = {
};
}),
(113,-138,o),
(186,-168,o),
(268,-168,cs),
(392,-168,o),
(480,-91,o),
(480,54,cs,{
de.kutilek.instantAxis = {
};
}),
(480,542,l),
(427,558,o),
(369,571,o),
(303,571,cs),
(168,571,o),
(54,470,o),
(54,281,cs,{
de.kutilek.instantAxis = {
};
}),
(54,147,o),
(114,72,o),
(222,72,cs)
);
},
{
closed = 1;
nodes = (
(174,144,o),
(138,182,o),
(138,287,cs,{
de.kutilek.instantAxis = {
};
}),
(138,430,o),
(206,503,o),
(318,503,cs),
(346,503,o),
(378,499,o),
(400,494,c),
(400,274,l,{
de.kutilek.instantAxis = {
};
}),
(361,226,ls),
(316,170,o),
(280,144,o),
(235,144,cs)
);
}
);
width = 560;
}
);
},
{
export = 0;
glyphname = germandbls.ital;
lastChange = "2020-07-28 21:32:32 +0000";
layers = (
{
anchors = (
{
name = top;
pos = (280,800);
}
);
background = {
shapes = (
{
closed = 1;
nodes = (
(160,720,l),
(160,640,l),
(320,640,l),
(320,720,l)
);
},
{
closed = 1;
nodes = (
(80,0,l),
(160,0,l),
(160,640,l),
(80,640,l)
);
},
{
closed = 1;
nodes = (
(400,640,l),
(320,640,l),
(320,400,l),
(400,400,l)
);
},
{
closed = 1;
nodes = (
(240,320,l),
(320,320,l),
(320,400,l),
(240,400,l)
);
},
{
closed = 1;
nodes = (
(320,240,l),
(400,240,l),
(400,320,l),
(320,320,l)
);
},
{
closed = 1;
nodes = (
(400,80,l),
(480,80,l),
(480,240,l),
(400,240,l)
);
},
{
closed = 1;
nodes = (
(240,0,l),
(400,0,l),
(400,80,l),
(240,80,l)
);
}
);
};
hints = (
{
horizontal = 1;
origin = (0,41);
target = up;
type = BottomGhost;
},
{
horizontal = 1;
origin = (0,37);
target = (0,6);
type = Stem;
},
{
horizontal = 1;
origin = (0,25);
target = (0,18);
type = Stem;
},
{
origin = (0,41);
target = (0,0);
type = Stem;
},
{
origin = (0,12);
target = (0,31);
type = Stem;
},
{
origin = (0,9);
target = (0,34);
type = Stem;
},
{
origin = (0,15);
target = (0,28);
type = Stem;
},
{
horizontal = 1;
options = 4;
origin = (0,37);
target = (0,6);
type = TTStem;
},
{
horizontal = 1;
options = 4;
origin = (0,25);
target = (0,18);
type = TTStem;
},
{
horizontal = 1;
origin = (0,45);
type = TTSnap;
},
{
horizontal = 1;
options = 4;
origin = (0,6);
other1 = (0,15,0);
target = (0,25);
type = TTInterpolate;
},
{
horizontal = 1;
options = 4;
origin = (0,6);
other1 = (0,34,0);
target = (0,25);
type = TTInterpolate;
},
{
horizontal = 1;
options = 4;
origin = (0,37);
other1 = (0,31,0);
target = (0,18);
type = TTInterpolate;
},
{
horizontal = 1;
options = 4;
origin = (0,37);
other1 = (0,12,0);
target = (0,18);
type = TTInterpolate;
}
);
layerId = "83692D61-586C-413E-9B5A-1AF652750951";
shapes = (
{
closed = 1;
nodes = (
(92,-125,o),
(160,-56,o),
(160,74,cs),
(160,613,ls),
(160,696,o),
(194,740,o),
(260,740,cs),
(331,740,o),
(361,695,o),
(361,624,cs),
(361,493,o),
(240,487,o),
(240,381,cs),
(240,226,o),
(435,266,o),
(435,151,cs),
(435,104,o),
(400,58,o),
(327,58,cs),
(298,58,o),
(276,64,o),
(249,74,c),
(228,18,l),
(263,2,o),
(296,-10,o),
(340,-10,cs),
(453,-10,o),
(518,70,o),
(518,148,cs),
(518,311,o),
(320,299,o),
(320,381,cs),
(320,445,o),
(443,502,o),
(443,633,cs),
(443,745,o),
(372,810,o),
(263,810,cs),
(154,810,o),
(80,740,o),
(80,612,cs),
(80,71,ls),
(80,-20,o),
(38,-72,o),
(-37,-114,c),
(-6,-173,l)
);
}
);
width = 560;
},
{
anchors = (
{
name = bottom;
pos = (280,0);
},
{
name = top;
pos = (280,560);
}
);
associatedMasterId = "83692D61-586C-413E-9B5A-1AF652750951";
background = {
shapes = (
{
closed = 1;
nodes = (
(160,720,l),
(160,640,l),
(320,640,l),
(320,720,l)
);
},
{
closed = 1;
nodes = (
(80,0,l),
(160,0,l),
(160,640,l),
(80,640,l)
);
},
{
closed = 1;
nodes = (
(400,640,l),
(320,640,l),
(320,400,l),
(400,400,l)
);
},
{
closed = 1;
nodes = (
(240,320,l),
(320,320,l),
(320,400,l),
(240,400,l)
);
},
{
closed = 1;
nodes = (
(320,240,l),
(400,240,l),
(400,320,l),
(320,320,l)
);
},
{
closed = 1;
nodes = (
(400,80,l),
(480,80,l),
(480,240,l),
(400,240,l)
);
},
{
closed = 1;
nodes = (
(240,0,l),
(400,0,l),
(400,80,l),
(240,80,l)
);
}
);
};
layerId = "3B98D931-674E-46C7-8A98-BD5F9F9D3E00";
name = "May 23 18, 14:38";
shapes = (
{
closed = 1;
nodes = (
(160,0,l),
(160,613,ls),
(160,696,o),
(194,740,o),
(260,740,cs),
(332,740,o),
(361,684,o),
(361,621,cs),
(361,524,o),
(301,469,o),
(240,402,c),
(348,345,o),
(435,292,o),
(435,179,cs),
(435,104,o),
(400,58,o),
(327,58,cs),
(298,58,o),
(276,64,o),
(249,74,c),
(228,18,l),
(263,2,o),
(296,-10,o),
(340,-10,cs),
(453,-10,o),
(518,70,o),
(518,174,cs),
(518,311,o),
(413,383,o),
(339,418,c),
(384,458,o),
(443,523,o),
(443,625,cs),
(443,736,o),
(365,810,o),
(263,810,cs),
(154,810,o),
(80,740,o),
(80,612,cs),
(80,0,l)
);
}
);
width = 560;
}
);
},
{
color = 8;
export = 0;
glyphname = k.mono;
lastChange = "2021-01-29 09:58:47 +0000";
layers = (
{
anchors = (
{
name = bottom;
pos = (280,0);
},
{
name = top;
pos = (280,800);
}
);
background = {
shapes = (
{
closed = 1;
nodes = (
(190,800,l),
(110,800,l),
(110,0,l),
(190,0,l)
);
},
{
closed = 1;
nodes = (
(488,560,l),
(393,560,l),
(143,265,l),
(223,265,l)
);
},
{
closed = 1;
nodes = (
(394,0,l),
(500,0,l),
(236,320,l),
(139,320,l)
);
}
);
};
hints = (
{
horizontal = 1;
origin = (0,0);
type = TTSnap;
},
{
horizontal = 1;
origin = (0,3);
type = TTSnap;
},
{
horizontal = 1;
origin = (2,0);
type = TTSnap;
},
{
horizontal = 1;
origin = (1,1);
type = TTSnap;
},
{
horizontal = 1;
options = 4;
origin = (2,0);
other1 = (0,0,1,2);
target = (1,1);
type = TTInterpolate;
},
{
horizontal = 1;
options = 4;
origin = (2,0);
other1 = (0,0,2,0);
target = (1,1);
type = TTInterpolate;
}
);
layerId = "83692D61-586C-413E-9B5A-1AF652750951";
shapes = (
{
closed = 1;
nodes = (
(160,800,l),
(80,800,l),
(80,0,l),
(160,0,l)
);
},
{
closed = 1;
nodes = (
(488,560,l),
(393,560,l),
(106,265,l),
(196,265,l)
);
},
{
closed = 1;
nodes = (
(394,0,l),
(500,0,l),
(208,320,l),
(109,320,l)
);
}
);
width = 560;
}
);
},
{
color = 8;
export = 0;
glyphname = r.mono;
lastChange = "2021-05-06 08:50:03 +0000";
layers = (
{
anchors = (
{
name = bottom;
pos = (200,0);
},
{
name = top;
pos = (306,560);
}
);
background = {
shapes = (
{
closed = 1;
nodes = (
(240,70,l),
(240,566,l),
(204,566,l),
(10,556,l),
(10,496,l),
(160,496,l),
(160,70,l),
(0,60,l),
(0,0,l),
(400,0,l),
(400,60,l)
);
}
);
};
hints = (
{
horizontal = 1;
origin = (0,9);
type = TTSnap;
},
{
horizontal = 1;
options = 4;
origin = (0,22);
target = (0,15);
type = TTStem;
},
{
horizontal = 1;
options = 4;
origin = (0,5);
target = (0,8);
type = TTStem;
}
);
layerId = "83692D61-586C-413E-9B5A-1AF652750951";
shapes = (
{
closed = 1;
nodes = (
(347,568,o),
(298,518,o),
(256,458,cs),
(240,435,l),
(240,566,l),
(204,566,l),
(50,556,l),
(50,496,l),
(160,496,l),
(160,0,l),
(240,0,l),
(240,347,l),
(275,393,ls),
(320,452,o),
(359,490,o),
(421,490,cs),
(442,490,o),
(464,486,o),
(478,483,c),
(491,562,l),
(475,565,o),
(453,568,o),
(429,568,cs)
);
}
);
width = 560;
}
);
},
{
color = 3;
export = 0;
glyphname = c.prop;
lastChange = "2021-01-29 08:15:16 +0000";
layers = (
{
anchors = (
{
name = bottom;
pos = (250,0);
},
{
name = top;
pos = (250,560);
}
);
background = {
shapes = (
{
closed = 1;
nodes = (
(460,273,l),
(484,446,o),
(417,568,o),
(277,568,cs),
(152,568,o),
(60,474,o),
(60,280,cs),
(60,72,o),
(160,-10,o),
(298,-10,cs),
(356,-10,o),
(407,6,o),
(453,25,c),
(433,90,l),
(396,76,o),
(352,62,o),
(303,62,cs),
(194,62,o),
(142,134,o),
(142,280,cs),
(142,412,o),
(179,498,o),
(273,498,cs),
(352,498,o),
(386,433,o),
(384,343,c)
);
}
);
};
hints = (
{
horizontal = 1;
options = 4;
origin = (0,3);
target = (0,22);
type = TTStem;
},
{
horizontal = 1;
options = 4;
origin = (0,9);
target = (0,16);
type = TTStem;
}
);
layerId = "83692D61-586C-413E-9B5A-1AF652750951";
shapes = (
{
closed = 1;
nodes = (
(439,514,l,{
de.kutilek.instantAxis.effective = (
439,
514
);
}),
(399,541,o,{
de.kutilek.instantAxis.effective = (
399,
541
);
}),
(340,568,o,{
de.kutilek.instantAxis.effective = (
340,
568
);
}),
(271,568,cs,{
de.kutilek.instantAxis.effective = (
271,
568
);
}),
(145,568,o,{
de.kutilek.instantAxis.effective = (
145,
568
);
}),
(60,474,o,{
de.kutilek.instantAxis.effective = (
60,
474
);
}),
(60,280,cs,{
de.kutilek.instantAxis.effective = (
60,
280
);
}),
(60,72,o,{
de.kutilek.instantAxis.effective = (
60,
72
);
}),
(152,-10,o,{
de.kutilek.instantAxis.effective = (
152,
-10
);
}),
(280,-10,cs,{
de.kutilek.instantAxis.effective = (
280,
-10
);
}),
(335,-10,o,{
de.kutilek.instantAxis.effective = (
335,
-10
);
}),
(382,5,o,{
de.kutilek.instantAxis.effective = (
382,
5
);
}),
(427,26,c,{
de.kutilek.instantAxis.effective = (
427,
26
);
}),
(405,89,l,{
de.kutilek.instantAxis.effective = (
405,
89
);
}),
(369,75,o,{
de.kutilek.instantAxis.effective = (
369,
75
);
}),
(333,62,o,{
de.kutilek.instantAxis.effective = (
333,
62
);
}),
(288,62,cs,{
de.kutilek.instantAxis.effective = (
288,
62
);
}),
(188,62,o,{
de.kutilek.instantAxis.effective = (
188,
62
);
}),
(142,134,o,{
de.kutilek.instantAxis.effective = (
142,
134
);
}),
(142,280,cs,{
de.kutilek.instantAxis.effective = (
142,
280
);
}),
(142,412,o,{
de.kutilek.instantAxis.effective = (
142,
412
);
}),
(174,496,o,{
de.kutilek.instantAxis.effective = (
174,
496
);
}),
(270,496,cs,{
de.kutilek.instantAxis.effective = (
270,
496
);
}),
(324,496,o,{
de.kutilek.instantAxis.effective = (
324,
496
);
}),
(367,475,o,{
de.kutilek.instantAxis.effective = (
367,
475
);
}),
(405,452,c,{
de.kutilek.instantAxis.effective = (
405,
452
);
})
);
}
);
width = 500;
}
);
},
{
color = 3;
export = 0;
glyphname = idotless.prop;
lastChange = "2018-09-07 16:40:35 +0000";
layers = (
{
anchors = (
{
name = bottom;
pos = (240,0);
},
{
name = ogonek;
pos = (424,0);
},
{
name = top;
pos = (239,560);
}
);
background = {
shapes = (
{
closed = 1;
nodes = (
(282,661,o),
(316,695,o),
(316,737,cs),
(316,781,o),
(284,814,o),
(240,814,cs),
(196,814,o),
(163,780,o),
(163,737,cs),
(163,692,o),
(195,661,o),
(238,661,cs)
);
}
);
};
hints = (
{
horizontal = 1;
options = 4;
origin = (0,8);
target = (0,6);
type = TTStem;
},
{
horizontal = 1;
options = 4;
origin = (0,6);
target = (0,0);
type = TTShift;
},
{
horizontal = 1;
options = 4;
origin = (0,2);
target = (0,5);
type = TTStem;
}
);
layerId = "83692D61-586C-413E-9B5A-1AF652750951";
shapes = (
{
closed = 1;
nodes = (
(284,70,l),
(284,566,l),
(248,566,l),
(74,556,l),
(74,496,l),
(204,496,l),
(204,70,l),
(64,60,l),
(64,0,l),
(424,0,l),
(424,60,l)
);
}
);
width = 480;
}
);
},
{
color = 3;
export = 0;
glyphname = m.prop;
lastChange = "2018-09-07 16:40:47 +0000";
layers = (
{
anchors = (
{
name = bottom;
pos = (360,0);
},
{
name = top;
pos = (360,560);
}
);
background = {
shapes = (
{
closed = 1;
nodes = (
(427,414,ls),
(460,468,o),
(484,494,o),
(514,494,cs),
(548,494,o),
(560,463,o),
(560,407,cs),
(560,0,l),
(640,0,l),
(640,410,ls),
(640,515,o),
(602,568,o),
(533,568,cs),
(478,568,o),
(444,527,o),
(405,473,cs),
(362,414,l),
(400,371,l)
);
}
);
};
hints = (
{
horizontal = 1;
options = 4;
origin = (0,17);
target = (0,8);
type = TTStem;
},
{
horizontal = 1;
options = 4;
origin = (1,12);
target = (1,3);
type = TTStem;
},
{
horizontal = 1;
origin = (0,3);
type = TTSnap;
},
{
horizontal = 1;
origin = (0,12);
type = TTSnap;
},
{
horizontal = 1;
origin = (1,7);
type = TTSnap;
},
{
horizontal = 1;
origin = (0,0);
type = TTSnap;
}
);
layerId = "83692D61-586C-413E-9B5A-1AF652750951";
shapes = (
{
closed = 1;
nodes = (
(160,560,l),
(80,560,l),
(80,0,l),
(160,0,l),
(160,359,l),
(186,410,ls),
(214,465,o),
(238,494,o),
(271,494,cs),
(302,494,o),
(320,472,o),
(320,414,cs),
(320,0,l),
(400,0,l),
(400,417,ls),
(400,515,o),
(363,568,o),
(293,568,cs),
(240,568,o),
(204,532,o),
(171,475,cs),
(160,456,l)
);
},
{
closed = 1;
nodes = (
(426,410,ls),
(454,465,o),
(478,494,o),
(511,494,cs),
(542,494,o),
(560,472,o),
(560,413,cs),
(560,0,l),
(640,0,l),
(640,416,ls),
(640,515,o),
(603,568,o),
(533,568,cs),
(480,568,o),
(442,535,o),
(407,475,cs),
(356,386,l),
(400,359,l)
);
}
);
width = 720;
}
);
},
{
color = 9;
export = 0;
glyphname = a.sc;
lastChange = "2021-01-29 10:06:42 +0000";
layers = (
{
background = {
shapes = (
{
closed = 1;
nodes = (
(471,0,l),
(471,72,l),
(172,72,l),
(172,286,l),
(431,286,l),
(431,358,l),
(172,358,l),
(172,568,l),
(467,568,l),
(467,640,l),
(92,640,l),
(92,0,l)
);
}
);
};
hints = (
{
horizontal = 1;
place = (640, -20);
type = TTSnap;
},
{
horizontal = 1;
options = 4;
place = (0, 0);
type = TTShift;
},
{
horizontal = 1;
options = 8;
other1 = (0,7,1,1);
place = (640, 150);
type = TTInterpolate;
},
{
horizontal = 1;
options = 4;
place = (164, 72);
type = TTStem;
},
{
horizontal = 1;
options = 4;
other1 = (0,1,0,7);
place = (640, 150);
type = TTInterpolate;
}
);
layerId = "83692D61-586C-413E-9B5A-1AF652750951";
shapes = (
{
ref = A.hex;
}
);
width = 560;
}
);
},
{
color = 9;
export = 0;
glyphname = b.sc;
lastChange = "2021-01-29 10:06:42 +0000";
layers = (
{
background = {
shapes = (
{
closed = 1;
nodes = (
(471,0,l),
(471,72,l),
(172,72,l),
(172,286,l),
(431,286,l),
(431,358,l),
(172,358,l),
(172,568,l),
(467,568,l),
(467,640,l),
(92,640,l),
(92,0,l)
);
}
);
};
hints = (
{
horizontal = 1;
options = 4;
place = (0, 70);
type = TTStem;
},
{
horizontal = 1;
options = 4;
place = (640, 70);
type = TTStem;
},
{
horizontal = 1;
options = 8;
other1 = (1,1);
place = (0, 150);
type = TTInterpolate;
},
{
horizontal = 1;
options = 4;
place = (288, 72);
type = TTStem;
}
);
layerId = "83692D61-586C-413E-9B5A-1AF652750951";
shapes = (
{
ref = B.hex;
}
);
width = 560;
}
);
},
{
color = 9;
export = 0;
glyphname = c.sc;
lastChange = "2021-01-29 10:06:42 +0000";
layers = (
{
background = {
shapes = (
{
closed = 1;
nodes = (
(471,0,l),
(471,72,l),
(172,72,l),
(172,286,l),
(431,286,l),
(431,358,l),
(172,358,l),
(172,568,l),
(467,568,l),
(467,640,l),
(92,640,l),
(92,0,l)
);
}
);
};
hints = (
{
horizontal = 1;
options = 4;
place = (651, 72);
type = TTStem;
},
{
horizontal = 1;
options = 4;
place = (-11, 72);
type = TTStem;
}
);
layerId = "83692D61-586C-413E-9B5A-1AF652750951";
shapes = (
{
ref = C.hex;
}
);
width = 560;
}
);
},
{
color = 9;
export = 0;
glyphname = d.sc;
lastChange = "2021-05-06 08:30:52 +0000";
layers = (
{
background = {
shapes = (
{
closed = 1;
nodes = (
(471,0,l),
(471,72,l),
(172,72,l),
(172,286,l),
(431,286,l),
(431,358,l),
(172,358,l),
(172,568,l),
(467,568,l),
(467,640,l),
(92,640,l),
(92,0,l)
);
}
);
};
hints = (
{
horizontal = 1;
options = 4;
place = (640, 72);
type = TTStem;
},
{
horizontal = 1;
options = 4;
place = (0, 72);
type = TTStem;
}
);
layerId = "83692D61-586C-413E-9B5A-1AF652750951";
shapes = (
{
ref = D.hex;
}
);
width = 560;
}
);
},
{
color = 7;
export = 0;
glyphname = eth.sc;
lastChange = "2021-05-06 08:31:00 +0000";
layers = (
{
layerId = "83692D61-586C-413E-9B5A-1AF652750951";
shapes = (
{
ref = d.sc;
},
{
closed = 1;
nodes = (
(298,288,l),
(298,360,l),
(0,360,l),
(0,288,l)
);
}
);
width = 560;
}
);
},
{
color = 9;
export = 0;
glyphname = e.sc;
lastChange = "2021-01-29 10:06:42 +0000";
layers = (
{
hints = (
{
horizontal = 1;
options = 4;
place = (0, 72);
type = TTStem;
},
{
horizontal = 1;
options = 4;
place = (640, 72);
type = TTStem;
},
{
horizontal = 1;
options = 8;
other1 = (0,3);
place = (0, 150);
type = TTInterpolate;
},
{
horizontal = 1;
options = 4;
place = (286, 72);
type = TTStem;
}
);
layerId = "83692D61-586C-413E-9B5A-1AF652750951";
shapes = (
{
ref = E.hex;
}
);
width = 560;
},
{
associatedMasterId = "83692D61-586C-413E-9B5A-1AF652750951";
layerId = "E6CE487C-E1FC-470A-BAAF-A504782E6D1F";
name = "Jan 10 18, 17:22";
shapes = (
{
closed = 1;
nodes = (
(471,0,l),
(471,72,l),
(172,72,l),
(172,326,l),
(431,326,l),
(431,398,l),
(172,398,l),
(172,648,l),
(467,648,l),
(467,720,l),
(92,720,l),
(92,0,l)
);
}
);
width = 560;
}
);
},
{
color = 9;
export = 0;
glyphname = f.sc;
lastChange = "2021-01-29 10:06:42 +0000";
layers = (
{
background = {
shapes = (
{
closed = 1;
nodes = (
(471,0,l),
(471,72,l),
(172,72,l),
(172,286,l),
(431,286,l),
(431,358,l),
(172,358,l),
(172,568,l),
(467,568,l),
(467,640,l),
(92,640,l),
(92,0,l)
);
}
);
};
hints = (
{
horizontal = 1;
place = (0, 21);
type = TTSnap;
},
{
horizontal = 1;
options = 4;
place = (640, 72);
type = TTStem;
},
{
horizontal = 1;
options = 8;
other1 = (0,1);
place = (0, 150);
type = TTInterpolate;
},
{
horizontal = 1;
options = 4;
place = (274, 72);
type = TTStem;
}
);
layerId = "83692D61-586C-413E-9B5A-1AF652750951";
shapes = (
{
ref = F.hex;
}
);
width = 560;
}
);
},
{
color = 9;
export = 0;
glyphname = g.sc;
lastChange = "2021-01-29 09:15:58 +0000";
layers = (
{
anchors = (
{
name = bottom;
pos = (280,0);
},
{
name = top;
pos = (303,640);
}
);
hints = (
{
horizontal = 1;
options = 4;
origin = (0,25);
target = (0,6);
type = TTStem;
},
{
horizontal = 1;
options = 4;
origin = (0,19);
target = (0,12);
type = TTStem;
},
{
horizontal = 1;
origin = (0,25);
other1 = (1,2);
target = (0,19);
type = TTInterpolate;
},
{
horizontal = 1;
options = 4;
origin = (1,2);
target = (1,3);
type = TTStem;
}
);
layerId = "83692D61-586C-413E-9B5A-1AF652750951";
shapes = (
{
closed = 1;
nodes = (
(376,-11,o),
(431,4,o),
(480,25,c),
(457,94,l),
(410,74,o),
(365,61,o),
(315,61,cs),
(203,61,o),
(150,139,o),
(150,320,cs),
(150,528,o),
(221,579,o),
(312,579,cs),
(364,579,o),
(408,561,o),
(446,543,c),
(474,606,l),
(425,633,o),
(373,651,o),
(312,651,cs),
(155,651,o),
(68,543,o),
(68,320,cs),
(68,91,o),
(155,-11,o),
(308,-11,cs)
);
},
{
closed = 1;
nodes = (
(480,25,l),
(480,320,l),
(274,320,l),
(274,248,l),
(400,248,l),
(400,25,l)
);
}
);
width = 560;
}
);
},
{
color = 9;
export = 0;
glyphname = h.sc;
lastChange = "2021-05-10 22:03:04 +0000";
layers = (
{
anchors = (
{
name = bottom;
pos = (280,0);
},
{
name = top;
pos = (280,640);
}
);
hints = (
{
horizontal = 1;
options = 4;
origin = (0,0);
target = (0,3);
type = TTShift;
},
{
horizontal = 1;
options = 4;
origin = (0,6);
target = (0,9);
type = TTShift;
},
{
horizontal = 1;
options = 8;
origin = (0,0);
other1 = (0,1);
target = (0,6);
type = TTInterpolate;
},
{
horizontal = 1;
options = 4;
origin = (0,1);
target = (0,8);
type = TTStem;
}
);
layerId = "83692D61-586C-413E-9B5A-1AF652750951";
shapes = (
{
closed = 1;
nodes = (
(160,0,l),
(160,288,l),
(400,288,l),
(400,0,l),
(480,0,l),
(480,640,l),
(400,640,l),
(400,360,l),
(160,360,l),
(160,640,l),
(80,640,l),
(80,0,l)
);
}
);
width = 560;
}
);
},
{
color = 7;
export = 0;
glyphname = hbar.sc;
lastChange = "2021-05-06 08:51:54 +0000";
layers = (
{
layerId = "83692D61-586C-413E-9B5A-1AF652750951";
shapes = (
{
ref = h.sc;
},
{
closed = 1;
nodes = (
(560,488,l),
(560,560,l),
(0,560,l),
(0,488,l)
);
}
);
width = 560;
}
);
},
{
color = 9;
export = 0;
glyphname = i.sc;
lastChange = "2021-01-29 09:15:58 +0000";
layers = (
{
anchors = (
{
name = bottom;
pos = (240,0);
},
{
name = ogonek;
pos = (400,0);
},
{
name = top;
pos = (240,640);
}
);
hints = (
{
horizontal = 1;
options = 4;
origin = (0,11);
target = (0,9);
type = TTStem;
},
{
horizontal = 1;
options = 4;
origin = (0,9);
target = (0,2);
type = TTShift;
},
{
horizontal = 1;
options = 4;
origin = (0,6);
target = (0,8);
type = TTStem;
},
{
horizontal = 1;
options = 4;
origin = (0,8);
target = (0,3);
type = TTShift;
}
);
layerId = "83692D61-586C-413E-9B5A-1AF652750951";
shapes = (
{
closed = 1;
nodes = (
(400,0,l),
(400,64,l),
(280,72,l),
(280,568,l),
(400,576,l),
(400,640,l),
(80,640,l),
(80,576,l),
(200,568,l),
(200,72,l),
(80,64,l),
(80,0,l)
);
}
);
width = 480;
}
);
},
{
color = 9;
export = 0;
glyphname = j.sc;
lastChange = "2021-01-29 09:15:58 +0000";
layers = (
{
anchors = (
{
name = bottom;
pos = (200,0);
},
{
name = top;
pos = (256,640);
}
);
hints = (
{
horizontal = 1;
options = 4;
origin = (0,17);
target = (0,10);
type = TTStem;
},
{
horizontal = 1;
options = 4;
origin = (0,3);
target = (0,6);
type = TTStem;
}
);
layerId = "83692D61-586C-413E-9B5A-1AF652750951";
shapes = (
{
closed = 1;
nodes = (
(331,-12,o,{
de.kutilek.instantAxis.effective = (
331,
-12
);
}),
(408,69,o,{
de.kutilek.instantAxis.effective = (
408,
69
);
}),
(408,203,cs,{
de.kutilek.instantAxis.effective = (
408,
203
);
}),
(408,640,l,{
de.kutilek.instantAxis.effective = (
408,
640
);
}),
(104,640,l,{
de.kutilek.instantAxis.effective = (
104,
640
);
}),
(104,568,l,{
de.kutilek.instantAxis.effective = (
104,
568
);
}),
(328,568,l,{
de.kutilek.instantAxis.effective = (
328,
568
);
}),
(328,198,ls,{
de.kutilek.instantAxis.effective = (
328,
198
);
}),
(328,106,o,{
de.kutilek.instantAxis.effective = (
328,
106
);
}),
(285,60,o,{
de.kutilek.instantAxis.effective = (
285,
60
);
}),
(215,60,cs,{
de.kutilek.instantAxis.effective = (
215,
60
);
}),
(160,60,o,{
de.kutilek.instantAxis.effective = (
160,
60
);
}),
(121,94,o,{
de.kutilek.instantAxis.effective = (
121,
94
);
}),
(82,144,c,{
de.kutilek.instantAxis.effective = (
82,
144
);
}),
(27,100,l,{
de.kutilek.instantAxis.effective = (
27,
100
);
}),
(79,29,o,{
de.kutilek.instantAxis.effective = (
79,
29
);
}),
(135,-12,o,{
de.kutilek.instantAxis.effective = (
135,
-12
);
}),
(218,-12,cs,{
de.kutilek.instantAxis.effective = (
218,
-12
);
})
);
}
);
width = 480;
}
);
},
{
color = 9;
export = 0;
glyphname = k.sc;
lastChange = "2021-01-29 09:15:58 +0000";
layers = (
{
anchors = (
{
name = bottom;
pos = (260,0);
},
{
name = top;
pos = (260,640);
}
);
hints = (
{
horizontal = 1;
options = 4;
origin = (0,3);
target = (2,0);
type = TTShift;
},
{
horizontal = 1;
options = 4;
origin = (0,0);
target = (1,1);
type = TTShift;
}
);
layerId = "83692D61-586C-413E-9B5A-1AF652750951";
shapes = (
{
closed = 1;
nodes = (
(160,640,l),
(80,640,l),
(80,0,l),
(160,0,l)
);
},
{
closed = 1;
nodes = (
(473,640,l),
(381,640,l),
(133,313,l),
(217,313,l)
);
},
{
closed = 1;
nodes = (
(389,0,l),
(489,0,l),
(227,341,l),
(135,341,l)
);
}
);
width = 520;
}
);
},
{
color = 9;
export = 0;
glyphname = l.sc;
lastChange = "2021-01-29 09:15:58 +0000";
layers = (
{
anchors = (
{
name = bottom;
pos = (240,0);
},
{
name = center;
pos = (120,320);
},
{
name = top;
pos = (130,640);
},
{
name = topright;
pos = (160,640);
}
);
hints = (
{
horizontal = 1;
options = 4;
origin = (0,5);
target = (0,2);
type = TTStem;
},
{
horizontal = 1;
origin = (0,3);
type = TTSnap;
}
);
layerId = "83692D61-586C-413E-9B5A-1AF652750951";
shapes = (
{
closed = 1;
nodes = (
(440,0,l),
(440,72,l),
(160,72,l),
(160,640,l),
(80,640,l),
(80,0,l)
);
}
);
width = 480;
}
);
},
{
color = 9;
export = 0;
glyphname = m.sc;
lastChange = "2021-01-29 09:15:58 +0000";
layers = (
{
anchors = (
{
name = bottom;
pos = (360,0);
},
{
name = top;
pos = (360,640);
}
);
hints = (
{
horizontal = 1;
origin = (2,3);
type = TTSnap;
},
{
horizontal = 1;
origin = (3,3);
type = TTSnap;
},
{
horizontal = 1;
origin = (0,2);
type = TTSnap;
},
{
horizontal = 1;
origin = (2,1);
type = TTSnap;
},
{
horizontal = 1;
origin = (1,1);
type = TTSnap;
},
{
horizontal = 1;
options = 4;
origin = (2,3);
other1 = (0,3,2,1);
target = (0,2);
type = TTInterpolate;
},
{
horizontal = 1;
options = 4;
origin = (2,3);
other1 = (1,1,3,2);
target = (0,2);
type = TTInterpolate;
},
{
horizontal = 1;
options = 4;
origin = (2,3);
other1 = (2,3,3,0);
target = (0,2);
type = TTInterpolate;
}
);
layerId = "83692D61-586C-413E-9B5A-1AF652750951";
shapes = (
{
closed = 1;
nodes = (
(122,640,l),
(72,0,l),
(148,0,l),
(198,640,l)
);
},
{
closed = 1;
nodes = (
(522,640,l),
(572,0,l),
(648,0,l),
(598,640,l)
);
},
{
closed = 1;
nodes = (
(163,640,l),
(309,0,l),
(387,0,l),
(241,640,l)
);
},
{
closed = 1;
nodes = (
(339,0,l),
(411,0,l),
(557,640,l),
(485,640,l)
);
}
);
width = 720;
}
);
},
{
color = 9;
export = 0;
glyphname = n.sc;
lastChange = "2021-01-29 09:15:58 +0000";
layers = (
{
anchors = (
{
name = bottom;
pos = (280,0);
},
{
name = top;
pos = (280,640);
}
);
background = {
shapes = (
{
closed = 1;
nodes = (
(154,0,l),
(154,482,l),
(414,0,l),
(480,0,l),
(480,640,l),
(406,640,l),
(406,208,l),
(169,640,l),
(80,640,l),
(80,0,l)
);
}
);
};
hints = (
{
horizontal = 1;
origin = (0,0);
type = TTSnap;
},
{
horizontal = 1;
origin = (0,2);
type = TTSnap;
},
{
horizontal = 1;
origin = (0,5);
type = TTSnap;
},
{
horizontal = 1;
origin = (0,7);
type = TTSnap;
},
{
horizontal = 1;
options = 4;
origin = (0,0);
other1 = (0,1);
target = (0,7);
type = TTInterpolate;
},
{
horizontal = 1;
options = 4;
origin = (0,0);
other1 = (0,6);
target = (0,7);
type = TTInterpolate;
}
);
layerId = "83692D61-586C-413E-9B5A-1AF652750951";
shapes = (
{
closed = 1;
nodes = (
(154,0,l),
(154,490,l),
(410,0,l),
(480,0,l),
(480,640,l),
(406,640,l),
(406,181,l),
(165,640,l),
(80,640,l),
(80,0,l)
);
}
);
width = 560;
}
);
},
{
color = 9;
export = 0;
glyphname = o.sc;
lastChange = "2021-01-29 09:15:58 +0000";
layers = (
{
anchors = (
{
name = bottom;
pos = (280,0);
},
{
name = center;
pos = (280,320);
},
{
name = ogonek;
pos = (342,0);
},
{
name = top;
pos = (280,640);
},
{
name = topleft;
pos = (20,640);
},
{
name = topright;
pos = (540,640);
}
);
hints = (
{
horizontal = 1;
options = 4;
origin = (0,5);
target = (1,5);
type = TTStem;
},
{
horizontal = 1;
options = 4;
origin = (0,11);
target = (1,11);
type = TTStem;
}
);
layerId = "83692D61-586C-413E-9B5A-1AF652750951";
shapes = (
{
closed = 1;
nodes = (
(415,-10,o),
(506,100,o),
(506,320,cs),
(506,533,o),
(441,650,o),
(280,650,cs),
(133,650,o),
(54,537,o),
(54,320,cs),
(54,92,o),
(133,-10,o),
(280,-10,cs)
);
},
{
closed = 1;
nodes = (
(191,60,o),
(138,127,o),
(138,320,cs),
(138,514,o),
(182,580,o),
(280,580,cs),
(379,580,o),
(422,510,o),
(422,320,cs),
(422,128,o),
(371,60,o),
(280,60,cs)
);
}
);
width = 560;
}
);
},
{
color = 9;
export = 0;
glyphname = p.sc;
lastChange = "2021-01-29 09:15:58 +0000";
layers = (
{
anchors = (
{
name = bottom;
pos = (280,0);
},
{
name = top;
pos = (280,640);
}
);
hints = (
{
horizontal = 1;
origin = (0,0);
type = TTSnap;
},
{
horizontal = 1;
options = 4;
origin = (0,10);
target = (1,1);
type = TTStem;
},
{
horizontal = 1;
origin = (0,0);
other1 = (0,4);
target = (0,10);
type = TTInterpolate;
},
{
horizontal = 1;
options = 4;
origin = (0,4);
target = (1,7);
type = TTStem;
}
);
layerId = "83692D61-586C-413E-9B5A-1AF652750951";
shapes = (
{
closed = 1;
nodes = (
(160,0,l),
(160,212,l),
(185,209,o),
(210,208,o),
(231,208,cs),
(396,208,o),
(476,298,o),
(476,426,cs),
(476,557,o),
(400,640,o),
(242,640,cs),
(80,640,l),
(80,0,l)
);
},
{
closed = 1;
nodes = (
(160,568,l),
(244,568,ls),
(351,568,o),
(392,512,o),
(392,422,cs),
(392,328,o),
(352,280,o),
(227,280,cs),
(210,280,o),
(188,281,o),
(160,283,c)
);
}
);
width = 560;
}
);
},
{
color = 0;
export = 0;
glyphname = thorn.sc;
lastChange = "2021-05-06 08:33:49 +0000";
layers = (
{
layerId = "83692D61-586C-413E-9B5A-1AF652750951";
shapes = (
{
closed = 1;
nodes = (
(160,0,l),
(160,212,l),
(185,209,o),
(210,208,o),
(231,208,cs),
(396,208,o),
(476,298,o),
(476,426,cs),
(476,557,o),
(400,640,o),
(242,640,cs),
(80,640,l),
(80,0,l)
);
},
{
closed = 1;
nodes = (
(160,568,l),
(244,568,ls),
(351,568,o),
(392,512,o),
(392,422,cs),
(392,328,o),
(352,280,o),
(227,280,cs),
(210,280,o),
(188,281,o),
(160,283,c)
);
}
);
width = 560;
}
);
},
{
color = 9;
export = 0;
glyphname = q.sc;
lastChange = "2021-01-29 09:15:58 +0000";
layers = (
{
hints = (
{
horizontal = 1;
options = 4;
origin = (0,13);
target = (0,6);
type = TTStem;
}
);
layerId = "83692D61-586C-413E-9B5A-1AF652750951";
shapes = (
{
closed = 1;
nodes = (
(431,-164,o),
(459,-159,o),
(484,-150,c),
(474,-86,l),
(448,-90,o),
(429,-92,o),
(410,-92,cs),
(349,-92,o),
(318,-62,o),
(314,9,c),
(238,3,l),
(253,-115,o),
(309,-164,o),
(394,-164,c)
);
},
{
ref = o.sc;
}
);
width = 560;
}
);
},
{
color = 9;
export = 0;
glyphname = r.sc;
lastChange = "2021-01-29 09:15:58 +0000";
layers = (
{
anchors = (
{
name = bottom;
pos = (280,0);
},
{
name = top;
pos = (262,640);
}
);
hints = (
{
horizontal = 1;
options = 4;
origin = (0,10);
target = (2,1);
type = TTStem;
},
{
horizontal = 1;
origin = (0,0);
other1 = (0,2,1,3);
target = (0,10);
type = TTInterpolate;
},
{
horizontal = 1;
options = 4;
origin = (0,2,1,3);
target = (2,7);
type = TTStem;
},
{
horizontal = 1;
options = 4;
origin = (0,2,1,3);
other1 = (0,7,1,1);
target = (0,10);
type = TTInterpolate;
},
{
horizontal = 1;
options = 4;
origin = (0,0);
target = (1,3);
type = TTShift;
}
);
layerId = "83692D61-586C-413E-9B5A-1AF652750951";
shapes = (
{
closed = 1;
nodes = (
(160,0,l),
(160,260,l),
(244,260,l),
(244,264,l),
(253,264,ls),
(403,264,o),
(476,341,o),
(476,452,cs),
(476,567,o),
(400,640,o),
(242,640,cs),
(80,640,l),
(80,0,l)
);
},
{
closed = 1;
nodes = (
(497,0,l),
(302,291,l),
(215,291,l),
(398,0,l)
);
},
{
closed = 1;
nodes = (
(160,568,l),
(244,568,ls),
(351,568,o),
(392,522,o),
(392,448,cs),
(392,371,o),
(350,332,o),
(253,332,cs),
(160,332,l)
);
}
);
width = 560;
}
);
},
{
color = 9;
export = 0;
glyphname = s.sc;
lastChange = "2021-05-10 22:03:32 +0000";
layers = (
{
anchors = (
{
name = bottom;
pos = (206,0);
},
{
name = top;
pos = (245,640);
}
);
background = {
shapes = (
{
closed = 1;
nodes = (
(349,-9,o),
(417,71,o),
(417,154,cs),
(417,254,o),
(340,304,o),
(268,352,cs),
(205,391,o),
(146,428,o),
(146,491,cs),
(146,533,o),
(180,578,o),
(251,578,cs),
(294,578,o),
(339,566,o),
(388,543,c),
(417,603,l),
(379,624,o),
(315,650,o),
(243,650,cs),
(126,650,o),
(64,570,o),
(64,488,cs),
(64,395,o),
(140,344,o),
(212,295,cs),
(275,255,o),
(335,217,o),
(335,154,cs),
(335,98,o),
(288,63,o),
(214,63,cs),
(166,63,o),
(111,83,o),
(72,104,c),
(45,43,l),
(97,12,o),
(151,-9,o),
(219,-9,cs)
);
}
);
};
hints = (
{
horizontal = 1;
options = 4;
origin = (0,15);
target = (0,8);
type = TTStem;
},
{
horizontal = 1;
options = 4;
origin = (0,31);
target = (0,24);
type = TTStem;
},
{
horizontal = 1;
options = 4;
origin = (0,8);
other1 = (0,21,0);
target = (0,31);
type = TTInterpolate;
},
{
horizontal = 1;
options = 4;
origin = (0,15);
other1 = (0,5,0);
target = (0,24);
type = TTInterpolate;
}
);
layerId = "83692D61-586C-413E-9B5A-1AF652750951";
shapes = (
{
closed = 1;
nodes = (
(349,-9,o),
(417,71,o),
(417,157,cs),
(417,341,o),
(146,359,o),
(146,493,cs),
(146,535,o),
(180,578,o),
(251,578,cs),
(294,578,o),
(339,566,o),
(388,543,c),
(417,603,l),
(379,624,o),
(315,650,o),
(243,650,cs),
(126,650,o),
(64,570,o),
(64,490,cs),
(64,307,o),
(335,289,o),
(335,157,cs),
(335,98,o),
(288,63,o),
(214,63,cs),
(166,63,o),
(111,83,o),
(72,104,c),
(45,43,l),
(97,12,o),
(151,-9,o),
(219,-9,cs)
);
}
);
width = 480;
}
);
},
{
color = 9;
export = 0;
glyphname = t.sc;
lastChange = "2021-01-29 09:15:58 +0000";
layers = (
{
anchors = (
{
name = bottom;
pos = (280,0);
},
{
name = center;
pos = (280,320);
},
{
name = top;
pos = (280,640);
}
);
hints = (
{
horizontal = 1;
origin = (0,0);
type = TTSnap;
},
{
horizontal = 1;
options = 4;
origin = (0,4);
target = (0,6);
type = TTStem;
},
{
horizontal = 1;
options = 4;
origin = (0,6);
target = (0,1);
type = TTShift;
}
);
layerId = "83692D61-586C-413E-9B5A-1AF652750951";
shapes = (
{
closed = 1;
nodes = (
(320,0,l),
(320,568,l),
(496,568,l),
(496,640,l),
(64,640,l),
(64,568,l),
(240,568,l),
(240,0,l)
);
}
);
width = 560;
}
);
},
{
color = 9;
export = 0;
glyphname = u.sc;
lastChange = "2021-01-29 09:15:58 +0000";
layers = (
{
anchors = (
{
name = bottom;
pos = (280,0);
},
{
name = ogonek;
pos = (353,0);
},
{
name = top;
pos = (285,640);
},
{
name = topright;
pos = (477,640);
}
);
hints = (
{
horizontal = 1;
options = 4;
origin = (0,17);
target = (0,8);
type = TTStem;
},
{
horizontal = 1;
options = 4;
origin = (0,4);
target = (0,12);
type = TTShift;
}
);
layerId = "83692D61-586C-413E-9B5A-1AF652750951";
shapes = (
{
closed = 1;
nodes = (
(387,-12,o),
(477,55,o),
(477,202,cs),
(477,640,l),
(403,640,l),
(403,202,ls),
(403,110,o),
(360,62,o),
(282,62,cs),
(200,62,o),
(160,108,o),
(160,195,cs),
(160,640,l),
(80,640,l),
(80,193,ls),
(80,60,o),
(152,-12,o),
(280,-12,cs)
);
}
);
width = 560;
}
);
},
{
color = 9;
export = 0;
glyphname = v.sc;
lastChange = "2021-01-29 09:15:58 +0000";
layers = (
{
anchors = (
{
name = bottom;
pos = (280,0);
},
{
name = top;
pos = (280,640);
}
);
hints = (
{
horizontal = 1;
origin = (0,3);
type = TTSnap;
},
{
horizontal = 1;
options = 4;
origin = (0,1);
other1 = (0,1,0,7);
target = (0,3);
type = TTInterpolate;
},
{
horizontal = 1;
options = 4;
origin = (0,1);
target = (0,6);
type = TTShift;
}
);
layerId = "83692D61-586C-413E-9B5A-1AF652750951";
shapes = (
{
closed = 1;
nodes = (
(293,70,l),
(130,640,l),
(41,640,l),
(236,0,l),
(319,0,l),
(518,640,l),
(438,640,l),
(265,70,l)
);
}
);
width = 560;
}
);
},
{
color = 9;
export = 0;
glyphname = w.sc;
lastChange = "2021-01-29 09:15:58 +0000";
layers = (
{
anchors = (
{
name = bottom;
pos = (360,0);
},
{
name = top;
pos = (360,640);
}
);
hints = (
{
horizontal = 1;
options = 4;
origin = (1,1);
other1 = (1,1,2,3);
target = (2,0);
type = TTInterpolate;
},
{
horizontal = 1;
options = 4;
origin = (1,1,2,3);
target = (0,1,3,3);
type = TTShift;
},
{
horizontal = 1;
options = 4;
origin = (1,1);
other1 = (0,3,2,1);
target = (2,0);
type = TTInterpolate;
},
{
horizontal = 1;
options = 4;
origin = (1,1);
target = (2,2);
type = TTShift;
},
{
horizontal = 1;
options = 4;
origin = (2,2);
target = (3,2);
type = TTShift;
},
{
horizontal = 1;
options = 4;
origin = (2,0);
target = (0,3);
type = TTShift;
}
);
layerId = "83692D61-586C-413E-9B5A-1AF652750951";
shapes = (
{
closed = 1;
nodes = (
(514,0,l),
(410,640,l),
(334,640,l),
(438,0,l)
);
},
{
closed = 1;
nodes = (
(240,0,l),
(144,640,l),
(68,640,l),
(164,0,l)
);
},
{
closed = 1;
nodes = (
(276,0,l),
(380,640,l),
(310,640,l),
(206,0,l)
);
},
{
closed = 1;
nodes = (
(556,0,l),
(652,640,l),
(576,640,l),
(480,0,l)
);
}
);
width = 720;
}
);
},
{
color = 9;
export = 0;
glyphname = x.sc;
lastChange = "2021-01-29 09:15:58 +0000";
layers = (
{
anchors = (
{
name = bottom;
pos = (260,0);
},
{
name = top;
pos = (260,640);
}
);
hints = (
{
horizontal = 1;
options = 4;
origin = (0,3);
target = (1,0);
type = TTShift;
},
{
horizontal = 1;
options = 4;
origin = (0,1);
target = (2,2);
type = TTShift;
}
);
layerId = "83692D61-586C-413E-9B5A-1AF652750951";
shapes = (
{
closed = 1;
nodes = (
(482,0,l),
(140,640,l),
(51,640,l),
(393,0,l)
);
},
{
closed = 1;
nodes = (
(122,0,l),
(293,350,l),
(217,350,l),
(38,0,l)
);
},
{
closed = 1;
nodes = (
(304,320,l),
(478,640,l),
(394,640,l),
(228,320,l)
);
}
);
width = 520;
}
);
},
{
color = 9;
export = 0;
glyphname = y.sc;
lastChange = "2021-05-10 22:03:41 +0000";
layers = (
{
anchors = (
{
name = bottom;
pos = (240,0);
},
{
name = top;
pos = (245,640);
}
);
hints = (
{
horizontal = 1;
options = 4;
origin = (0,3);
target = (0,6);
type = TTShift;
},
{
horizontal = 1;
origin = (0,0);
type = TTSnap;
},
{
horizontal = 1;
options = 4;
origin = (0,3);
other1 = (0,8);
target = (0,0);
type = TTInterpolate;
},
{
horizontal = 1;
options = 4;
origin = (0,8);
target = (0,1);
type = TTShift;
},
{
horizontal = 1;
options = 4;
origin = (0,3);
other1 = (0,4,0,6);
target = (0,0);
type = TTInterpolate;
}
);
layerId = "83692D61-586C-413E-9B5A-1AF652750951";
shapes = (
{
closed = 1;
nodes = (
(280,0,l),
(280,280,l),
(472,640,l),
(388,640,l),
(224,320,l),
(266,320,l),
(106,640,l),
(14,640,l),
(200,280,l),
(200,0,l)
);
}
);
width = 480;
}
);
},
{
color = 9;
export = 0;
glyphname = z.sc;
lastChange = "2021-01-29 09:15:58 +0000";
layers = (
{
anchors = (
{
name = bottom;
pos = (240,0);
},
{
name = top;
pos = (245,640);
}
);
hints = (
{
horizontal = 1;
options = 4;
origin = (0,4);
target = (0,7);
type = TTStem;
},
{
horizontal = 1;
options = 4;
origin = (0,7);
target = (0,3);
type = TTShift;
},
{
horizontal = 1;
options = 4;
origin = (0,9);
target = (0,2);
type = TTStem;
},
{
horizontal = 1;
options = 4;
origin = (0,2);
target = (0,8);
type = TTShift;
}
);
layerId = "83692D61-586C-413E-9B5A-1AF652750951";
shapes = (
{
closed = 1;
nodes = (
(414,0,l),
(414,72,l),
(153,72,l),
(414,578,l),
(414,640,l),
(66,640,l),
(66,568,l),
(327,568,l),
(66,62,l),
(66,0,l)
);
}
);
width = 480;
}
);
},
{
color = 8;
export = 0;
glyphname = k.sc.mono;
lastChange = "2021-01-29 09:15:58 +0000";
layers = (
{
anchors = (
{
name = bottom;
pos = (280,0);
},
{
name = top;
pos = (280,640);
}
);
hints = (
{
horizontal = 1;
options = 4;
origin = (0,3);
other1 = (0,0,1,2);
target = (0,0);
type = TTInterpolate;
},
{
horizontal = 1;
options = 4;
origin = (0,3);
other1 = (0,0,2,0);
target = (0,0);
type = TTInterpolate;
},
{
horizontal = 1;
options = 4;
origin = (0,0);
target = (1,1);
type = TTShift;
},
{
horizontal = 1;
options = 4;
origin = (0,3);
target = (2,0);
type = TTShift;
}
);
layerId = "83692D61-586C-413E-9B5A-1AF652750951";
shapes = (
{
closed = 1;
nodes = (
(160,640,l),
(80,640,l),
(80,0,l),
(160,0,l)
);
},
{
closed = 1;
nodes = (
(503,640,l),
(407,640,l),
(129,313,l),
(215,313,l)
);
},
{
closed = 1;
nodes = (
(415,0,l),
(519,0,l),
(225,341,l),
(131,341,l)
);
}
);
width = 560;
}
);
},
{
color = 8;
export = 0;
glyphname = l.sc.mono;
lastChange = "2021-01-29 09:15:58 +0000";
layers = (
{
anchors = (
{
name = bottom;
pos = (260,0);
},
{
name = center;
pos = (120,320);
},
{
name = top;
pos = (130,640);
},
{
name = topright;
pos = (160,640);
}
);
hints = (
{
horizontal = 1;
options = 4;
origin = (0,5);
target = (0,2);
type = TTStem;
},
{
horizontal = 1;
origin = (0,3);
type = TTSnap;
}
);
layerId = "83692D61-586C-413E-9B5A-1AF652750951";
shapes = (
{
closed = 1;
nodes = (
(480,0,l,{
de.kutilek.instantAxis.effective = (
480,
0
);
}),
(480,72,l,{
de.kutilek.instantAxis.effective = (
480,
72
);
}),
(160,72,l,{
de.kutilek.instantAxis.effective = (
160,
72
);
}),
(160,640,l,{
de.kutilek.instantAxis.effective = (
160,
720
);
}),
(80,640,l,{
de.kutilek.instantAxis.effective = (
80,
720
);
}),
(80,0,l,{
de.kutilek.instantAxis.effective = (
80,
0
);
})
);
}
);
width = 560;
}
);
},
{
glyphname = Delta;
lastChange = "2021-05-06 08:45:49 +0000";
layers = (
{
anchors = (
{
name = bottom;
pos = (280,0);
},
{
name = top;
pos = (280,720);
}
);
hints = (
{
horizontal = 1;
origin = (0,4);
type = TTSnap;
},
{
horizontal = 1;
options = 4;
origin = (0,5);
target = (0,7,1,3);
type = TTStem;
},
{
horizontal = 1;
options = 4;
origin = (0,4);
target = (0,1,0,7);
type = TTShift;
}
);
layerId = "83692D61-586C-413E-9B5A-1AF652750951";
shapes = (
{
closed = 1;
nodes = (
(266,650,l),
(433,0,l),
(522,0,l),
(323,720,l),
(240,720,l),
(37,0,l),
(117,0,l),
(294,650,l)
);
},
{
closed = 1;
nodes = (
(80,0,l),
(480,0,l),
(480,72,l),
(80,72,l)
);
}
);
width = 560;
}
);
unicode = 916;
},
{
color = 1;
glyphname = mu;
lastChange = "2021-05-06 08:45:46 +0000";
layers = (
{
layerId = "83692D61-586C-413E-9B5A-1AF652750951";
shapes = (
{
closed = 1;
nodes = (
(160,-160,l),
(160,160,l),
(80,160,l),
(80,-160,l)
);
},
{
ref = u;
}
);
width = 560;
}
);
unicode = 956;
},
{
glyphname = zero;
lastChange = "2018-09-07 16:40:51 +0000";
layers = (
{
background = {
shapes = (
{
closed = 1;
nodes = (
(241,240,l),
(321,240,l),
(321,400,l),
(241,400,l)
);
}
);
};
hints = (
{
horizontal = 1;
options = 4;
origin = (0,5);
target = (1,5);
type = TTStem;
},
{
horizontal = 1;
options = 4;
origin = (0,11);
target = (1,11);
type = TTStem;
}
);
layerId = "83692D61-586C-413E-9B5A-1AF652750951";
shapes = (
{
closed = 1;
nodes = (
(411,-10,o),
(506,127,o),
(506,320,cs),
(506,521,o),
(435,650,o),
(280,650,cs),
(137,650,o),
(54,510,o),
(54,320,cs),
(54,119,o),
(137,-10,o),
(280,-10,cs)
);
},
{
closed = 1;
nodes = (
(193,60,o),
(138,151,o),
(138,320,cs),
(138,490,o),
(184,580,o),
(280,580,cs),
(378,580,o),
(422,494,o),
(422,320,cs),
(422,152,o),
(369,60,o),
(280,60,cs)
);
}
);
width = 560;
}
);
unicode = 48;
},
{
glyphname = one;
lastChange = "2018-09-07 16:41:02 +0000";
layers = (
{
hints = (
{
horizontal = 1;
options = 4;
origin = (0,8);
target = (0,6);
type = TTStem;
},
{
horizontal = 1;
options = 4;
origin = (0,6);
target = (0,0);
type = TTShift;
},
{
horizontal = 1;
options = 4;
origin = (0,2);
target = (0,5);
type = TTShift;
}
);
layerId = "83692D61-586C-413E-9B5A-1AF652750951";
shapes = (
{
closed = 1;
nodes = (
(332,70,l),
(332,652,l),
(284,652,l),
(80,589,l),
(95,521,l),
(252,567,l),
(252,70,l),
(92,60,l),
(92,0,l),
(492,0,l),
(492,60,l)
);
}
);
width = 560;
}
);
unicode = 49;
},
{
glyphname = two;
lastChange = "2018-09-07 16:41:11 +0000";
layers = (
{
background = {
shapes = (
{
closed = 1;
nodes = (
(478,0,l),
(478,80,l),
(146,80,l),
(178,71,l),
(414,246,o),
(464,345,o),
(464,453,cs),
(464,575,o),
(391,652,o),
(268,652,cs),
(187,652,o),
(126,618,o),
(69,570,c),
(109,514,l),
(147,543,o),
(203,580,o),
(262,580,cs),
(333,580,o),
(380,539,o),
(380,448,cs),
(380,338,o),
(295,235,o),
(78,71,c),
(78,0,l)
);
}
);
};
hints = (
{
horizontal = 1;
options = 4;
origin = (0,23);
target = (0,2,0,6);
type = TTStem;
},
{
horizontal = 1;
options = 4;
origin = (0,2,0,6);
target = (0,22);
type = TTShift;
},
{
horizontal = 1;
options = 4;
origin = (0,9);
target = (0,16);
type = TTStem;
}
);
layerId = "83692D61-586C-413E-9B5A-1AF652750951";
shapes = (
{
closed = 1;
nodes = (
(478,0,l),
(478,72,l),
(146,72,l),
(114,31,l),
(391,205,o),
(466,335,o),
(466,452,cs),
(466,571,o),
(391,652,o),
(265,652,cs),
(187,652,o),
(126,618,o),
(69,570,c),
(109,514,l),
(147,543,o),
(203,580,o),
(262,580,cs),
(337,580,o),
(380,533,o),
(380,446,cs),
(380,330,o),
(295,235,o),
(78,71,c),
(78,0,l)
);
}
);
width = 560;
}
);
unicode = 50;
},
{
glyphname = three;
lastChange = "2018-09-07 16:41:38 +0000";
layers = (
{
background = {
shapes = (
{
closed = 1;
nodes = (
(400,560,l),
(400,640,l),
(160,640,l),
(160,560,l)
);
},
{
closed = 1;
nodes = (
(320,-160,l),
(320,-80,l),
(80,-80,l),
(80,-160,l)
);
},
{
closed = 1;
nodes = (
(400,-80,l),
(400,0,l),
(320,0,l),
(320,-80,l)
);
},
{
closed = 1;
nodes = (
(320,240,l),
(320,320,l),
(160,320,l),
(160,240,l)
);
},
{
closed = 1;
nodes = (
(480,0,l),
(480,160,l),
(400,160,l),
(400,0,l)
);
},
{
closed = 1;
nodes = (
(400,160,l),
(400,240,l),
(320,240,l),
(320,160,l)
);
},
{
closed = 1;
nodes = (
(160,480,l),
(160,560,l),
(80,560,l),
(80,480,l)
);
},
{
closed = 1;
nodes = (
(400,320,l),
(400,400,l),
(320,400,l),
(320,320,l)
);
},
{
closed = 1;
nodes = (
(480,400,l),
(480,560,l),
(400,560,l),
(400,400,l)
);
}
);
};
hints = (
{
horizontal = 1;
options = 4;
origin = (0,37);
target = (0,36);
type = TTStem;
},
{
horizontal = 1;
options = 4;
origin = (0,14);
target = (0,21);
type = TTStem;
},
{
horizontal = 1;
origin = (0,37);
other1 = (0,30);
target = (0,14);
type = TTInterpolate;
},
{
horizontal = 1;
options = 4;
origin = (0,30);
target = (0,27);
type = TTStem;
},
{
horizontal = 1;
options = 4;
origin = (0,30);
other1 = (0,5,0,11);
target = (0,27);
type = TTInterpolate;
}
);
layerId = "83692D61-586C-413E-9B5A-1AF652750951";
shapes = (
{
closed = 1;
nodes = (
(355,-135,o),
(477,-28,o),
(477,108,cs),
(477,216,o),
(399,296,o),
(203,296,cs),
(158,296,l),
(158,268,l),
(173,268,ls),
(363,268,o),
(460,363,o),
(460,481,cs),
(460,578,o),
(385,652,o),
(270,652,cs),
(165,652,o),
(101,593,o),
(54,535,c),
(102,490,l),
(142,534,o),
(192,582,o),
(263,582,cs),
(334,582,o),
(374,535,o),
(374,466,cs),
(374,395,o),
(333,312,o),
(173,312,cs),
(148,312,l),
(148,240,l),
(203,240,ls),
(339,240,o),
(391,181,o),
(391,106,cs),
(391,-8,o),
(290,-72,o),
(71,-105,c),
(81,-170,l)
);
}
);
width = 560;
},
{
associatedMasterId = "83692D61-586C-413E-9B5A-1AF652750951";
background = {
shapes = (
{
closed = 1;
nodes = (
(400,560,l),
(400,640,l),
(160,640,l),
(160,560,l)
);
},
{
closed = 1;
nodes = (
(320,-160,l),
(320,-80,l),
(80,-80,l),
(80,-160,l)
);
},
{
closed = 1;
nodes = (
(400,-80,l),
(400,0,l),
(320,0,l),
(320,-80,l)
);
},
{
closed = 1;
nodes = (
(320,240,l),
(320,320,l),
(160,320,l),
(160,240,l)
);
},
{
closed = 1;
nodes = (
(480,0,l),
(480,160,l),
(400,160,l),
(400,0,l)
);
},
{
closed = 1;
nodes = (
(400,160,l),
(400,240,l),
(320,240,l),
(320,160,l)
);
},
{
closed = 1;
nodes = (
(160,480,l),
(160,560,l),
(80,560,l),
(80,480,l)
);
},
{
closed = 1;
nodes = (
(400,320,l),
(400,400,l),
(320,400,l),
(320,320,l)
);
},
{
closed = 1;
nodes = (
(480,400,l),
(480,560,l),
(400,560,l),
(400,400,l)
);
}
);
};
layerId = "F76A24FC-8BAD-4C26-88A9-A9F19A1ECB8E";
name = "Jan 24 18, 17:35";
shapes = (
{
closed = 1;
nodes = (
(369,-174,o),
(483,-85,o),
(483,69,cs),
(483,198,o),
(400,296,o),
(183,296,cs),
(174,296,l),
(174,265,l),
(185,265,ls),
(382,265,o),
(466,359,o),
(466,466,cs),
(466,571,o),
(391,652,o),
(265,652,cs),
(187,652,o),
(126,618,o),
(69,570,c),
(109,514,l),
(147,543,o),
(203,580,o),
(262,580,cs),
(337,580,o),
(380,533,o),
(380,466,cs),
(380,393,o),
(336,306,o),
(160,312,c),
(160,240,l),
(337,246,o),
(397,172,o),
(397,72,cs),
(397,-38,o),
(331,-102,o),
(199,-102,cs),
(162,-102,o),
(118,-95,o),
(86,-88,c),
(73,-155,l),
(108,-165,o),
(154,-174,o),
(215,-174,cs)
);
}
);
width = 560;
}
);
unicode = 51;
},
{
glyphname = four;
lastChange = "2018-09-07 16:42:14 +0000";
layers = (
{
background = {
shapes = (
{
closed = 1;
nodes = (
(320,640,l),
(240,640,l),
(240,480,l),
(320,480,l)
);
},
{
closed = 1;
nodes = (
(240,480,l),
(160,480,l),
(160,320,l),
(240,320,l)
);
},
{
closed = 1;
nodes = (
(400,320,l),
(320,320,l),
(320,80,l),
(80,80,l),
(80,160,l),
(0,160,l),
(0,0,l),
(320,0,l),
(320,-160,l),
(400,-160,l),
(400,0,l),
(480,0,l),
(480,80,l),
(400,80,l)
);
},
{
closed = 1;
nodes = (
(160,320,l),
(80,320,l),
(80,160,l),
(160,160,l)
);
}
);
};
hints = (
{
horizontal = 1;
origin = (0,14);
type = TTSnap;
},
{
horizontal = 1;
options = 4;
origin = (0,14);
target = (0,1);
type = TTShift;
},
{
horizontal = 1;
options = 4;
origin = (0,1);
target = (0,4);
type = TTStem;
},
{
horizontal = 1;
options = 4;
origin = (0,4);
target = (0,7);
type = TTShift;
},
{
horizontal = 1;
options = 4;
origin = (0,7);
target = (0,12);
type = TTShift;
},
{
horizontal = 1;
origin = (0,10);
type = TTSnap;
},
{
horizontal = 1;
origin = (0,6);
type = TTSnap;
}
);
layerId = "83692D61-586C-413E-9B5A-1AF652750951";
shapes = (
{
closed = 1;
nodes = (
(424,-80,l),
(424,80,l),
(504,80,l),
(504,150,l),
(424,150,l),
(424,375,l),
(344,375,l),
(344,150,l),
(124,150,l),
(122,131,l),
(353,640,l),
(271,640,l),
(44,131,l),
(44,80,l),
(344,80,l),
(344,-80,l)
);
}
);
width = 560;
},
{
associatedMasterId = "83692D61-586C-413E-9B5A-1AF652750951";
background = {
shapes = (
{
closed = 1;
nodes = (
(320,640,l),
(240,640,l),
(240,480,l),
(320,480,l)
);
},
{
closed = 1;
nodes = (
(240,480,l),
(160,480,l),
(160,320,l),
(240,320,l)
);
},
{
closed = 1;
nodes = (
(400,320,l),
(320,320,l),
(320,80,l),
(80,80,l),
(80,160,l),
(0,160,l),
(0,0,l),
(320,0,l),
(320,-160,l),
(400,-160,l),
(400,0,l),
(480,0,l),
(480,80,l),
(400,80,l)
);
},
{
closed = 1;
nodes = (
(160,320,l),
(80,320,l),
(80,160,l),
(160,160,l)
);
}
);
};
layerId = "DB0E6B6D-FE3A-4164-B69C-01AEC4AE1550";
name = "Dec 26 17, 15:06";
shapes = (
{
closed = 1;
nodes = (
(424,-160,l),
(424,0,l),
(504,0,l),
(504,70,l),
(424,70,l),
(424,295,l),
(344,295,l),
(344,70,l),
(124,70,l),
(122,51,l),
(389,640,l),
(307,640,l),
(44,51,l),
(44,0,l),
(344,0,l),
(344,-160,l)
);
}
);
width = 560;
}
);
unicode = 52;
},
{
glyphname = five;
lastChange = "2018-09-07 16:42:34 +0000";
layers = (
{
background = {
shapes = (
{
closed = 1;
nodes = (
(361,-135,o),
(483,-28,o),
(483,108,cs),
(483,233,o),
(405,354,o),
(209,336,cs),
(171,333,o),
(132,329,o),
(94,326,c),
(174,326,l),
(174,568,l),
(460,568,l),
(460,640,l),
(94,640,l),
(94,254,l),
(132,257,o),
(171,261,o),
(209,264,cs),
(344,277,o),
(397,188,o),
(397,106,cs),
(397,-8,o),
(296,-72,o),
(77,-105,c),
(87,-170,l)
);
}
);
};
hints = (
{
horizontal = 1;
options = 4;
origin = (0,13);
target = (0,10);
type = TTStem;
},
{
horizontal = 1;
options = 4;
origin = (0,24);
target = (0,23);
type = TTStem;
},
{
horizontal = 1;
origin = (0,13);
other1 = (0,17);
target = (0,24);
type = TTInterpolate;
},
{
horizontal = 1;
options = 4;
origin = (0,17);
target = (0,5);
type = TTStem;
}
);
layerId = "83692D61-586C-413E-9B5A-1AF652750951";
shapes = (
{
closed = 1;
nodes = (
(353,-135,o),
(475,-32,o),
(475,122,cs),
(475,238,o),
(401,337,o),
(231,337,cs),
(189,337,o),
(131,331,o),
(86,326,c),
(166,326,l),
(166,568,l),
(444,568,l),
(444,640,l),
(86,640,l),
(86,256,l),
(123,261,o),
(163,266,o),
(214,266,cs),
(336,266,o),
(389,193,o),
(389,118,cs),
(389,-12,o),
(288,-72,o),
(69,-105,c),
(79,-170,l)
);
}
);
width = 560;
}
);
unicode = 53;
},
{
glyphname = six;
lastChange = "2018-09-07 16:46:50 +0000";
layers = (
{
background = {
shapes = (
{
closed = 1;
nodes = (
(402,-12,o),
(490,85,o),
(490,228,cs),
(490,387,o),
(415,475,o),
(310,475,cs),
(206,475,o),
(147,401,o),
(95,335,c),
(130,304,l),
(177,363,o),
(231,403,o),
(289,403,cs),
(355,403,o),
(402,354,o),
(402,228,cs),
(402,121,o),
(363,60,o),
(283,60,cs),
(209,60,o),
(155,133,o),
(155,317,cs),
(155,548,o),
(231,620,o),
(428,665,c),
(416,730,l),
(167,685,o),
(67,556,o),
(67,310,cs),
(67,97,o),
(155,-12,o),
(283,-12,cs)
);
}
);
};
hints = (
{
horizontal = 1;
options = 4;
origin = (0,31);
target = (0,18);
type = TTStem;
},
{
horizontal = 1;
options = 4;
origin = (0,25);
target = (0,24);
type = TTStem;
},
{
horizontal = 1;
origin = (0,31);
other1 = (0,12);
target = (0,25);
type = TTInterpolate;
},
{
horizontal = 1;
options = 4;
origin = (0,12);
target = (0,5);
type = TTStem;
}
);
layerId = "83692D61-586C-413E-9B5A-1AF652750951";
shapes = (
{
closed = 1;
nodes = (
(406,-12,o),
(498,96,o),
(498,241,cs),
(498,386,o),
(419,475,o),
(310,475,cs),
(204,475,o),
(145,401,o),
(93,335,c),
(128,304,l),
(175,363,o),
(229,403,o),
(289,403,cs),
(359,403,o),
(410,352,o),
(410,242,cs),
(410,131,o),
(368,60,o),
(285,60,cs),
(202,60,o),
(147,141,o),
(147,317,cs),
(147,540,o),
(225,620,o),
(426,665,c),
(414,730,l),
(161,685,o),
(59,548,o),
(59,310,cs),
(59,105,o),
(149,-12,o),
(285,-12,cs)
);
}
);
width = 560;
}
);
unicode = 54;
},
{
glyphname = seven;
lastChange = "2018-09-07 16:47:00 +0000";
layers = (
{
background = {
shapes = (
{
closed = 1;
nodes = (
(80,640,l),
(80,560,l),
(400,560,l),
(400,400,l),
(480,400,l),
(480,640,l)
);
},
{
closed = 1;
nodes = (
(320,240,l),
(400,240,l),
(400,400,l),
(320,400,l)
);
},
{
closed = 1;
nodes = (
(240,80,l),
(320,80,l),
(320,240,l),
(240,240,l)
);
},
{
closed = 1;
nodes = (
(160,-160,l),
(240,-160,l),
(240,80,l),
(160,80,l)
);
}
);
};
hints = (
{
horizontal = 1;
options = 4;
origin = (0,4);
target = (0,7);
type = TTStem;
},
{
horizontal = 1;
origin = (0,0);
type = TTSnap;
},
{
horizontal = 1;
options = 4;
origin = (0,7);
target = (0,3);
type = TTShift;
}
);
layerId = "83692D61-586C-413E-9B5A-1AF652750951";
shapes = (
{
closed = 1;
nodes = (
(240,-160,l),
(274,136,o),
(349,327,o),
(480,570,c),
(480,640,l),
(80,640,l),
(80,560,l),
(393,560,l),
(290,363,o),
(198,172,o),
(160,-160,c)
);
}
);
width = 560;
}
);
unicode = 55;
},
{
glyphname = eight;
lastChange = "2021-05-10 22:04:20 +0000";
layers = (
{
background = {
shapes = (
{
closed = 1;
nodes = (
(400,640,l),
(400,720,l),
(160,720,l),
(160,640,l)
);
},
{
closed = 1;
nodes = (
(80,640,l),
(80,480,l),
(160,480,l),
(160,640,l)
);
},
{
closed = 1;
nodes = (
(400,480,l),
(480,480,l),
(480,640,l),
(400,640,l)
);
},
{
closed = 1;
nodes = (
(160,400,l),
(240,400,l),
(240,480,l),
(160,480,l)
);
},
{
closed = 1;
nodes = (
(400,400,l),
(400,480,l),
(320,480,l),
(320,400,l)
);
},
{
closed = 1;
nodes = (
(320,320,l),
(320,400,l),
(240,400,l),
(240,320,l)
);
},
{
closed = 1;
nodes = (
(160,320,l),
(160,240,l),
(240,240,l),
(240,320,l)
);
},
{
closed = 1;
nodes = (
(400,320,l),
(320,320,l),
(320,240,l),
(400,240,l)
);
},
{
closed = 1;
nodes = (
(80,240,l),
(80,80,l),
(160,80,l),
(160,240,l)
);
},
{
closed = 1;
nodes = (
(480,80,l),
(480,240,l),
(400,240,l),
(400,80,l)
);
},
{
closed = 1;
nodes = (
(160,80,l),
(160,0,l),
(400,0,l),
(400,80,l)
);
}
);
};
hints = (
{
horizontal = 1;
options = 4;
origin = (0,25);
target = (0,12);
type = TTStem;
},
{
horizontal = 1;
options = 4;
origin = (0,51);
target = (0,38);
type = TTStem;
},
{
horizontal = 1;
options = 4;
origin = (0,12);
other1 = (0,32,0,44);
target = (0,51);
type = TTInterpolate;
},
{
horizontal = 1;
options = 4;
origin = (0,25);
other1 = (0,6,0,18);
target = (0,38);
type = TTInterpolate;
},
{
horizontal = 1;
options = 4;
origin = (0,32,0,44);
other1 = (0,6,0,22);
target = (0,6,0,18);
type = TTInterpolate;
},
{
horizontal = 1;
options = 4;
origin = (0,32,0,44);
other1 = (0,32,0,48);
target = (0,6,0,18);
type = TTInterpolate;
}
);
layerId = "83692D61-586C-413E-9B5A-1AF652750951";
shapes = (
{
closed = 1;
nodes = (
(424,-10,o),
(504,75,o),
(504,162,cs),
(504,217,o),
(480,262,o),
(401,324,cs),
(218,466,ls),
(178,497,o),
(159,520,o),
(159,564,cs),
(159,620,o),
(202,659,o),
(278,659,cs),
(362,659,o),
(398,603,o),
(398,553,cs),
(398,483,o),
(347,446,o),
(288,396,c),
(335,350,l),
(418,415,o),
(482,463,o),
(482,553,cs),
(482,655,o),
(400,730,o),
(280,730,cs),
(156,730,o),
(75,654,o),
(75,560,cs),
(75,486,o),
(113,448,o),
(166,407,cs),
(351,263,ls),
(407,219,o),
(420,196,o),
(420,161,cs),
(420,103,o),
(370,62,o),
(278,62,cs),
(175,62,o),
(136,122,o),
(136,166,cs),
(136,238,o),
(185,286,o),
(279,336,c),
(228,386,l),
(141,336,o),
(52,273,o),
(52,164,cs),
(52,67,o),
(121,-10,o),
(278,-10,cs)
);
}
);
width = 560;
}
);
unicode = 56;
},
{
glyphname = nine;
lastChange = "2018-09-07 16:47:59 +0000";
layers = (
{
background = {
shapes = (
{
closed = 1;
nodes = (
(377,-118,o),
(485,21,o),
(485,302,cs),
(485,539,o),
(410,649,o),
(269,649,cs),
(149,649,o),
(62,547,o),
(62,399,cs),
(62,225,o),
(158,162,o),
(248,162,cs),
(344,162,o),
(405,230,o),
(458,296,c),
(422,333,l),
(375,274,o),
(321,234,o),
(263,234,cs),
(197,234,o),
(150,283,o),
(150,395,cs),
(150,509,o),
(193,577,o),
(269,577,cs),
(352,577,o),
(397,496,o),
(397,319,cs),
(397,34,o),
(308,-49,o),
(124,-101,c),
(138,-166,l)
);
}
);
};
hints = (
{
horizontal = 1;
options = 4;
origin = (0,5);
target = (0,24);
type = TTStem;
},
{
horizontal = 1;
options = 4;
origin = (0,31);
target = (0,30);
type = TTStem;
},
{
horizontal = 1;
origin = (0,5);
other1 = (0,11);
target = (0,31);
type = TTInterpolate;
},
{
horizontal = 1;
options = 4;
origin = (0,11);
target = (0,18);
type = TTStem;
}
);
layerId = "83692D61-586C-413E-9B5A-1AF652750951";
shapes = (
{
closed = 1;
nodes = (
(381,-118,o),
(491,29,o),
(491,302,cs),
(491,531,o),
(410,649,o),
(267,649,cs),
(139,649,o),
(52,543,o),
(52,401,cs),
(52,230,o),
(153,162,o),
(246,162,cs),
(344,162,o),
(405,230,o),
(458,296,c),
(422,333,l),
(375,274,o),
(321,234,o),
(263,234,cs),
(191,234,o),
(140,288,o),
(140,399,cs),
(140,504,o),
(187,577,o),
(267,577,cs),
(354,577,o),
(403,488,o),
(403,319,cs),
(403,42,o),
(312,-49,o),
(124,-101,c),
(138,-166,l)
);
}
);
width = 560;
}
);
unicode = 57;
},
{
glyphname = zero.zero;
lastChange = "2018-09-07 16:48:18 +0000";
layers = (
{
hints = (
{
horizontal = 1;
options = 4;
origin = (0,11);
target = (1,11);
type = TTStem;
},
{
horizontal = 1;
options = 4;
origin = (0,5);
target = (1,5);
type = TTStem;
},
{
horizontal = 1;
origin = (0,11);
other1 = (2,11);
target = (0,5);
type = TTInterpolate;
},
{
horizontal = 1;
options = 4;
origin = (2,11);
stem = -1;
target = (2,5);
type = TTStem;
}
);
layerId = "83692D61-586C-413E-9B5A-1AF652750951";
shapes = (
{
closed = 1;
nodes = (
(411,-10,o),
(506,127,o),
(506,320,cs),
(506,521,o),
(435,650,o),
(280,650,cs),
(137,650,o),
(54,510,o),
(54,320,cs),
(54,119,o),
(137,-10,o),
(280,-10,cs)
);
},
{
closed = 1;
nodes = (
(193,60,o),
(138,151,o),
(138,320,cs),
(138,490,o),
(184,580,o),
(280,580,cs),
(378,580,o),
(422,494,o),
(422,320,cs),
(422,152,o),
(369,60,o),
(280,60,cs)
);
},
{
closed = 1;
nodes = (
(313,260,o),
(338,286,o),
(338,320,cs),
(338,352,o),
(313,379,o),
(279,379,cs),
(244,379,o),
(220,353,o),
(220,320,cs),
(220,285,o),
(245,260,o),
(279,260,cs)
);
}
);
width = 560;
}
);
},
{
glyphname = .notdef;
lastChange = "2018-09-10 14:20:33 +0000";
layers = (
{
hints = (
{
horizontal = 1;
options = 4;
origin = (0,3);
target = (1,3);
type = TTStem;
},
{
horizontal = 1;
options = 4;
origin = (0,2);
target = (1,0);
type = TTStem;
}
);
layerId = "83692D61-586C-413E-9B5A-1AF652750951";
shapes = (
{
closed = 1;
nodes = (
(480,-160,l),
(480,800,l),
(80,800,l),
(80,-160,l)
);
},
{
closed = 1;
nodes = (
(160,720,l),
(400,720,l),
(400,-80,l),
(160,-80,l)
);
}
);
width = 560;
}
);
},
{
glyphname = period;
kernLeft = period;
kernRight = period;
lastChange = "2018-09-10 14:14:25 +0000";
layers = (
{
hints = (
{
horizontal = 1;
origin = (0,11);
stem = -1;
target = (0,5);
type = TTStem;
}
);
layerId = "83692D61-586C-413E-9B5A-1AF652750951";
shapes = (
{
closed = 1;
nodes = (
(331,-12,o),
(372,29,o),
(372,79,cs),
(372,131,o),
(333,172,o),
(280,172,cs),
(229,172,o),
(188,130,o),
(188,79,cs),
(188,28,o),
(227,-12,o),
(280,-12,cs)
);
}
);
width = 560;
},
{
associatedMasterId = "83692D61-586C-413E-9B5A-1AF652750951";
layerId = "32AC2FFF-2820-41ED-B603-ABB1E8D703E9";
name = "Feb 5 18, 12:15";
shapes = (
{
closed = 1;
nodes = (
(326,-16,o),
(357,27,o),
(357,84,cs),
(357,140,o),
(326,183,o),
(280,183,cs),
(234,183,o),
(203,140,o),
(203,84,cs),
(203,27,o),
(234,-16,o),
(280,-16,cs)
);
}
);
visible = 1;
width = 560;
}
);
unicode = 46;
},
{
glyphname = comma;
kernLeft = period;
kernRight = period;
lastChange = "2018-09-07 16:48:48 +0000";
layers = (
{
background = {
shapes = (
{
ref = period;
}
);
};
hints = (
{
horizontal = 1;
origin = (0,1);
type = TTSnap;
},
{
horizontal = 1;
origin = (0,3);
type = TTSnap;
}
);
layerId = "83692D61-586C-413E-9B5A-1AF652750951";
shapes = (
{
closed = 1;
nodes = (
(377,160,l),
(232,160,l),
(159,-160,l),
(226,-160,l)
);
}
);
width = 560;
}
);
unicode = 44;
},
{
glyphname = ellipsis;
lastChange = "2018-09-10 14:14:37 +0000";
layers = (
{
background = {
shapes = (
{
closed = 1;
nodes = (
(480,0,l),
(480,160,l),
(400,160,l),
(400,0,l)
);
},
{
closed = 1;
nodes = (
(160,0,l),
(160,160,l),
(80,160,l),
(80,0,l)
);
},
{
closed = 1;
nodes = (
(320,0,l),
(320,160,l),
(240,160,l),
(240,0,l)
);
}
);
};
hints = (
{
horizontal = 1;
origin = (0,11);
type = TTSnap;
},
{
horizontal = 1;
origin = (1,11);
type = TTSnap;
},
{
horizontal = 1;
origin = (2,11);
type = TTSnap;
},
{
horizontal = 1;
origin = (2,11);
stem = -1;
target = (2,5);
type = TTStem;
},
{
horizontal = 1;
options = 4;
origin = (2,5);
target = (1,5);
type = TTShift;
},
{
horizontal = 1;
options = 4;
origin = (1,5);
target = (0,5);
type = TTShift;
}
);
layerId = "83692D61-586C-413E-9B5A-1AF652750951";
shapes = (
{
closed = 1;
nodes = (
(153,-12,o),
(177,11,o),
(177,44,cs),
(177,77,o),
(153,100,o),
(120,100,cs),
(87,100,o),
(63,77,o),
(63,44,cs),
(63,11,o),
(87,-12,o),
(120,-12,cs)
);
},
{
closed = 1;
nodes = (
(313,-12,o),
(337,11,o),
(337,44,cs),
(337,77,o),
(313,100,o),
(280,100,cs),
(247,100,o),
(223,77,o),
(223,44,cs),
(223,11,o),
(247,-12,o),
(280,-12,cs)
);
},
{
closed = 1;
nodes = (
(473,-12,o),
(497,11,o),
(497,44,cs),
(497,77,o),
(473,100,o),
(440,100,cs),
(407,100,o),
(383,77,o),
(383,44,cs),
(383,11,o),
(407,-12,o),
(440,-12,cs)
);
}
);
width = 560;
},
{
associatedMasterId = "83692D61-586C-413E-9B5A-1AF652750951";
background = {
shapes = (
{
closed = 1;
nodes = (
(480,0,l),
(480,160,l),
(400,160,l),
(400,0,l)
);
},
{
closed = 1;
nodes = (
(160,0,l),
(160,160,l),
(80,160,l),
(80,0,l)
);
},
{
closed = 1;
nodes = (
(320,0,l),
(320,160,l),
(240,160,l),
(240,0,l)
);
}
);
};
layerId = "4F57C0E9-0768-4C67-8A6E-A840AB21D8AF";
name = "Feb 5 18, 13:24";
shapes = (
{
closed = 1;
nodes = (
(171,-12,o),
(212,29,o),
(212,79,cs),
(212,131,o),
(173,172,o),
(120,172,cs),
(69,172,o),
(28,130,o),
(28,79,cs),
(28,28,o),
(67,-12,o),
(120,-12,cs)
);
},
{
closed = 1;
nodes = (
(171,-12,o),
(212,29,o),
(212,79,cs),
(212,131,o),
(173,172,o),
(120,172,cs),
(69,172,o),
(28,130,o),
(28,79,cs),
(28,28,o),
(67,-12,o),
(120,-12,cs)
);
},
{
closed = 1;
nodes = (
(331,-12,o),
(372,29,o),
(372,79,cs),
(372,131,o),
(333,172,o),
(280,172,cs),
(229,172,o),
(188,130,o),
(188,79,cs),
(188,28,o),
(227,-12,o),
(280,-12,cs)
);
},
{
closed = 1;
nodes = (
(331,-12,o),
(372,29,o),
(372,79,cs),
(372,131,o),
(333,172,o),
(280,172,cs),
(229,172,o),
(188,130,o),
(188,79,cs),
(188,28,o),
(227,-12,o),
(280,-12,cs)
);
},
{
closed = 1;
nodes = (
(491,-12,o),
(532,29,o),
(532,79,cs),
(532,131,o),
(493,172,o),
(440,172,cs),
(389,172,o),
(348,130,o),
(348,79,cs),
(348,28,o),
(387,-12,o),
(440,-12,cs)
);
},
{
closed = 1;
nodes = (
(491,-12,o),
(532,29,o),
(532,79,cs),
(532,131,o),
(493,172,o),
(440,172,cs),
(389,172,o),
(348,130,o),
(348,79,cs),
(348,28,o),
(387,-12,o),
(440,-12,cs)
);
}
);
width = 560;
}
);
unicode = 8230;
},
{
color = 7;
glyphname = exclam;
lastChange = "2018-06-14 16:44:57 +0000";
layers = (
{
background = {
shapes = (
{
closed = 1;
nodes = (
(320,240,l),
(320,720,l),
(240,720,l),
(240,240,l)
);
},
{
closed = 1;
nodes = (
(320,0,l),
(320,160,l),
(240,160,l),
(240,0,l)
);
}
);
};
layerId = "83692D61-586C-413E-9B5A-1AF652750951";
shapes = (
{
closed = 1;
nodes = (
(307,280,l),
(348,720,l),
(212,720,l),
(253,280,l)
);
},
{
ref = period;
}
);
width = 560;
},
{
associatedMasterId = "83692D61-586C-413E-9B5A-1AF652750951";
background = {
shapes = (
{
closed = 1;
nodes = (
(320,240,l),
(320,720,l),
(240,720,l),
(240,240,l)
);
},
{
closed = 1;
nodes = (
(320,0,l),
(320,160,l),
(240,160,l),
(240,0,l)
);
}
);
};
layerId = "6DA340A7-505F-4AF4-A2AA-65095B002187";
name = "Jun 14 18, 18:44";
shapes = (
{
closed = 1;
nodes = (
(307,280,l),
(348,800,l),
(212,800,l),
(253,280,l)
);
},
{
ref = period;
}
);
width = 560;
}
);
unicode = 33;
},
{
color = 3;
glyphname = exclam_equal.liga;
lastChange = "2018-01-05 14:39:35 +0000";
layers = (
{
layerId = "83692D61-586C-413E-9B5A-1AF652750951";
shapes = (
{
closed = 1;
nodes = (
(1080,404,l),
(1080,476,l),
(40,476,l),
(40,404,l)
);
},
{
closed = 1;
nodes = (
(1080,244,l),
(1080,316,l),
(40,316,l),
(40,244,l)
);
},
{
pos = (257,0);
ref = slash;
}
);
width = 1120;
}
);
},
{
color = 7;
glyphname = question;
lastChange = "2018-05-11 15:56:51 +0000";
layers = (
{
background = {
shapes = (
{
closed = 1;
nodes = (
(80,720,l),
(80,640,l),
(400,640,l),
(400,720,l)
);
},
{
closed = 1;
nodes = (
(400,400,l),
(480,400,l),
(480,640,l),
(400,640,l)
);
},
{
closed = 1;
nodes = (
(400,320,l),
(400,400,l),
(320,400,l),
(320,320,l)
);
},
{
closed = 1;
nodes = (
(320,240,l),
(320,320,l),
(240,320,l),
(240,240,l)
);
},
{
closed = 1;
nodes = (
(240,0,l),
(320,0,l),
(320,160,l),
(240,160,l)
);
}
);
};
layerId = "83692D61-586C-413E-9B5A-1AF652750951";
shapes = (
{
closed = 1;
nodes = (
(400,317,o),
(486,409,o),
(486,522,cs),
(486,648,o),
(396,730,o),
(252,730,cs),
(186,730,o),
(120,709,o),
(73,688,c),
(91,631,l),
(127,643,o),
(190,658,o),
(238,658,cs),
(342,658,o),
(396,604,o),
(396,515,cs),
(396,430,o),
(342,368,o),
(243,290,c),
(285,240,l)
);
},
{
ref = period;
}
);
width = 560;
}
);
unicode = 63;
},
{
glyphname = periodcentered;
lastChange = "2018-09-10 14:19:59 +0000";
layers = (
{
background = {
shapes = (
{
closed = 1;
nodes = (
(320,240,l),
(320,400,l),
(240,400,l),
(240,240,l)
);
}
);
};
hints = (
{
horizontal = 1;
origin = (0,11);
stem = -1;
target = (0,5);
type = TTStem;
},
{
horizontal = 1;
origin = (0,11);
type = TTSnap;
}
);
layerId = "83692D61-586C-413E-9B5A-1AF652750951";
shapes = (
{
closed = 1;
nodes = (
(313,264,o),
(337,287,o),
(337,320,cs),
(337,353,o),
(313,376,o),
(280,376,cs),
(247,376,o),
(223,353,o),
(223,320,cs),
(223,287,o),
(247,264,o),
(280,264,cs)
);
}
);
width = 560;
}
);
unicode = 183;
},
{
color = 7;
glyphname = asterisk;
lastChange = "2020-12-01 07:57:00 +0000";
layers = (
{
background = {
shapes = (
{
closed = 1;
nodes = (
(243,266,l),
(521,356,l),
(496,432,l),
(218,342,l)
);
},
{
closed = 1;
nodes = (
(265,273,l),
(394,94,l),
(460,143,l),
(329,320,l)
);
},
{
closed = 1;
nodes = (
(318,320,l),
(320,560,l),
(240,560,l),
(242,320,l)
);
},
{
closed = 1;
nodes = (
(230,316,l),
(104,142,l),
(166,96,l),
(292,271,l)
);
},
{
closed = 1;
nodes = (
(64,432,l),
(39,356,l),
(274,280,l),
(299,356,l)
);
}
);
};
layerId = "83692D61-586C-413E-9B5A-1AF652750951";
shapes = (
{
alignment = -1;
pos = (0,66);
ref = _part.asterisk;
},
{
alignment = -1;
angle = -71.9999;
pos = (-73,526);
ref = _part.asterisk;
},
{
alignment = -1;
angle = 71.9999;
pos = (460,-7);
ref = _part.asterisk;
},
{
alignment = -1;
angle = 143.99988;
pos = (671,408);
ref = _part.asterisk;
},
{
alignment = -1;
angle = -143.99988;
pos = (342,737);
ref = _part.asterisk;
}
);
width = 560;
}
);
unicode = 42;
},
{
glyphname = numbersign;
lastChange = "2018-09-07 16:50:19 +0000";
layers = (
{
hints = (
{
horizontal = 1;
origin = (0,0);
type = TTSnap;
},
{
horizontal = 1;
options = 4;
origin = (0,0);
target = (0,3);
type = TTShift;
},
{
horizontal = 1;
origin = (0,17);
type = TTSnap;
},
{
horizontal = 1;
options = 4;
origin = (0,17);
target = (0,14);
type = TTShift;
},
{
horizontal = 1;
origin = (0,0);
other1 = (0,1);
target = (0,17);
type = TTInterpolate;
},
{
horizontal = 1;
options = 4;
origin = (0,1);
target = (0,5);
type = TTShift;
},
{
horizontal = 1;
options = 4;
origin = (0,5);
target = (0,26);
type = TTShift;
},
{
horizontal = 1;
options = 4;
origin = (0,26);
target = (0,23);
type = TTStem;
},
{
horizontal = 1;
options = 4;
origin = (0,23);
target = (1,3);
type = TTShift;
},
{
horizontal = 1;
options = 4;
origin = (1,3);
target = (0,8);
type = TTShift;
},
{
horizontal = 1;
origin = (0,0);
other1 = (0,19);
target = (0,17);
type = TTInterpolate;
},
{
horizontal = 1;
options = 4;
origin = (0,19);
target = (0,16);
type = TTShift;
},
{
horizontal = 1;
options = 4;
origin = (0,16);
target = (0,12);
type = TTShift;
},
{
horizontal = 1;
options = 4;
origin = (0,12);
target = (0,9);
type = TTStem;
},
{
horizontal = 1;
options = 4;
origin = (0,9);
target = (1,1);
type = TTShift;
},
{
horizontal = 1;
options = 4;
origin = (1,1);
target = (0,22);
type = TTShift;
}
);
layerId = "83692D61-586C-413E-9B5A-1AF652750951";
shapes = (
{
closed = 1;
nodes = (
(218,-20,l),
(218,206,l),
(342,206,l),
(342,-20,l),
(418,-20,l),
(418,206,l),
(520,206,l),
(520,276,l),
(418,276,l),
(418,456,l),
(520,456,l),
(520,526,l),
(418,526,l),
(418,740,l),
(342,740,l),
(342,526,l),
(218,526,l),
(218,740,l),
(142,740,l),
(142,526,l),
(40,526,l),
(40,456,l),
(142,456,l),
(142,276,l),
(40,276,l),
(40,206,l),
(142,206,l),
(142,-20,l)
);
},
{
closed = 1;
nodes = (
(218,456,l),
(342,456,l),
(342,276,l),
(218,276,l)
);
}
);
width = 560;
}
);
unicode = 35;
},
{
glyphname = slash;
lastChange = "2018-09-07 16:50:24 +0000";
layers = (
{
hints = (
{
horizontal = 1;
origin = (0,0);
type = TTSnap;
},
{
horizontal = 1;
origin = (0,2);
type = TTSnap;
}
);
layerId = "83692D61-586C-413E-9B5A-1AF652750951";
shapes = (
{
closed = 1;
nodes = (
(158,-160,l),
(480,800,l),
(404,800,l),
(82,-160,l)
);
}
);
width = 560;
}
);
unicode = 47;
},
{
glyphname = backslash;
lastChange = "2018-09-07 16:50:28 +0000";
layers = (
{
hints = (
{
horizontal = 1;
origin = (0,1);
type = TTSnap;
},
{
horizontal = 1;
origin = (0,3);
type = TTSnap;
}
);
layerId = "83692D61-586C-413E-9B5A-1AF652750951";
shapes = (
{
closed = 1;
nodes = (
(483,-160,l),
(162,800,l),
(77,800,l),
(399,-160,l)
);
}
);
width = 560;
},
{
associatedMasterId = "83692D61-586C-413E-9B5A-1AF652750951";
layerId = "D1782013-A2CC-4C52-A25F-86B78A6BE938";
name = "Jan 4 18, 16:13";
shapes = (
{
closed = 1;
nodes = (
(483,-80,l),
(163,720,l),
(77,720,l),
(397,-80,l)
);
}
);
width = 560;
}
);
unicode = 92;
},
{
glyphname = hyphen;
lastChange = "2018-09-10 14:19:50 +0000";
layers = (
{
hints = (
{
horizontal = 1;
options = 4;
origin = (0,3);
target = (0,2);
type = TTStem;
},
{
horizontal = 1;
origin = (0,3);
type = TTSnap;
}
);
layerId = "83692D61-586C-413E-9B5A-1AF652750951";
shapes = (
{
closed = 1;
nodes = (
(480,320,l),
(480,390,l),
(80,390,l),
(80,320,l)
);
}
);
width = 560;
}
);
unicode = 45;
},
{
glyphname = endash;
lastChange = "2018-09-10 14:19:47 +0000";
layers = (
{
hints = (
{
horizontal = 1;
options = 4;
origin = (0,3);
target = (0,2);
type = TTStem;
},
{
horizontal = 1;
origin = (0,3);
type = TTSnap;
}
);
layerId = "83692D61-586C-413E-9B5A-1AF652750951";
shapes = (
{
closed = 1;
nodes = (
(560,320,l),
(560,390,l),
(0,390,l),
(0,320,l)
);
}
);
width = 560;
}
);
unicode = 8211;
},
{
glyphname = emdash;
lastChange = "2018-09-10 14:17:03 +0000";
layers = (
{
hints = (
{
horizontal = 1;
origin = (0,3);
type = TTSnap;
},
{
horizontal = 1;
options = 4;
origin = (0,3);
target = (0,2);
type = TTStem;
}
);
layerId = "83692D61-586C-413E-9B5A-1AF652750951";
shapes = (
{
closed = 1;
nodes = (
(560,320,l),
(560,390,l),
(0,390,l),
(0,320,l)
);
}
);
width = 560;
}
);
unicode = 8212;
},
{
glyphname = underscore;
lastChange = "2018-09-10 14:20:20 +0000";
layers = (
{
hints = (
{
horizontal = 1;
options = 4;
origin = (0,1);
target = (0,0);
type = TTStem;
},
{
horizontal = 1;
origin = (0,1);
type = TTSnap;
}
);
layerId = "83692D61-586C-413E-9B5A-1AF652750951";
shapes = (
{
closed = 1;
nodes = (
(80,72,l),
(80,0,l),
(480,0,l),
(480,72,l)
);
}
);
width = 560;
}
);
unicode = 95;
},
{
color = 7;
glyphname = parenleft;
lastChange = "2020-12-01 07:57:00 +0000";
layers = (
{
background = {
shapes = (
{
closed = 1;
nodes = (
(480,800,l),
(320,800,l),
(320,720,l),
(480,720,l)
);
},
{
closed = 1;
nodes = (
(320,720,l),
(240,720,l),
(240,560,l),
(320,560,l)
);
},
{
closed = 1;
nodes = (
(240,560,l),
(160,560,l),
(160,80,l),
(240,80,l)
);
},
{
closed = 1;
nodes = (
(320,-80,l),
(320,80,l),
(240,80,l),
(240,-80,l)
);
},
{
closed = 1;
nodes = (
(480,-160,l),
(480,-80,l),
(320,-80,l),
(320,-160,l)
);
}
);
};
layerId = "83692D61-586C-413E-9B5A-1AF652750951";
shapes = (
{
alignment = -1;
ref = _part.paren;
},
{
alignment = -1;
pos = (0,640);
ref = _part.paren;
scale = (1,-1);
}
);
width = 560;
}
);
unicode = 40;
},
{
glyphname = bracketleft;
lastChange = "2018-09-07 16:50:36 +0000";
layers = (
{
hints = (
{
horizontal = 1;
options = 4;
origin = (0,7);
target = (0,2);
type = TTStem;
},
{
horizontal = 1;
options = 4;
origin = (0,6);
target = (0,3);
type = TTStem;
}
);
layerId = "83692D61-586C-413E-9B5A-1AF652750951";
shapes = (
{
closed = 1;
nodes = (
(480,-160,l),
(480,-90,l),
(240,-90,l),
(240,730,l),
(480,730,l),
(480,800,l),
(160,800,l),
(160,-160,l)
);
}
);
width = 560;
}
);
unicode = 91;
},
{
glyphname = bracketright;
lastChange = "2018-09-07 16:50:40 +0000";
layers = (
{
hints = (
{
horizontal = 1;
options = 4;
origin = (0,1);
target = (0,4);
type = TTStem;
},
{
horizontal = 1;
options = 4;
origin = (0,0);
target = (0,5);
type = TTStem;
}
);
layerId = "83692D61-586C-413E-9B5A-1AF652750951";
shapes = (
{
closed = 1;
nodes = (
(400,-160,l),
(400,800,l),
(80,800,l),
(80,730,l),
(320,730,l),
(320,-90,l),
(80,-90,l),
(80,-160,l)
);
}
);
width = 560;
}
);
unicode = 93;
},
{
glyphname = quoteright;
lastChange = "2018-09-07 16:51:10 +0000";
layers = (
{
background = {
shapes = (
{
closed = 1;
nodes = (
(237,731,o),
(205,695,o),
(205,650,cs),
(205,597,o),
(242,568,o),
(302,564,c),
(287,514,o),
(227,474,o),
(126,456,c),
(139,394,l),
(299,418,o),
(383,494,o),
(383,611,cs),
(383,692,o),
(339,731,o),
(287,731,cs)
);
}
);
};
hints = (
{
horizontal = 1;
origin = (0,18);
type = TTSnap;
},
{
horizontal = 1;
origin = (0,12);
type = TTSnap;
},
{
horizontal = 1;
options = 4;
origin = (0,12);
target = (0,11);
type = TTStem;
}
);
layerId = "83692D61-586C-413E-9B5A-1AF652750951";
shapes = (
{
closed = 1;
nodes = (
(237,731,o),
(205,695,o),
(205,647,cs),
(205,617,o),
(220,590,o),
(251,576,cs),
(271,567,o),
(282,557,o),
(282,544,cs),
(282,511,o),
(227,476,o),
(126,456,c),
(139,394,l),
(299,418,o),
(383,494,o),
(383,611,cs),
(383,692,o),
(339,731,o),
(287,731,cs)
);
}
);
width = 560;
},
{
associatedMasterId = "83692D61-586C-413E-9B5A-1AF652750951";
background = {
shapes = (
{
closed = 1;
nodes = (
(400,480,l),
(400,720,l),
(240,720,l),
(240,560,l),
(320,560,l),
(320,480,l)
);
},
{
closed = 1;
nodes = (
(320,400,l),
(320,480,l),
(160,480,l),
(160,400,l)
);
}
);
};
layerId = "5BA9B940-4A38-47DF-8D31-B576CD5004BD";
name = "Jan 26 18, 11:59";
shapes = (
{
closed = 1;
nodes = (
(299,418,o),
(383,494,o),
(383,611,cs),
(383,692,o),
(339,731,o),
(287,731,cs),
(237,731,o),
(205,695,o),
(205,650,cs),
(205,593,o),
(248,564,o),
(317,564,cs),
(343,564,l),
(306,632,l),
(306,590,ls),
(306,528,o),
(244,477,o),
(126,456,c),
(139,394,l)
);
}
);
width = 560;
}
);
unicode = 8217;
},
{
glyphname = quotesingle;
lastChange = "2018-09-07 16:51:05 +0000";
layers = (
{
hints = (
{
horizontal = 1;
origin = (0,2);
type = TTSnap;
},
{
horizontal = 1;
origin = (0,3);
type = TTSnap;
}
);
layerId = "83692D61-586C-413E-9B5A-1AF652750951";
shapes = (
{
closed = 1;
nodes = (
(312,400,l),
(346,720,l),
(214,720,l),
(248,400,l)
);
}
);
width = 560;
}
);
unicode = 39;
},
{
glyphname = at;
lastChange = "2018-09-10 14:21:55 +0000";
layers = (
{
background = {
shapes = (
{
pos = (160,560);
ref = pixel;
},
{
pos = (240,560);
ref = pixel;
},
{
pos = (320,560);
ref = pixel;
},
{
pos = (80,480);
ref = pixel;
},
{
pos = (400,480);
ref = pixel;
},
{
pos = (400,400);
ref = pixel;
},
{
pos = (400,240);
ref = pixel;
},
{
pos = (400,320);
ref = pixel;
},
{
pos = (240,320);
ref = pixel;
},
{
pos = (80,400);
ref = pixel;
},
{
pos = (80,320);
ref = pixel;
},
{
pos = (80,240);
ref = pixel;
},
{
pos = (80,160);
ref = pixel;
},
{
pos = (80,80);
ref = pixel;
},
{
pos = (80,0);
ref = pixel;
},
{
pos = (160,-80);
ref = pixel;
},
{
pos = (240,-80);
ref = pixel;
},
{
pos = (320,-80);
ref = pixel;
},
{
pos = (240,240);
ref = pixel;
},
{
pos = (240,160);
ref = pixel;
},
{
pos = (400,160);
ref = pixel;
},
{
pos = (400,-80);
ref = pixel;
},
{
pos = (240,80);
ref = pixel;
},
{
pos = (320,80);
ref = pixel;
},
{
pos = (400,80);
ref = pixel;
},
{
pos = (320,320);
ref = pixel;
}
);
};
hints = (
{
horizontal = 1;
options = 4;
origin = (0,45);
target = (0,12);
type = TTStem;
},
{
horizontal = 1;
options = 4;
origin = (0,51);
target = (0,6);
type = TTStem;
},
{
horizontal = 1;
options = 4;
origin = (0,38);
target = (0,19);
type = TTStem;
},
{
horizontal = 1;
options = 4;
origin = (0,32);
target = (0,25);
type = TTStem;
},
{
horizontal = 1;
origin = (0,51);
type = TTSnap;
},
{
horizontal = 1;
origin = (0,38);
type = TTSnap;
},
{
horizontal = 1;
origin = (0,32);
type = TTSnap;
}
);
layerId = "83692D61-586C-413E-9B5A-1AF652750951";
shapes = (
{
closed = 1;
nodes = (
(372,-91,o),
(418,-82,o),
(465,-70,c),
(455,-6,l),
(413,-15,o),
(368,-21,o),
(330,-21,cs),
(212,-21,o),
(150,53,o),
(150,265,cs),
(150,514,o),
(200,581,o),
(285,581,cs),
(361,581,o),
(400,544,o),
(400,456,cs),
(400,211,l),
(388,209,o),
(375,208,o),
(365,208,cs),
(326,208,o),
(311,219,o),
(311,280,cs),
(311,337,o),
(326,352,o),
(368,352,cs),
(391,352,o),
(415,350,o),
(442,348,c),
(442,414,l),
(418,417,o),
(387,420,o),
(356,420,cs),
(267,420,o),
(231,365,o),
(231,280,cs),
(231,178,o),
(273,140,o),
(360,140,cs),
(399,140,o),
(444,148,o),
(480,159,c),
(480,451,ls),
(480,567,o),
(425,651,o),
(289,651,cs),
(146,651,o),
(70,530,o),
(70,265,cs),
(70,4,o),
(174,-91,o),
(326,-91,cs)
);
}
);
width = 560;
}
);
unicode = 64;
},
{
color = 0;
glyphname = ampersand;
lastChange = "2018-09-10 14:22:10 +0000";
layers = (
{
background = {
shapes = (
{
closed = 1;
nodes = (
(400,400,l),
(400,640,l),
(320,640,l),
(320,400,l)
);
},
{
closed = 1;
nodes = (
(320,0,l),
(320,80,l),
(160,80,l),
(160,0,l)
);
},
{
closed = 1;
nodes = (
(160,80,l),
(160,320,l),
(80,320,l),
(80,80,l)
);
},
{
closed = 1;
nodes = (
(240,320,l),
(240,400,l),
(160,400,l),
(160,320,l)
);
},
{
closed = 1;
nodes = (
(320,240,l),
(320,320,l),
(240,320,l),
(240,240,l)
);
},
{
closed = 1;
nodes = (
(400,160,l),
(400,240,l),
(320,240,l),
(320,160,l)
);
},
{
closed = 1;
nodes = (
(480,80,l),
(480,160,l),
(400,160,l),
(400,80,l)
);
},
{
closed = 1;
nodes = (
(560,0,l),
(560,80,l),
(480,80,l),
(480,0,l)
);
},
{
closed = 1;
nodes = (
(160,400,l),
(160,640,l),
(80,640,l),
(80,400,l)
);
},
{
closed = 1;
nodes = (
(480,240,l),
(480,320,l),
(400,320,l),
(400,240,l)
);
},
{
closed = 1;
nodes = (
(560,320,l),
(560,400,l),
(480,400,l),
(480,320,l)
);
},
{
closed = 1;
nodes = (
(320,640,l),
(320,720,l),
(160,720,l),
(160,640,l)
);
}
);
};
hints = (
{
horizontal = 1;
options = 4;
origin = (0,20);
target = (0,7);
type = TTStem;
},
{
horizontal = 1;
options = 4;
origin = (1,19);
target = (1,6);
type = TTStem;
},
{
horizontal = 1;
origin = (0,27);
type = TTSnap;
},
{
horizontal = 1;
origin = (2,2);
type = TTSnap;
},
{
horizontal = 1;
origin = (2,0);
type = TTSnap;
}
);
layerId = "83692D61-586C-413E-9B5A-1AF652750951";
shapes = (
{
closed = 1;
nodes = (
(588,0,l),
(280,299,ls),
(187,389,o),
(152,467,o),
(152,544,cs),
(152,610,o),
(188,650,o),
(240,650,cs),
(286,650,o),
(320,616,o),
(320,546,cs),
(320,485,o),
(292,420,o),
(253,357,c),
(303,326,l),
(366,402,o),
(404,477,o),
(404,552,cs),
(404,651,o),
(348,720,o),
(244,720,cs),
(152,720,o),
(72,653,o),
(72,539,cs),
(72,432,o),
(120,352,o),
(229,245,cs),
(480,0,l)
);
},
{
closed = 1;
nodes = (
(297,-9,o),
(332,0,o),
(354,10,c),
(339,73,l),
(314,67,o),
(290,63,o),
(267,63,cs),
(190,63,o),
(147,120,o),
(147,243,cs),
(147,264,o),
(149,286,o),
(151,307,c),
(79,326,l),
(72,305,o),
(67,264,o),
(67,228,cs),
(67,63,o),
(149,-9,o),
(263,-9,cs)
);
},
{
closed = 1;
nodes = (
(456,240,l),
(561,400,l),
(476,400,l),
(371,240,l)
);
}
);
width = 560;
},
{
associatedMasterId = "83692D61-586C-413E-9B5A-1AF652750951";
background = {
shapes = (
{
closed = 1;
nodes = (
(400,400,l),
(400,640,l),
(320,640,l),
(320,400,l)
);
},
{
closed = 1;
nodes = (
(320,0,l),
(320,80,l),
(160,80,l),
(160,0,l)
);
},
{
closed = 1;
nodes = (
(160,80,l),
(160,320,l),
(80,320,l),
(80,80,l)
);
},
{
closed = 1;
nodes = (
(240,320,l),
(240,400,l),
(160,400,l),
(160,320,l)
);
},
{
closed = 1;
nodes = (
(320,240,l),
(320,320,l),
(240,320,l),
(240,240,l)
);
},
{
closed = 1;
nodes = (
(400,160,l),
(400,240,l),
(320,240,l),
(320,160,l)
);
},
{
closed = 1;
nodes = (
(480,80,l),
(480,160,l),
(400,160,l),
(400,80,l)
);
},
{
closed = 1;
nodes = (
(560,0,l),
(560,80,l),
(480,80,l),
(480,0,l)
);
},
{
closed = 1;
nodes = (
(160,400,l),
(160,640,l),
(80,640,l),
(80,400,l)
);
},
{
closed = 1;
nodes = (
(480,240,l),
(480,320,l),
(400,320,l),
(400,240,l)
);
},
{
closed = 1;
nodes = (
(560,320,l),
(560,400,l),
(480,400,l),
(480,320,l)
);
},
{
closed = 1;
nodes = (
(320,640,l),
(320,720,l),
(160,720,l),
(160,640,l)
);
}
);
};
layerId = "344DF66D-6917-4E54-A369-84072C6A01F4";
name = "May 11 18, 18:03";
shapes = (
{
closed = 1;
nodes = (
(558,72,l),
(433,153,o),
(337,234,o),
(273,299,cs),
(176,399,o),
(152,467,o),
(152,544,cs),
(152,610,o),
(188,650,o),
(240,650,cs),
(294,650,o),
(320,620,o),
(320,560,cs),
(320,400,l),
(400,400,l),
(400,560,ls),
(400,665,o),
(342,720,o),
(240,720,cs),
(152,720,o),
(72,655,o),
(72,539,cs),
(72,432,o),
(115,354,o),
(222,245,cs),
(292,173,o),
(394,92,o),
(516,5,c)
);
},
{
closed = 1;
nodes = (
(297,-9,o),
(332,0,o),
(354,10,c),
(339,73,l),
(314,67,o),
(290,63,o),
(267,63,cs),
(190,63,o),
(147,120,o),
(147,243,cs),
(147,264,o),
(149,286,o),
(151,307,c),
(79,326,l),
(72,305,o),
(67,264,o),
(67,228,cs),
(67,63,o),
(149,-9,o),
(263,-9,cs)
);
},
{
closed = 1;
nodes = (
(456,240,l),
(561,400,l),
(476,400,l),
(371,240,l)
);
}
);
width = 560;
}
);
unicode = 38;
},
{
color = 1;
glyphname = copyright;
lastChange = "2018-09-10 14:22:40 +0000";
layers = (
{
background = {
shapes = (
{
closed = 1;
nodes = (
(0,160,l),
(80,160,l),
(80,240,l),
(0,240,l)
);
},
{
closed = 1;
nodes = (
(0,240,l),
(80,240,l),
(80,320,l),
(0,320,l)
);
},
{
closed = 1;
nodes = (
(0,320,l),
(80,320,l),
(80,400,l),
(0,400,l)
);
},
{
closed = 1;
nodes = (
(0,400,l),
(80,400,l),
(80,480,l),
(0,480,l)
);
},
{
closed = 1;
nodes = (
(0,480,l),
(80,480,l),
(80,560,l),
(0,560,l)
);
},
{
closed = 1;
nodes = (
(160,640,l),
(240,640,l),
(240,720,l),
(160,720,l)
);
},
{
closed = 1;
nodes = (
(240,640,l),
(320,640,l),
(320,720,l),
(240,720,l)
);
},
{
closed = 1;
nodes = (
(320,640,l),
(400,640,l),
(400,720,l),
(320,720,l)
);
},
{
closed = 1;
nodes = (
(480,480,l),
(560,480,l),
(560,560,l),
(480,560,l)
);
},
{
closed = 1;
nodes = (
(480,400,l),
(560,400,l),
(560,480,l),
(480,480,l)
);
},
{
closed = 1;
nodes = (
(480,320,l),
(560,320,l),
(560,400,l),
(480,400,l)
);
},
{
closed = 1;
nodes = (
(480,240,l),
(560,240,l),
(560,320,l),
(480,320,l)
);
},
{
closed = 1;
nodes = (
(480,160,l),
(560,160,l),
(560,240,l),
(480,240,l)
);
},
{
closed = 1;
nodes = (
(160,320,l),
(240,320,l),
(240,400,l),
(160,400,l)
);
},
{
closed = 1;
nodes = (
(160,240,l),
(240,240,l),
(240,320,l),
(160,320,l)
);
},
{
closed = 1;
nodes = (
(400,0,l),
(480,0,l),
(480,80,l),
(400,80,l)
);
},
{
closed = 1;
nodes = (
(480,80,l),
(560,80,l),
(560,160,l),
(480,160,l)
);
},
{
closed = 1;
nodes = (
(0,80,l),
(80,80,l),
(80,160,l),
(0,160,l)
);
},
{
closed = 1;
nodes = (
(240,160,l),
(320,160,l),
(320,240,l),
(240,240,l)
);
},
{
closed = 1;
nodes = (
(320,160,l),
(400,160,l),
(400,240,l),
(320,240,l)
);
},
{
closed = 1;
nodes = (
(80,0,l),
(160,0,l),
(160,80,l),
(80,80,l)
);
},
{
closed = 1;
nodes = (
(160,-80,l),
(240,-80,l),
(240,0,l),
(160,0,l)
);
},
{
closed = 1;
nodes = (
(240,-80,l),
(320,-80,l),
(320,0,l),
(240,0,l)
);
},
{
closed = 1;
nodes = (
(320,-80,l),
(400,-80,l),
(400,0,l),
(320,0,l)
);
},
{
closed = 1;
nodes = (
(80,560,l),
(160,560,l),
(160,640,l),
(80,640,l)
);
},
{
closed = 1;
nodes = (
(400,560,l),
(480,560,l),
(480,640,l),
(400,640,l)
);
},
{
closed = 1;
nodes = (
(240,400,l),
(320,400,l),
(320,480,l),
(240,480,l)
);
},
{
closed = 1;
nodes = (
(320,400,l),
(400,400,l),
(400,480,l),
(320,480,l)
);
}
);
};
hints = (
{
horizontal = 1;
options = 4;
origin = (0,5);
target = (1,5);
type = TTStem;
},
{
horizontal = 1;
options = 4;
origin = (0,11);
target = (1,11);
type = TTStem;
},
{
horizontal = 1;
origin = (0,11);
type = TTSnap;
},
{
horizontal = 1;
origin = (0,5);
other1 = (2,25);
target = (0,11);
type = TTInterpolate;
},
{
horizontal = 1;
origin = (0,5);
other1 = (2,19);
target = (1,11);
type = TTInterpolate;
},
{
horizontal = 1;
options = 4;
origin = (2,19);
target = (2,12);
type = TTStem;
},
{
horizontal = 1;
options = 4;
origin = (2,25);
target = (2,6);
type = TTStem;
}
);
layerId = "83692D61-586C-413E-9B5A-1AF652750951";
shapes = (
{
closed = 1;
nodes = (
(452,-92,o),
(560,67,o),
(560,320,cs),
(560,573,o),
(452,732,o),
(280,732,cs),
(108,732,o),
(0,573,o),
(0,320,cs),
(0,67,o),
(108,-92,o),
(280,-92,cs)
);
},
{
closed = 1;
nodes = (
(145,-20,o),
(80,119,o),
(80,321,cs),
(80,523,o),
(145,660,o),
(281,660,cs),
(417,660,o),
(480,523,o),
(480,321,cs),
(480,119,o),
(417,-20,o),
(281,-20,cs)
);
},
{
closed = 1;
nodes = (
(333,160,o),
(368,170,o),
(397,184,c),
(384,246,l),
(361,240,o),
(333,237,o),
(309,237,cs),
(251,237,o),
(224,266,o),
(224,320,cs),
(224,387,o),
(261,408,o),
(304,408,cs),
(339,408,o),
(365,404,o),
(383,400,c),
(398,465,l),
(373,473,o),
(329,480,o),
(300,480,cs),
(203,480,o),
(144,422,o),
(144,320,cs),
(144,234,o),
(195,160,o),
(296,160,cs)
);
}
);
width = 560;
}
);
unicode = 169;
},
{
glyphname = bar;
lastChange = "2018-09-07 16:53:10 +0000";
layers = (
{
background = {
shapes = (
{
closed = 1;
nodes = (
(158,-160,l),
(480,800,l),
(404,800,l),
(82,-160,l)
);
}
);
};
hints = (
{
horizontal = 1;
origin = (0,2);
type = TTSnap;
},
{
horizontal = 1;
origin = (0,3);
type = TTSnap;
}
);
layerId = "83692D61-586C-413E-9B5A-1AF652750951";
shapes = (
{
closed = 1;
nodes = (
(320,-160,l),
(320,800,l),
(240,800,l),
(240,-160,l)
);
}
);
width = 560;
}
);
unicode = 124;
},
{
glyphname = dollar;
lastChange = "2018-09-10 14:21:13 +0000";
layers = (
{
background = {
shapes = (
{
closed = 1;
nodes = (
(320,880,l),
(240,880,l),
(240,720,l),
(160,720,l),
(160,640,l),
(400,640,l),
(400,720,l),
(320,720,l)
);
},
{
closed = 1;
nodes = (
(80,480,l),
(160,480,l),
(160,640,l),
(80,640,l)
);
},
{
closed = 1;
nodes = (
(480,640,l),
(400,640,l),
(400,560,l),
(480,560,l)
);
},
{
closed = 1;
nodes = (
(240,480,l),
(160,480,l),
(160,400,l),
(240,400,l)
);
},
{
closed = 1;
nodes = (
(320,400,l),
(240,400,l),
(240,320,l),
(320,320,l)
);
},
{
closed = 1;
nodes = (
(400,320,l),
(320,320,l),
(320,240,l),
(400,240,l)
);
},
{
closed = 1;
nodes = (
(480,80,l),
(480,240,l),
(400,240,l),
(400,80,l)
);
},
{
closed = 1;
nodes = (
(80,80,l),
(160,80,l),
(160,160,l),
(80,160,l)
);
},
{
closed = 1;
nodes = (
(160,80,l),
(160,0,l),
(240,0,l),
(240,-160,l),
(320,-160,l),
(320,0,l),
(400,0,l),
(400,80,l)
);
}
);
};
hints = (
{
horizontal = 1;
options = 4;
origin = (0,31,1,3);
target = (0,24);
type = TTStem;
},
{
horizontal = 1;
options = 4;
origin = (0,15,2,1);
target = (0,8);
type = TTStem;
},
{
horizontal = 1;
options = 4;
origin = (0,31,1,3);
other1 = (0,21,0);
target = (0,8);
type = TTInterpolate;
},
{
horizontal = 1;
options = 4;
origin = (0,24);
other1 = (0,5,0);
target = (0,15,2,1);
type = TTInterpolate;
},
{
horizontal = 1;
origin = (0,15,2,1);
stem = -1;
target = (2,1);
type = TTStem;
},
{
horizontal = 1;
origin = (0,31,1,3);
stem = -1;
target = (1,3);
type = TTStem;
}
);
layerId = "83692D61-586C-413E-9B5A-1AF652750951";
shapes = (
{
closed = 1;
nodes = (
(390,-9,o),
(458,80,o),
(458,172,cs),
(458,380,o),
(187,396,o),
(187,556,cs),
(187,605,o),
(221,658,o),
(292,658,cs),
(335,658,o),
(380,646,o),
(429,623,c),
(458,683,l),
(420,704,o),
(356,730,o),
(284,730,cs),
(167,730,o),
(105,641,o),
(105,550,cs),
(105,353,o),
(376,325,o),
(376,170,cs),
(376,104,o),
(329,63,o),
(255,63,cs),
(207,63,o),
(152,83,o),
(113,104,c),
(86,43,l),
(138,12,o),
(192,-9,o),
(260,-9,cs)
);
},
{
closed = 1;
nodes = (
(312,-160,l),
(312,0,l),
(232,0,l),
(232,-160,l)
);
},
{
closed = 1;
nodes = (
(324,720,l),
(324,880,l),
(244,880,l),
(244,720,l)
);
}
);
width = 560;
}
);
unicode = 36;
},
{
glyphname = downArrowToBar;
lastChange = "2021-09-22 14:49:13 +0000";
layers = (
{
background = {
shapes = (
{
closed = 0;
nodes = (
(320,190,l),
(420,272,l),
(463,225,l),
(300,57,l)
);
}
);
};
layerId = "83692D61-586C-413E-9B5A-1AF652750951";
shapes = (
{
closed = 1;
nodes = (
(300,57,l),
(463,225,l),
(420,272,l),
(320,190,l),
(320,720,l),
(240,720,l),
(240,190,l),
(140,272,l),
(97,225,l),
(260,57,l)
);
},
{
closed = 1;
nodes = (
(480,-80,l),
(480,-8,l),
(80,-8,l),
(80,-80,l)
);
}
);
width = 560;
}
);
unicode = 10515;
},
{
glyphname = plus;
lastChange = "2018-09-07 16:51:44 +0000";
layers = (
{
hints = (
{
horizontal = 1;
origin = (0,10);
type = TTSnap;
},
{
horizontal = 1;
options = 4;
origin = (0,10);
target = (0,1);
type = TTShift;
},
{
horizontal = 1;
options = 4;
origin = (0,1);
target = (0,4);
type = TTStem;
},
{
horizontal = 1;
options = 4;
origin = (0,4);
target = (0,7);
type = TTShift;
},
{
horizontal = 1;
origin = (0,7);
stem = -1;
target = (0,6);
type = TTStem;
},
{
horizontal = 1;
origin = (0,10);
stem = -1;
target = (0,11);
type = TTStem;
}
);
layerId = "83692D61-586C-413E-9B5A-1AF652750951";
shapes = (
{
closed = 1;
nodes = (
(320,100,l),
(320,324,l),
(540,324,l),
(540,396,l),
(320,396,l),
(320,620,l),
(240,620,l),
(240,396,l),
(20,396,l),
(20,324,l),
(240,324,l),
(240,100,l)
);
}
);
width = 560;
}
);
unicode = 43;
},
{
glyphname = minus;
lastChange = "2018-09-07 16:51:48 +0000";
layers = (
{
hints = (
{
horizontal = 1;
origin = (0,3);
type = TTSnap;
},
{
horizontal = 1;
options = 4;
origin = (0,3);
target = (0,2);
type = TTStem;
}
);
layerId = "83692D61-586C-413E-9B5A-1AF652750951";
shapes = (
{
closed = 1;
nodes = (
(540,324,l),
(540,396,l),
(20,396,l),
(20,324,l)
);
}
);
width = 560;
}
);
unicode = 8722;
},
{
glyphname = equal;
lastChange = "2018-09-10 14:21:34 +0000";
layers = (
{
hints = (
{
horizontal = 1;
origin = (1,2);
type = TTSnap;
},
{
horizontal = 1;
origin = (1,2);
stem = -1;
target = (0,3);
type = TTStem;
},
{
horizontal = 1;
options = 4;
origin = (0,3);
target = (0,2);
type = TTStem;
},
{
horizontal = 1;
options = 4;
origin = (1,2);
target = (1,3);
type = TTStem;
}
);
layerId = "83692D61-586C-413E-9B5A-1AF652750951";
shapes = (
{
closed = 1;
nodes = (
(540,404,l),
(540,476,l),
(20,476,l),
(20,404,l)
);
},
{
closed = 1;
nodes = (
(540,244,l),
(540,316,l),
(20,316,l),
(20,244,l)
);
}
);
width = 560;
}
);
unicode = 61;
},
{
glyphname = greater;
lastChange = "2018-01-08 10:19:11 +0000";
layers = (
{
background = {
shapes = (
{
pos = (160,560);
ref = pixel;
},
{
pos = (160,80);
ref = pixel;
},
{
pos = (240,160);
ref = pixel;
},
{
pos = (320,240);
ref = pixel;
},
{
pos = (400,320);
ref = pixel;
},
{
pos = (320,400);
ref = pixel;
},
{
pos = (240,480);
ref = pixel;
}
);
};
layerId = "83692D61-586C-413E-9B5A-1AF652750951";
shapes = (
{
closed = 1;
nodes = (
(80,-36,l),
(497,342,l),
(480,379,l),
(436,379,l),
(80,58,l)
);
},
{
closed = 1;
nodes = (
(436,330,l),
(497,342,l),
(497,379,l),
(80,757,l),
(80,651,l)
);
}
);
width = 560;
}
);
unicode = 62;
},
{
glyphname = asciitilde;
lastChange = "2018-09-07 16:52:31 +0000";
layers = (
{
background = {
shapes = (
{
closed = 1;
nodes = (
(80,240,l),
(72,362,o),
(101,402,o),
(160,402,cs),
(243,402,o),
(251,242,o),
(400,242,cs),
(497,242,o),
(565,309,o),
(560,480,c),
(488,480,l),
(493,356,o),
(457,318,o),
(400,318,cs),
(313,318,o),
(303,478,o),
(160,478,cs),
(62,478,o),
(0,411,o),
(8,240,c)
);
}
);
};
hints = (
{
horizontal = 1;
origin = (0,6);
type = TTSnap;
},
{
horizontal = 1;
options = 4;
origin = (0,6);
target = (0,13);
type = TTStem;
},
{
horizontal = 1;
origin = (0,6);
stem = -1;
target = (0,3);
type = TTStem;
},
{
horizontal = 1;
options = 4;
origin = (0,3);
target = (0,16);
type = TTStem;
},
{
horizontal = 1;
origin = (0,16);
target = (0,10);
type = TTShift;
},
{
horizontal = 1;
origin = (0,6);
target = (0,0);
type = TTShift;
}
);
layerId = "83692D61-586C-413E-9B5A-1AF652750951";
shapes = (
{
closed = 1;
nodes = (
(82,244,l),
(76,366,o),
(101,404,o),
(154,404,cs),
(241,404,o),
(251,242,o),
(396,242,cs),
(497,242,o),
(561,305,o),
(554,476,c),
(480,476,l),
(484,352,o),
(455,316,o),
(406,316,cs),
(317,316,o),
(310,478,o),
(164,478,cs),
(62,478,o),
(0,415,o),
(8,244,c)
);
}
);
width = 560;
}
);
unicode = 126;
},
{
glyphname = asciicircum;
lastChange = "2018-09-07 16:52:43 +0000";
layers = (
{
hints = (
{
horizontal = 1;
origin = (0,6);
type = TTSnap;
},
{
horizontal = 1;
options = 4;
origin = (0,6);
target = (0,3);
type = TTShift;
},
{
horizontal = 1;
origin = (0,0);
type = TTSnap;
},
{
horizontal = 1;
options = 4;
origin = (0,0);
target = (0,4,0,6);
type = TTShift;
}
);
layerId = "83692D61-586C-413E-9B5A-1AF652750951";
shapes = (
{
closed = 1;
nodes = (
(242,640,l),
(322,640,l),
(482,160,l),
(398,160,l),
(260,600,l),
(296,600,l),
(158,160,l),
(82,160,l)
);
}
);
width = 560;
}
);
unicode = 94;
},
{
color = 7;
glyphname = percent;
lastChange = "2018-01-08 10:26:04 +0000";
layers = (
{
background = {
shapes = (
{
pos = (0,80);
ref = pixel;
},
{
pos = (80,160);
ref = pixel;
},
{
pos = (160,240);
ref = pixel;
},
{
pos = (240,320);
ref = pixel;
},
{
pos = (320,400);
ref = pixel;
},
{
pos = (400,480);
ref = pixel;
},
{
pos = (480,560);
ref = pixel;
},
{
pos = (160,560);
ref = pixel;
},
{
pos = (80,640);
ref = pixel;
},
{
pos = (0,560);
ref = pixel;
},
{
pos = (320,80);
ref = pixel;
},
{
pos = (400,0);
ref = pixel;
},
{
pos = (480,80);
ref = pixel;
},
{
pos = (0,480);
ref = pixel;
},
{
pos = (80,400);
ref = pixel;
},
{
pos = (160,480);
ref = pixel;
},
{
pos = (320,160);
ref = pixel;
},
{
pos = (400,240);
ref = pixel;
},
{
pos = (480,160);
ref = pixel;
}
);
};
layerId = "83692D61-586C-413E-9B5A-1AF652750951";
shapes = (
{
closed = 1;
nodes = (
(94,80,l),
(550,640,l),
(466,640,l),
(10,80,l)
);
},
{
pos = (300,0);
ref = _part.percent;
},
{
pos = (20,419);
ref = _part.percent;
}
);
width = 560;
}
);
unicode = 37;
},
{
glyphname = upArrow;
lastChange = "2021-09-22 14:49:54 +0000";
layers = (
{
layerId = "83692D61-586C-413E-9B5A-1AF652750951";
shapes = (
{
closed = 1;
nodes = (
(320,0,l),
(320,610,l),
(420,528,l),
(463,575,l),
(300,743,l),
(260,743,l),
(97,575,l),
(140,528,l),
(240,610,l),
(240,0,l)
);
}
);
width = 560;
}
);
unicode = 8593;
},
{
glyphname = rightArrow;
lastChange = "2021-09-22 15:03:21 +0000";
layers = (
{
layerId = "83692D61-586C-413E-9B5A-1AF652750951";
shapes = (
{
closed = 1;
nodes = (
(0,320,l),
(450,320,l),
(368,220,l),
(415,177,l),
(583,340,l),
(583,370,l),
(415,533,l),
(368,490,l),
(450,390,l),
(0,390,l)
);
}
);
width = 560;
}
);
unicode = 8594;
},
{
glyphname = downArrow;
lastChange = "2021-09-22 14:50:06 +0000";
layers = (
{
layerId = "83692D61-586C-413E-9B5A-1AF652750951";
shapes = (
{
closed = 1;
nodes = (
(300,-23,l),
(463,145,l),
(420,192,l),
(320,110,l),
(320,720,l),
(240,720,l),
(240,110,l),
(140,192,l),
(97,145,l),
(260,-23,l)
);
}
);
width = 560;
}
);
unicode = 8595;
},
{
glyphname = leftArrow;
lastChange = "2021-09-22 15:03:32 +0000";
layers = (
{
layerId = "83692D61-586C-413E-9B5A-1AF652750951";
shapes = (
{
closed = 1;
nodes = (
(215,220,l),
(133,320,l),
(583,320,l),
(583,390,l),
(133,390,l),
(215,490,l),
(168,533,l),
(0,370,l),
(0,340,l),
(168,177,l)
);
}
);
width = 560;
}
);
unicode = 8592;
},
{
glyphname = upFrombarArrow;
lastChange = "2021-09-22 14:49:35 +0000";
layers = (
{
layerId = "83692D61-586C-413E-9B5A-1AF652750951";
shapes = (
{
closed = 1;
nodes = (
(320,80,l),
(320,610,l),
(420,528,l),
(463,575,l),
(300,743,l),
(260,743,l),
(97,575,l),
(140,528,l),
(240,610,l),
(240,80,l)
);
},
{
closed = 1;
nodes = (
(480,-80,l),
(480,-8,l),
(80,-8,l),
(80,-80,l)
);
}
);
width = 560;
}
);
unicode = 8613;
},
{
glyphname = fullBlock;
lastChange = "2018-09-13 08:14:54 +0000";
layers = (
{
hints = (
{
horizontal = 1;
origin = (0,2);
type = TTSnap;
},
{
horizontal = 1;
origin = (0,3);
type = TTSnap;
}
);
layerId = "83692D61-586C-413E-9B5A-1AF652750951";
shapes = (
{
closed = 1;
nodes = (
(560,-160,l),
(560,800,l),
(0,800,l),
(0,-160,l)
);
}
);
width = 560;
}
);
unicode = 9608;
},
{
glyphname = dieresiscomb;
lastChange = "2021-01-30 16:40:25 +0000";
layers = (
{
anchors = (
{
name = _top;
pos = (280,560);
},
{
name = top;
pos = (280,800);
}
);
background = {
shapes = (
{
closed = 1;
nodes = (
(400,640,l),
(400,800,l),
(320,800,l),
(320,640,l)
);
},
{
closed = 1;
nodes = (
(160,640,l),
(160,800,l),
(80,800,l),
(80,640,l)
);
}
);
};
hints = (
{
horizontal = 1;
origin = (0,11);
stem = 6;
type = TTSnap;
},
{
horizontal = 1;
options = 4;
origin = (0,11);
target = (1,11);
type = TTShift;
},
{
horizontal = 1;
origin = (1,11);
stem = -1;
target = (1,5);
type = TTStem;
},
{
horizontal = 1;
options = 4;
origin = (1,5);
target = (0,5);
type = TTShift;
}
);
layerId = "83692D61-586C-413E-9B5A-1AF652750951";
shapes = (
{
closed = 1;
nodes = (
(218,669,o),
(246,699,o),
(246,737,c),
(246,776,o),
(219,806,o),
(180,806,c),
(141,806,o),
(114,776,o),
(114,737,c),
(114,697,o),
(141,669,o),
(179,669,c)
);
},
{
closed = 1;
nodes = (
(419,669,o),
(446,699,o),
(446,738,c),
(446,778,o),
(419,806,o),
(380,806,c),
(341,806,o),
(314,776,o),
(314,737,c),
(314,697,o),
(341,669,o),
(379,669,c)
);
}
);
width = 560;
}
);
unicode = 776;
},
{
glyphname = dotaccentcomb;
lastChange = "2021-01-30 16:41:00 +0000";
layers = (
{
anchors = (
{
name = _top;
pos = (280,560);
},
{
name = top;
pos = (280,800);
}
);
hints = (
{
horizontal = 1;
origin = (0,11);
stem = 6;
type = TTSnap;
},
{
horizontal = 1;
origin = (0,11);
stem = -1;
target = (0,5);
type = TTStem;
}
);
layerId = "83692D61-586C-413E-9B5A-1AF652750951";
shapes = (
{
closed = 1;
nodes = (
(323,661,o),
(357,695,o),
(357,737,cs),
(357,781,o),
(325,814,o),
(281,814,cs),
(237,814,o),
(204,780,o),
(204,737,cs),
(204,692,o),
(236,661,o),
(279,661,cs)
);
}
);
width = 560;
}
);
unicode = 775;
},
{
glyphname = gravecomb;
lastChange = "2021-01-30 16:41:05 +0000";
layers = (
{
anchors = (
{
name = _top;
pos = (280,560);
},
{
name = top;
pos = (280,800);
}
);
hints = (
{
horizontal = 1;
origin = (0,2);
stem = 6;
type = TTSnap;
},
{
horizontal = 1;
origin = (0,2);
stem = -1;
target = (0,0);
type = TTStem;
}
);
layerId = "83692D61-586C-413E-9B5A-1AF652750951";
shapes = (
{
closed = 1;
nodes = (
(252,869,l),
(115,869,l),
(254,660,l),
(329,660,l)
);
}
);
width = 560;
}
);
unicode = 768;
},
{
glyphname = acutecomb;
lastChange = "2021-01-30 16:41:10 +0000";
layers = (
{
anchors = (
{
name = _top;
pos = (280,560);
},
{
name = top;
pos = (280,800);
}
);
hints = (
{
horizontal = 1;
origin = (0,0);
stem = 6;
type = TTSnap;
},
{
horizontal = 1;
origin = (0,0);
stem = -1;
target = (0,2);
type = TTStem;
}
);
layerId = "83692D61-586C-413E-9B5A-1AF652750951";
shapes = (
{
closed = 1;
nodes = (
(306,660,l),
(445,869,l),
(308,869,l),
(231,660,l)
);
}
);
width = 560;
}
);
unicode = 769;
},
{
glyphname = circumflexcomb;
lastChange = "2021-01-30 16:41:14 +0000";
layers = (
{
anchors = (
{
name = _top;
pos = (280,560);
},
{
name = top;
pos = (280,800);
}
);
hints = (
{
horizontal = 1;
origin = (0,0);
stem = 6;
type = TTSnap;
},
{
horizontal = 1;
options = 4;
origin = (0,0);
target = (1,2);
type = TTShift;
},
{
horizontal = 1;
origin = (1,2);
stem = -1;
target = (1,0);
type = TTStem;
},
{
horizontal = 1;
options = 4;
origin = (1,2);
other1 = (0,1,1,2);
target = (1,0);
type = TTInterpolate;
}
);
layerId = "83692D61-586C-413E-9B5A-1AF652750951";
shapes = (
{
closed = 1;
nodes = (
(188,660,l),
(343,869,l),
(206,869,l),
(113,660,l)
);
},
{
closed = 1;
nodes = (
(354,869,l),
(217,869,l),
(372,660,l),
(447,660,l)
);
}
);
width = 560;
}
);
unicode = 770;
},
{
glyphname = caroncomb;
lastChange = "2021-01-30 16:41:46 +0000";
layers = (
{
anchors = (
{
name = _top;
pos = (280,560);
},
{
name = top;
pos = (280,800);
}
);
hints = (
{
horizontal = 1;
origin = (1,3);
stem = 6;
type = TTSnap;
},
{
horizontal = 1;
origin = (1,3);
stem = -1;
target = (1,1);
type = TTStem;
},
{
horizontal = 1;
options = 4;
origin = (1,1);
target = (0,2);
type = TTShift;
},
{
horizontal = 1;
options = 4;
origin = (1,3);
other1 = (0,3,1,1);
target = (1,1);
type = TTInterpolate;
}
);
layerId = "83692D61-586C-413E-9B5A-1AF652750951";
shapes = (
{
closed = 1;
nodes = (
(354,660,l),
(447,869,l),
(372,869,l),
(217,660,l)
);
},
{
closed = 1;
nodes = (
(343,660,l),
(188,869,l),
(113,869,l),
(206,660,l)
);
}
);
width = 560;
}
);
unicode = 780;
},
{
glyphname = ringcomb;
lastChange = "2021-01-30 16:42:02 +0000";
layers = (
{
anchors = (
{
name = _top;
pos = (280,560);
},
{
name = top;
pos = (280,800);
}
);
background = {
shapes = (
{
closed = 1;
nodes = (
(354,660,l),
(447,869,l),
(372,869,l),
(217,660,l)
);
},
{
closed = 1;
nodes = (
(343,660,l),
(188,869,l),
(113,869,l),
(206,660,l)
);
}
);
};
hints = (
{
horizontal = 1;
options = 4;
origin = (0,11);
target = (1,11);
type = TTStem;
},
{
horizontal = 1;
origin = (0,11);
stem = 6;
type = TTSnap;
},
{
horizontal = 1;
origin = (0,11);
stem = -1;
target = (0,5);
type = TTStem;
},
{
horizontal = 1;
options = 4;
origin = (0,5);
target = (1,5);
type = TTStem;
}
);
layerId = "83692D61-586C-413E-9B5A-1AF652750951";
shapes = (
{
closed = 1;
nodes = (
(354,643,o),
(408,697,o),
(408,765,cs),
(408,833,o),
(354,886,o),
(280,886,cs),
(206,886,o),
(152,833,o),
(152,765,cs),
(152,697,o),
(206,643,o),
(280,643,cs)
);
},
{
closed = 1;
nodes = (
(246,706,o),
(223,734,o),
(223,765,cs),
(223,796,o),
(246,824,o),
(280,824,cs),
(314,824,o),
(335,796,o),
(335,765,cs),
(335,734,o),
(314,706,o),
(280,706,cs)
);
}
);
width = 560;
}
);
unicode = 778;
},
{
glyphname = tildecomb;
lastChange = "2021-01-30 16:40:47 +0000";
layers = (
{
anchors = (
{
name = _top;
pos = (280,560);
},
{
name = top;
pos = (280,800);
}
);
hints = (
{
horizontal = 1;
origin = (0,6);
stem = 6;
type = TTSnap;
},
{
horizontal = 1;
options = 4;
origin = (0,6);
target = (0,13);
type = TTStem;
},
{
horizontal = 1;
origin = (0,6);
stem = -1;
target = (0,3);
type = TTStem;
},
{
horizontal = 1;
options = 4;
origin = (0,3);
target = (0,16);
type = TTStem;
},
{
horizontal = 1;
origin = (0,16);
target = (0,10);
type = TTShift;
},
{
horizontal = 1;
origin = (0,6);
target = (0,0);
type = TTShift;
}
);
layerId = "83692D61-586C-413E-9B5A-1AF652750951";
shapes = (
{
closed = 1;
nodes = (
(182,660,l),
(180,727,o),
(188,748,o),
(211,748,cs),
(249,748,o),
(261,658,o),
(350,658,cs),
(419,658,o),
(459,703,o),
(452,824,c),
(380,824,l),
(381,755,o),
(370,736,o),
(350,736,cs),
(311,736,o),
(300,826,o),
(213,826,cs),
(146,826,o),
(103,781,o),
(110,660,c)
);
}
);
width = 560;
}
);
unicode = 771;
},
